<svg width="21" height="20" viewBox="0 0 21 20" fill="none" xmlns="http://www.w3.org/2000/svg">
<path d="M11.3333 17.5H3.5C3.36739 17.5 3.24021 17.4473 3.14645 17.3536C3.05268 17.2598 3 17.1326 3 17V3C3 2.86739 3.05268 2.74021 3.14645 2.64645C3.24021 2.55268 3.36739 2.5 3.5 2.5H17.5C17.6326 2.5 17.7598 2.55268 17.8536 2.64645C17.9473 2.74021 18 2.86739 18 3V10.8333" stroke="#333333" stroke-width="1.25" stroke-linecap="round" stroke-linejoin="round"/>
<path d="M3 13.3333L8.83333 10.8333L13.4167 12.9167M13.8333 15.8333H16.3333M16.3333 15.8333H18.8333M16.3333 15.8333V13.3333M16.3333 15.8333V18.3333M13.8333 8.33333C13.3913 8.33333 12.9674 8.15774 12.6548 7.84518C12.3423 7.53262 12.1667 7.10869 12.1667 6.66667C12.1667 6.22464 12.3423 5.80072 12.6548 5.48816C12.9674 5.17559 13.3913 5 13.8333 5C14.2754 5 14.6993 5.17559 15.0118 5.48816C15.3244 5.80072 15.5 6.22464 15.5 6.66667C15.5 7.10869 15.3244 7.53262 15.0118 7.84518C14.6993 8.15774 14.2754 8.33333 13.8333 8.33333Z" stroke="#333333" stroke-width="1.25" stroke-linecap="round" stroke-linejoin="round"/>
</svg>
