<svg width="21" height="19" viewBox="0 0 21 19" fill="none" xmlns="http://www.w3.org/2000/svg">
<path d="M19.983 18.625C19.9172 18.739 19.8225 18.8337 19.7084 18.8995C19.5944 18.9654 19.465 19 19.3333 19H1.33331C1.20172 18.9999 1.07248 18.9651 0.958577 18.8992C0.844669 18.8333 0.7501 18.7386 0.684365 18.6247C0.618629 18.5107 0.584042 18.3814 0.584076 18.2498C0.58411 18.1182 0.618763 17.9889 0.684557 17.875C2.11237 15.4065 4.31268 13.6365 6.88049 12.7975C5.61034 12.0414 4.62351 10.8892 4.07154 9.51792C3.51958 8.14665 3.43301 6.63211 3.82513 5.20688C4.21724 3.78165 5.06636 2.52454 6.24208 1.6286C7.4178 0.732664 8.85512 0.247437 10.3333 0.247437C11.8115 0.247437 13.2488 0.732664 14.4245 1.6286C15.6003 2.52454 16.4494 3.78165 16.8415 5.20688C17.2336 6.63211 17.147 8.14665 16.5951 9.51792C16.0431 10.8892 15.0563 12.0414 13.7861 12.7975C16.3539 13.6365 18.5542 15.4065 19.9821 17.875C20.048 17.9889 20.0828 18.1182 20.083 18.2499C20.0832 18.3815 20.0487 18.5109 19.983 18.625Z" fill="#8B8D91"/>
</svg>
