<svg width="23" height="13" viewBox="0 0 23 13" fill="none" xmlns="http://www.w3.org/2000/svg">
<path fill-rule="evenodd" clip-rule="evenodd" d="M15.1211 10.8295C15.0032 10.9394 14.9086 11.0719 14.843 11.2191C14.7774 11.3663 14.7422 11.5252 14.7393 11.6863C14.7365 11.8474 14.7661 12.0075 14.8265 12.1569C14.8868 12.3063 14.9767 12.442 15.0906 12.556C15.2046 12.6699 15.3403 12.7598 15.4897 12.8201C15.6391 12.8805 15.7992 12.9101 15.9603 12.9073C16.1214 12.9044 16.2803 12.8692 16.4275 12.8036C16.5747 12.738 16.7072 12.6434 16.8171 12.5255L22.0171 7.32554L22.8667 6.47754L22.0187 5.62954L16.8187 0.429537C16.5925 0.210839 16.2894 0.0897409 15.9748 0.0923257C15.6601 0.0949105 15.3591 0.220971 15.1365 0.443357C14.9139 0.665743 14.7875 0.96666 14.7847 1.2813C14.7818 1.59593 14.9026 1.89911 15.1211 2.12554L18.2731 5.27754H1.66667C1.34842 5.27754 1.04319 5.40397 0.818147 5.62901C0.593103 5.85405 0.466675 6.15928 0.466675 6.47754C0.466675 6.7958 0.593103 7.10102 0.818147 7.32606C1.04319 7.55111 1.34842 7.67754 1.66667 7.67754H18.2731L15.1211 10.8295Z" fill="#262625"/>
</svg>
