<svg width="24" height="14" viewBox="0 0 24 14" fill="none" xmlns="http://www.w3.org/2000/svg">
<path fill-rule="evenodd" clip-rule="evenodd" d="M15.4544 11.33C15.3365 11.4399 15.2419 11.5724 15.1763 11.7196C15.1108 11.8668 15.0755 12.0257 15.0726 12.1868C15.0698 12.3479 15.0994 12.508 15.1598 12.6574C15.2201 12.8068 15.31 12.9425 15.4239 13.0565C15.5379 13.1704 15.6736 13.2603 15.823 13.3206C15.9725 13.381 16.1325 13.4106 16.2936 13.4078C16.4547 13.4049 16.6137 13.3697 16.7608 13.3041C16.908 13.2385 17.0405 13.1439 17.1504 13.026L22.3504 7.82603L23.2 6.97803L22.352 6.13003L17.152 0.930026C16.9258 0.711327 16.6227 0.590229 16.3081 0.592814C15.9934 0.595399 15.6924 0.72146 15.4698 0.943845C15.2472 1.16623 15.1209 1.46715 15.118 1.78178C15.1151 2.09642 15.2359 2.3996 15.4544 2.62603L18.6064 5.77803H1.99999C1.68173 5.77803 1.3765 5.90445 1.15146 6.1295C0.926416 6.35454 0.799988 6.65977 0.799988 6.97803C0.799988 7.29629 0.926416 7.60151 1.15146 7.82655C1.3765 8.0516 1.68173 8.17803 1.99999 8.17803H18.6064L15.4544 11.33Z" fill="#262625"/>
</svg>
