<svg width="32" height="32" viewBox="0 0 32 32" fill="none" xmlns="http://www.w3.org/2000/svg">
<path fill-rule="evenodd" clip-rule="evenodd" d="M19.4542 20.3295C19.3363 20.4394 19.2417 20.5719 19.1762 20.7191C19.1106 20.8663 19.0753 21.0252 19.0725 21.1863C19.0696 21.3474 19.0993 21.5075 19.1596 21.6569C19.22 21.8063 19.3098 21.942 19.4237 22.056C19.5377 22.1699 19.6734 22.2598 19.8228 22.3201C19.9723 22.3805 20.1323 22.4101 20.2934 22.4073C20.4546 22.4044 20.6135 22.3692 20.7607 22.3036C20.9079 22.238 21.0403 22.1434 21.1502 22.0255L26.3502 16.8255L27.1998 15.9775L26.3518 15.1295L21.1518 9.92954C20.9256 9.71084 20.6225 9.58974 20.3079 9.59233C19.9932 9.59491 19.6922 9.72097 19.4696 9.94336C19.247 10.1657 19.1207 10.4667 19.1178 10.7813C19.1149 11.0959 19.2357 11.3991 19.4542 11.6255L22.6062 14.7775H5.9998C5.68154 14.7775 5.37632 14.904 5.15128 15.129C4.92623 15.3541 4.7998 15.6593 4.7998 15.9775C4.7998 16.2958 4.92623 16.601 5.15128 16.8261C5.37632 17.0511 5.68154 17.1775 5.9998 17.1775H22.6062L19.4542 20.3295Z" fill="#8B8D91"/>
</svg>
