<svg width="40" height="40" viewBox="0 0 40 40" fill="none" xmlns="http://www.w3.org/2000/svg">
<path fill-rule="evenodd" clip-rule="evenodd" d="M21.6666 4.9987C21.6666 4.55667 21.491 4.13275 21.1785 3.82019C20.8659 3.50763 20.442 3.33203 20 3.33203C19.5579 3.33203 19.134 3.50763 18.8215 3.82019C18.5089 4.13275 18.3333 4.55667 18.3333 4.9987V6.2487H17.405C15.6184 6.24858 13.8988 6.92935 12.5965 8.15243C11.2942 9.3755 10.5069 11.0489 10.395 12.832L10.0266 18.722C9.88425 20.9674 9.13038 23.131 7.84664 24.9787C7.58102 25.3605 7.41873 25.8045 7.37554 26.2676C7.33235 26.7306 7.40973 27.197 7.60016 27.6213C7.79058 28.0456 8.08757 28.4134 8.46225 28.689C8.83692 28.9645 9.27652 29.1384 9.7383 29.1937L15.4166 29.8737V31.6654C15.4166 32.8809 15.8995 34.0467 16.7591 34.9063C17.6186 35.7658 18.7844 36.2487 20 36.2487C21.2155 36.2487 22.3813 35.7658 23.2409 34.9063C24.1004 34.0467 24.5833 32.8809 24.5833 31.6654V29.8737L30.2616 29.192C30.7231 29.1366 31.1625 28.9626 31.5369 28.6872C31.9113 28.4118 32.2082 28.0442 32.3985 27.6201C32.5889 27.1961 32.6664 26.73 32.6234 26.2671C32.5805 25.8043 32.4185 25.3605 32.1533 24.9787C30.8696 23.131 30.1157 20.9674 29.9733 18.722L29.605 12.8337C29.4934 11.0503 28.7064 9.37646 27.404 8.15303C26.1016 6.92961 24.3819 6.24861 22.595 6.2487H21.6666V4.9987ZM17.9166 31.6654C17.9166 32.2179 18.1361 32.7478 18.5268 33.1385C18.9175 33.5292 19.4474 33.7487 20 33.7487C20.5525 33.7487 21.0824 33.5292 21.4731 33.1385C21.8638 32.7478 22.0833 32.2179 22.0833 31.6654V30.4154H17.9166V31.6654Z" fill="#DBDBDB"/>
</svg>
