<svg width="24" height="24" viewBox="0 0 24 24" fill="none" xmlns="http://www.w3.org/2000/svg">
<path d="M10.1999 7.20078H16.9999M10.1999 12.0008H16.9999M10.1999 16.8008H16.9999M7.59993 7.20078C7.59993 7.4217 7.42084 7.60078 7.19993 7.60078C6.97901 7.60078 6.79993 7.4217 6.79993 7.20078C6.79993 6.97987 6.97901 6.80078 7.19993 6.80078C7.42084 6.80078 7.59993 6.97987 7.59993 7.20078ZM7.59993 12.0008C7.59993 12.2217 7.42084 12.4008 7.19993 12.4008C6.97901 12.4008 6.79993 12.2217 6.79993 12.0008C6.79993 11.7799 6.97901 11.6008 7.19993 11.6008C7.42084 11.6008 7.59993 11.7799 7.59993 12.0008ZM7.59993 16.8008C7.59993 17.0217 7.42084 17.2008 7.19993 17.2008C6.97901 17.2008 6.79993 17.0217 6.79993 16.8008C6.79993 16.5799 6.97901 16.4008 7.19993 16.4008C7.42084 16.4008 7.59993 16.5799 7.59993 16.8008Z" stroke="#667085" stroke-width="1.8" stroke-linecap="round" stroke-linejoin="round"/>
</svg>
