<svg width="28" height="28" viewBox="0 0 28 28" fill="none" xmlns="http://www.w3.org/2000/svg">
<path d="M23.992 8.7186C23.0295 7.1704 21.5037 6.32329 19.3282 6.12805C18.0802 6.01868 16.5812 6.39821 15.377 6.70501C14.8345 6.84336 14.2188 6.99977 14 6.99977C13.7812 6.99977 13.1698 6.84336 12.6328 6.70501C11.4253 6.39602 9.9225 6.01102 8.6707 6.1286C6.56359 6.32602 5.06133 7.17805 4.07695 8.73282C3.09258 10.2876 2.625 12.5232 2.625 15.7498C2.625 19.101 4.23992 22.0159 5.20242 23.4547C6.38859 25.2293 8.16211 27.1248 9.58125 27.1248C10.5968 27.1248 11.4472 26.7294 12.1964 26.3788C13.2891 25.867 14 25.8123 14 25.8123C14 25.8123 14.6016 25.8123 15.7467 26.3652C16.4965 26.7272 17.3523 27.1248 18.4187 27.1248C19.8723 27.1248 21.6497 25.2277 22.8282 23.4525C23.7792 22.0197 25.375 19.1141 25.375 15.7498C25.375 12.4685 24.9375 10.2356 23.992 8.7186ZM11.8125 19.2498C11.0879 19.2498 10.5 18.0745 10.5 16.6248C10.5 15.175 11.0879 13.9998 11.8125 13.9998C12.5371 13.9998 13.125 15.175 13.125 16.6248C13.125 18.0745 12.5371 19.2498 11.8125 19.2498ZM16.1875 19.2498C15.4629 19.2498 14.875 18.0745 14.875 16.6248C14.875 15.175 15.4629 13.9998 16.1875 13.9998C16.9121 13.9998 17.5 15.175 17.5 16.6248C17.5 18.0745 16.9121 19.2498 16.1875 19.2498Z" fill="#666666"/>
<path d="M17.7035 4.5258C19.3419 2.88845 19.25 0.884703 19.25 0.882515C19.25 0.880328 17.2939 0.67689 15.5734 2.39572C13.8529 4.11455 14.0033 6.12486 14.0033 6.12486C14.0033 6.12486 16.064 6.16369 17.7035 4.5258Z" fill="#666666"/>
</svg>
