<svg width="48" height="60" viewBox="0 0 48 60" fill="none" xmlns="http://www.w3.org/2000/svg">
<path d="M44.625 53.4375C44.1739 53.4372 43.7306 53.3196 43.3387 53.0963L38.0625 50.0822C38.1108 44.7535 38.8777 39.4558 40.3425 34.3322L41.1863 31.3781C42.3349 27.3679 41.8874 23.0687 39.9375 19.3809V15.7575C39.9353 13.5289 40.388 11.3232 41.2678 9.27563C42.2482 6.99473 42.7526 4.53767 42.75 2.055V0.9375H40.875V2.055C40.8772 4.28363 40.4245 6.48926 39.5447 8.53687C38.5643 10.8178 38.0599 13.2748 38.0625 15.7575V16.5469L37.8562 16.2891L36.3938 17.4609L36.7941 17.9625C38.2243 19.7498 39.2059 21.8535 39.6567 24.0977C40.1075 26.342 40.0144 28.6616 39.3853 30.8625L38.5416 33.8166C36.9797 39.2828 36.1874 44.94 36.1875 50.625C36.1872 50.7899 36.2303 50.9519 36.3126 51.0948C36.3949 51.2377 36.5135 51.3563 36.6562 51.4388L42.405 54.72C43.0808 55.1075 43.846 55.3117 44.625 55.3125C44.8736 55.3125 45.1121 55.4113 45.2879 55.5871C45.4637 55.7629 45.5625 56.0014 45.5625 56.25C45.5625 56.4986 45.4637 56.7371 45.2879 56.9129C45.1121 57.0887 44.8736 57.1875 44.625 57.1875H30.5625C30.2143 57.1875 29.873 57.0905 29.5768 56.9075C29.2805 56.7244 29.0412 56.4625 28.8855 56.151C28.7297 55.8396 28.6638 55.4909 28.6951 55.1441C28.7263 54.7973 28.8536 54.4661 29.0625 54.1875L29.625 53.4375C30.8383 51.8127 31.4958 49.8403 31.5 47.8125C31.4999 47.7736 31.4974 47.7348 31.4925 47.6963L30.3037 38.1853C30.9311 38.4794 31.6482 38.518 32.3035 38.2928C32.9587 38.0676 33.5007 37.5964 33.8147 36.9788L36.1772 32.2978L34.5037 31.4541L32.1412 36.1359C32.076 36.2477 31.9853 36.3425 31.8766 36.4126C31.7678 36.4827 31.644 36.5261 31.5153 36.5394C31.3866 36.5526 31.2566 36.5353 31.1358 36.4888C31.015 36.4423 30.9069 36.368 30.8203 36.2719C28.8447 33.8251 27.7647 30.7766 27.7594 27.6319V26.5547C27.7591 24.5911 28.0786 22.6406 28.7053 20.7797C28.9083 20.1858 29.2925 19.6704 29.8038 19.3063C30.315 18.9422 30.9276 18.7476 31.5553 18.75V16.875C30.5514 16.8747 29.5718 17.1834 28.7494 17.7591C28.7166 17.535 28.6959 17.3094 28.6875 17.0831C28.6876 16.4251 28.7936 15.7715 29.0016 15.1472C29.4147 13.9088 29.6252 12.6118 29.625 11.3063C29.6242 10.5074 29.4384 9.71966 29.0822 9.00469L28.3912 7.62188C27.3553 5.54576 26.8149 3.25771 26.8125 0.9375H24.9375C24.9418 3.54928 25.5515 6.1245 26.7188 8.46094L27.4097 9.84375C27.6346 10.2984 27.7511 10.799 27.75 11.3063C27.7504 12.4101 27.5725 13.5067 27.2231 14.5538C26.6814 16.1686 26.6755 17.9152 27.2062 19.5338C27.0969 19.7426 27.0029 19.9591 26.925 20.1816C26.2327 22.2357 25.88 24.3889 25.8806 26.5566V27.6319C25.8888 30.4379 26.6511 33.1901 28.0875 35.6006L29.625 47.8697C29.609 49.4723 29.0837 51.0282 28.125 52.3125L27.5625 53.0625C27.1446 53.6196 26.8902 54.2821 26.8277 54.9757C26.7651 55.6693 26.8969 56.3667 27.2084 56.9895C27.5198 57.6124 27.9986 58.1363 28.591 58.5024C29.1834 58.8686 29.8661 59.0625 30.5625 59.0625H44.625C45.3709 59.0625 46.0863 58.7662 46.6137 58.2387C47.1412 57.7113 47.4375 56.9959 47.4375 56.25C47.4375 55.5041 47.1412 54.7887 46.6137 54.2613C46.0863 53.7338 45.3709 53.4375 44.625 53.4375Z" fill="#8B8D91"/>
<path d="M32.4566 15.1875L34.2941 14.82L33.8169 12.4303C33.2282 9.48759 33.2282 6.4574 33.8169 3.51469L34.2941 1.125L32.4566 0.75L31.9785 3.13875C31.3405 6.32588 31.3405 9.60786 31.9785 12.795L32.4566 15.1875Z" fill="#8B8D91"/>
<path d="M21.2859 8.46094C22.4516 6.12411 23.0597 3.5489 23.0625 0.9375H21.1875C21.1851 3.25771 20.6447 5.54576 19.6087 7.62188L18.9178 9.00469C18.5616 9.71966 18.3758 10.5074 18.375 11.3063C18.3745 12.6127 18.585 13.9107 18.9984 15.15C19.2061 15.7734 19.3121 16.4261 19.3125 17.0831C19.3041 17.3094 19.2834 17.535 19.2506 17.7591C18.4282 17.1834 17.4486 16.8747 16.4447 16.875V18.75C17.0724 18.7476 17.685 18.9422 18.1962 19.3063C18.7075 19.6704 19.0917 20.1858 19.2947 20.7797C19.9214 22.6406 20.2409 24.5911 20.2406 26.5547V27.63C20.2353 30.7748 19.1553 33.8232 17.1797 36.27C17.0931 36.3661 16.985 36.4405 16.8642 36.487C16.7435 36.5334 16.6134 36.5508 16.4847 36.5375C16.356 36.5243 16.2322 36.4808 16.1234 36.4107C16.0147 36.3406 15.924 36.2458 15.8588 36.1341L13.5 31.4522L11.8266 32.2959L14.1891 36.9769C14.5031 37.5945 15.045 38.0657 15.7003 38.2909C16.3555 38.5161 17.0727 38.4775 17.7 38.1834L16.5075 47.6963C16.5026 47.7348 16.5001 47.7736 16.5 47.8125C16.5042 49.8403 17.1617 51.8127 18.375 53.4375L18.9375 54.1875C19.1464 54.4661 19.2737 54.7973 19.3049 55.1441C19.3362 55.4909 19.2703 55.8396 19.1146 56.151C18.9588 56.4625 18.7194 56.7244 18.4232 56.9075C18.127 57.0905 17.7857 57.1875 17.4375 57.1875H3.375C3.12636 57.1875 2.8879 57.0887 2.71209 56.9129C2.53627 56.7371 2.4375 56.4986 2.4375 56.25C2.4375 56.0014 2.53627 55.7629 2.71209 55.5871C2.8879 55.4113 3.12636 55.3125 3.375 55.3125C4.15237 55.3122 4.91623 55.1093 5.59125 54.7238L11.34 51.4425C11.484 51.3602 11.6037 51.2412 11.6867 51.0976C11.7697 50.954 11.8131 50.7909 11.8125 50.625C11.8126 44.94 11.0203 39.2828 9.45844 33.8166L8.61469 30.8625C7.98599 28.6617 7.89308 26.3425 8.3437 24.0985C8.79433 21.8545 9.77542 19.7509 11.205 17.9634L11.6063 17.4609L10.1437 16.2891L9.9375 16.5459V15.7575C9.93984 13.2755 9.43548 10.8191 8.45531 8.53875C7.57526 6.49055 7.12258 4.28426 7.125 2.055V0.9375H5.25V2.055C5.24766 4.53704 5.75202 6.99344 6.73219 9.27375C7.61224 11.3219 8.06492 13.5282 8.0625 15.7575V19.38C6.11106 23.0682 5.66256 27.3685 6.81094 31.38L7.65469 34.3341C9.12028 39.4569 9.88814 44.754 9.9375 50.0822L4.66406 53.0963C4.27134 53.3201 3.82704 53.4377 3.375 53.4375C2.62908 53.4375 1.91371 53.7338 1.38626 54.2613C0.858816 54.7887 0.5625 55.5041 0.5625 56.25C0.5625 56.9959 0.858816 57.7113 1.38626 58.2387C1.91371 58.7662 2.62908 59.0625 3.375 59.0625H17.4375C18.1339 59.0625 18.8166 58.8686 19.409 58.5024C20.0014 58.1363 20.4802 57.6124 20.7916 56.9895C21.1031 56.3667 21.2349 55.6693 21.1723 54.9757C21.1098 54.2821 20.8554 53.6196 20.4375 53.0625L19.875 52.3125C18.9163 51.0282 18.391 49.4723 18.375 47.8697L19.9088 35.5997C21.3452 33.1892 22.1074 30.437 22.1156 27.6309V26.5547C22.1163 24.3871 21.7635 22.2338 21.0712 20.1797C20.9934 19.9572 20.8994 19.7407 20.79 19.5319C21.3207 17.9137 21.3148 16.1674 20.7731 14.5528C20.4253 13.5058 20.2487 12.4095 20.25 11.3063C20.2503 10.7986 20.3684 10.298 20.595 9.84375L21.2859 8.46094Z" fill="#8B8D91"/>
<path d="M13.7061 14.8125L15.5436 15.18L16.0217 12.7912C16.339 11.2033 16.4991 9.58805 16.4998 7.96875C16.4994 6.3482 16.3392 4.73164 16.0217 3.1425L15.5436 0.75L13.7061 1.125L14.1832 3.51469C14.4766 4.98123 14.6245 6.47315 14.6248 7.96875C14.6248 9.4656 14.4769 10.9588 14.1832 12.4266L13.7061 14.8125Z" fill="#8B8D91"/>
</svg>
