<svg width="25" height="25" viewBox="0 0 25 25" fill="none" xmlns="http://www.w3.org/2000/svg">
<path d="M22.8463 1.85669C21.6573 0.667861 20.0448 0 18.3634 0C16.6821 0 15.0695 0.667861 13.8806 1.85669L1.80007 13.936C0.63616 15.1298 -0.0105163 16.7342 0.000129385 18.4015C0.0107751 20.0688 0.677886 21.6648 1.85694 22.8437C3.036 24.0226 4.63206 24.6895 6.29935 24.6999C7.96665 24.7103 9.57092 24.0634 10.7646 22.8993L22.8463 10.8201C24.0329 9.63039 24.6993 8.01867 24.6993 6.33837C24.6993 4.65807 24.0329 3.04635 22.8463 1.85669ZM21.499 9.47394L15.4588 15.513L9.18761 9.24304L15.2279 3.2028C16.0628 2.38718 17.1855 1.9336 18.3527 1.94042C19.5198 1.94723 20.6373 2.41391 21.4626 3.23922C22.2879 4.06454 22.7546 5.18195 22.7614 6.3491C22.7682 7.51625 22.3146 8.63904 21.499 9.47394ZM19.6625 6.94358C19.7511 7.03201 19.8213 7.13702 19.8692 7.25261C19.9171 7.3682 19.9418 7.49211 19.9418 7.61723C19.9418 7.74236 19.9171 7.86626 19.8692 7.98185C19.8213 8.09744 19.7511 8.20246 19.6625 8.29088L16.8061 11.1474C16.7176 11.2357 16.6126 11.3058 16.497 11.3536C16.3815 11.4014 16.2576 11.426 16.1326 11.426C16.0075 11.4259 15.8837 11.4012 15.7682 11.3533C15.6527 11.3054 15.5477 11.2352 15.4593 11.1468C15.371 11.0583 15.3009 10.9533 15.2531 10.8377C15.2053 10.7222 15.1807 10.5983 15.1807 10.4733C15.1808 10.3482 15.2055 10.2244 15.2534 10.1089C15.3013 9.99338 15.3715 9.88844 15.4599 9.80005L18.3164 6.94358C18.495 6.76515 18.737 6.66492 18.9895 6.66492C19.2419 6.66492 19.484 6.76515 19.6625 6.94358Z" fill="#666666"/>
</svg>
