<svg width="28" height="28" viewBox="0 0 28 28" fill="none" xmlns="http://www.w3.org/2000/svg">
<path fill-rule="evenodd" clip-rule="evenodd" d="M20.4163 5.8335C20.5711 5.8335 20.7194 5.89495 20.8288 6.00435C20.9382 6.11375 20.9997 6.26212 20.9997 6.41683V14.5835C20.9997 14.7382 20.9382 14.8866 20.8288 14.996C20.7194 15.1054 20.5711 15.1668 20.4163 15.1668C20.2616 15.1668 20.1133 15.1054 20.0039 14.996C19.8945 14.8866 19.833 14.7382 19.833 14.5835V6.41683C19.833 6.26212 19.8945 6.11375 20.0039 6.00435C20.1133 5.89495 20.2616 5.8335 20.4163 5.8335ZM25.083 5.8335C25.2377 5.8335 25.3861 5.89495 25.4955 6.00435C25.6049 6.11375 25.6663 6.26212 25.6663 6.41683V14.5835C25.6663 14.7382 25.6049 14.8866 25.4955 14.996C25.3861 15.1054 25.2377 15.1668 25.083 15.1668C24.9283 15.1668 24.7799 15.1054 24.6705 14.996C24.5611 14.8866 24.4997 14.7382 24.4997 14.5835V6.41683C24.4997 6.26212 24.5611 6.11375 24.6705 6.00435C24.7799 5.89495 24.9283 5.8335 25.083 5.8335ZM22.7497 5.8335C22.9044 5.8335 23.0528 5.89495 23.1622 6.00435C23.2716 6.11375 23.333 6.26212 23.333 6.41683V14.5835C23.333 14.7382 23.2716 14.8866 23.1622 14.996C23.0528 15.1054 22.9044 15.1668 22.7497 15.1668C22.595 15.1668 22.4466 15.1054 22.3372 14.996C22.2278 14.8866 22.1663 14.7382 22.1663 14.5835V6.41683C22.1663 6.26212 22.2278 6.11375 22.3372 6.00435C22.4466 5.89495 22.595 5.8335 22.7497 5.8335Z" fill="#666666"/>
<path fill-rule="evenodd" clip-rule="evenodd" d="M22.7497 12.8337C22.9044 12.8337 23.0528 12.8951 23.1622 13.0045C23.2715 13.1139 23.333 13.2623 23.333 13.417V21.5837C23.333 21.7384 23.2715 21.8867 23.1622 21.9961C23.0528 22.1055 22.9044 22.167 22.7497 22.167C22.595 22.167 22.4466 22.1055 22.3372 21.9961C22.2278 21.8867 22.1663 21.7384 22.1663 21.5837V13.417C22.1663 13.2623 22.2278 13.1139 22.3372 13.0045C22.4466 12.8951 22.595 12.8337 22.7497 12.8337ZM19.833 6.41699V9.64166C19.833 10.075 19.9536 10.4998 20.1814 10.8684C20.4092 11.2371 20.7352 11.535 21.1228 11.7288L23.333 12.8337V9.60899C23.333 9.17564 23.2124 8.75085 22.9846 8.3822C22.7568 8.01356 22.4308 7.71564 22.0433 7.52183L19.833 6.41699ZM20.9997 8.30466V9.64166C20.9997 9.85836 21.06 10.0708 21.174 10.2551C21.288 10.4394 21.451 10.5884 21.6448 10.6852L22.1663 10.946V9.60899C22.1663 9.39229 22.106 9.17987 21.992 8.99554C21.8781 8.81122 21.715 8.66228 21.5212 8.56541L20.9997 8.30466Z" fill="#666666"/>
<path fill-rule="evenodd" clip-rule="evenodd" d="M19.833 9.91699V13.1417C19.833 13.575 19.9536 13.9998 20.1814 14.3684C20.4092 14.7371 20.7352 15.035 21.1228 15.2288L23.333 16.3337V13.109C23.333 12.6756 23.2124 12.2508 22.9846 11.8822C22.7568 11.5136 22.4308 11.2156 22.0433 11.0218L19.833 9.91699ZM20.9997 11.8047V13.1417C20.9997 13.3584 21.06 13.5708 21.174 13.7551C21.288 13.9394 21.451 14.0884 21.6448 14.1852L22.1663 14.446V13.109C22.1663 12.8923 22.106 12.6799 21.992 12.4955C21.8781 12.3112 21.715 12.1623 21.5212 12.0654L20.9997 11.8047Z" fill="#666666"/>
<path fill-rule="evenodd" clip-rule="evenodd" d="M19.833 13.417V16.6417C19.833 17.075 19.9536 17.4998 20.1814 17.8684C20.4092 18.2371 20.7352 18.535 21.1228 18.7288L23.333 19.8337V16.609C23.333 16.1756 23.2124 15.7508 22.9846 15.3822C22.7568 15.0136 22.4308 14.7156 22.0433 14.5218L19.833 13.417ZM20.9997 15.3047V16.6417C20.9997 16.8584 21.06 17.0708 21.174 17.2551C21.288 17.4394 21.451 17.5884 21.6448 17.6852L22.1663 17.946V16.609C22.1663 16.3923 22.106 16.1799 21.992 15.9955C21.8781 15.8112 21.715 15.6623 21.5212 15.5654L20.9997 15.3047ZM25.6663 6.41699V9.64166C25.6664 10.075 25.5457 10.4998 25.3179 10.8684C25.0901 11.2371 24.7642 11.535 24.3766 11.7288L22.1663 12.8337V9.60899C22.1663 9.17564 22.2869 8.75085 22.5147 8.3822C22.7425 8.01356 23.0685 7.71564 23.4561 7.52183L25.6663 6.41699ZM24.4997 8.30466V9.64166C24.4997 9.85836 24.4393 10.0708 24.3253 10.2551C24.2114 10.4394 24.0484 10.5884 23.8545 10.6852L23.333 10.946V9.60899C23.333 9.39229 23.3934 9.17987 23.5073 8.99554C23.6213 8.81122 23.7843 8.66228 23.9782 8.56541L24.4997 8.30466Z" fill="#666666"/>
<path fill-rule="evenodd" clip-rule="evenodd" d="M25.666 9.91699V13.1417C25.6661 13.575 25.5454 13.9998 25.3176 14.3684C25.0898 14.7371 24.7639 15.035 24.3763 15.2288L22.166 16.3337V13.109C22.166 12.6756 22.2866 12.2508 22.5144 11.8822C22.7422 11.5136 23.0682 11.2156 23.4558 11.0218L25.666 9.91699ZM24.4993 11.8047V13.1417C24.4993 13.3584 24.439 13.5708 24.325 13.7551C24.2111 13.9394 24.048 14.0884 23.8542 14.1852L23.3327 14.446V13.109C23.3327 12.8923 23.3931 12.6799 23.507 12.4955C23.621 12.3112 23.784 12.1623 23.9778 12.0654L24.4993 11.8047Z" fill="#666666"/>
<path fill-rule="evenodd" clip-rule="evenodd" d="M25.6663 13.417V16.6417C25.6664 17.075 25.5457 17.4998 25.3179 17.8684C25.0901 18.2371 24.7642 18.535 24.3766 18.7288L22.1663 19.8337V16.609C22.1663 16.1756 22.2869 15.7508 22.5147 15.3822C22.7425 15.0136 23.0685 14.7156 23.4561 14.5218L25.6663 13.417ZM24.4997 15.3047V16.6417C24.4997 16.8584 24.4393 17.0708 24.3253 17.2551C24.2114 17.4394 24.0484 17.5884 23.8545 17.6852L23.333 17.946V16.609C23.333 16.3923 23.3934 16.1799 23.5073 15.9955C23.6213 15.8112 23.7843 15.6623 23.9782 15.5654L24.4997 15.3047ZM14.1589 11.8892C13.6847 11.7652 13.1985 11.6927 12.7088 11.6728C12.1278 11.7271 11.5993 12.1611 11.1769 12.8751C10.7307 13.6305 10.4997 14.5498 10.4997 15.167C10.4997 15.3217 10.4382 15.4701 10.3288 15.5795C10.2194 15.6889 10.0711 15.7503 9.91634 15.7503C9.76163 15.7503 9.61326 15.6889 9.50386 15.5795C9.39447 15.4701 9.33301 15.3217 9.33301 15.167C9.33301 14.327 9.62701 13.2041 10.173 12.2818C10.2973 12.0712 10.4396 11.863 10.6012 11.667H9.33301C8.70301 11.667 8.12901 12.1103 7.67634 12.8757C7.23126 13.6299 6.99967 14.5487 6.99967 15.167C6.99967 15.3217 6.93822 15.4701 6.82882 15.5795C6.71942 15.6889 6.57105 15.7503 6.41634 15.7503C6.26163 15.7503 6.11326 15.6889 6.00386 15.5795C5.89447 15.4701 5.83301 15.3217 5.83301 15.167C5.83301 14.327 6.12701 13.2041 6.67301 12.2818C6.71112 12.2165 6.75098 12.1519 6.79259 12.0882C4.18918 13.0495 2.33301 15.5543 2.33301 18.492C2.33301 19.4667 2.72019 20.4014 3.40939 21.0906C4.09859 21.7798 5.03334 22.167 6.00801 22.167H15.5747C16.5493 22.167 17.4841 21.7798 18.1733 21.0906C18.8625 20.4014 19.2497 19.4667 19.2497 18.492C19.2497 15.776 17.663 13.431 15.3664 12.332C14.9989 12.6318 14.6781 13.0938 14.4348 13.6369C14.1432 14.2862 13.9997 14.9722 13.9997 15.4587C13.9997 15.6134 13.9382 15.7617 13.8288 15.8711C13.7194 15.9805 13.5711 16.042 13.4163 16.042C13.2616 16.042 13.1133 15.9805 13.0039 15.8711C12.8945 15.7617 12.833 15.6134 12.833 15.4587C12.833 14.782 13.0226 13.9344 13.3697 13.1597C13.568 12.7176 13.8293 12.2725 14.1589 11.8892Z" fill="#666666"/>
<path fill-rule="evenodd" clip-rule="evenodd" d="M14.9534 12.7602C14.7386 13.039 14.5597 13.3438 14.4208 13.6673C14.1397 14.3078 13.9997 14.9798 13.9997 15.4587C13.9997 15.6134 13.9382 15.7618 13.8288 15.8712C13.7194 15.9806 13.5711 16.042 13.4163 16.042C13.2616 16.042 13.1133 15.9806 13.0039 15.8712C12.8945 15.7618 12.833 15.6134 12.833 15.4587C12.833 14.782 13.0226 13.9345 13.3697 13.1598C13.4039 13.084 13.4401 13.0077 13.4782 12.9311C13.663 12.5581 13.8915 12.2083 14.1589 11.8893C13.6847 11.7653 13.1985 11.6927 12.7088 11.6729C12.2911 11.712 11.9008 11.947 11.5578 12.3408L11.5007 12.4085C11.382 12.5545 11.2746 12.7093 11.1793 12.8716L11.1769 12.8751C10.7307 13.6305 10.4997 14.5499 10.4997 15.167C10.4997 15.3217 10.4382 15.4701 10.3288 15.5795C10.2194 15.6889 10.0711 15.7504 9.91634 15.7504C9.76163 15.7504 9.61326 15.6889 9.50386 15.5795C9.39447 15.4701 9.33301 15.3217 9.33301 15.167C9.33301 14.4886 9.52493 13.6259 9.88543 12.8337C9.97327 12.6403 10.0716 12.4518 10.18 12.269C10.3044 12.0576 10.4452 11.8563 10.6012 11.667H9.33301C9.28036 11.6666 9.22774 11.6697 9.17551 11.6764C8.66101 11.7376 8.18851 12.097 7.79651 12.6844C7.75511 12.7472 7.71524 12.811 7.67693 12.8757C7.23068 13.63 6.99968 14.5487 6.99968 15.167C6.99968 15.3217 6.93822 15.4701 6.82882 15.5795C6.71943 15.6889 6.57105 15.7504 6.41634 15.7504C6.26163 15.7504 6.11326 15.6889 6.00387 15.5795C5.89447 15.4701 5.83301 15.3217 5.83301 15.167C5.83301 14.75 5.90534 14.2629 6.04534 13.7659C6.19 13.2464 6.40075 12.7477 6.67243 12.2819L6.68526 12.2603C6.71637 12.2078 6.74846 12.1561 6.78151 12.1051L6.79318 12.0876C6.70218 12.1211 6.61254 12.1565 6.52426 12.1938C5.99518 12.4155 5.50051 12.7013 5.04901 13.042C4.20462 13.6775 3.51965 14.5008 3.04827 15.4467C2.57689 16.3926 2.33201 17.4352 2.33301 18.492C2.33301 19.4667 2.7202 20.4015 3.40939 21.0907C4.09859 21.7798 5.03334 22.167 6.00801 22.167H15.5747C16.5493 22.167 17.4841 21.7798 18.1733 21.0907C18.8625 20.4015 19.2497 19.4667 19.2497 18.492C19.2497 15.776 17.663 13.431 15.3664 12.332C15.2131 12.459 15.075 12.6026 14.9534 12.7602ZM15.6383 13.8341C15.5874 13.9253 15.5407 14.0187 15.4983 14.1141C15.2643 14.638 15.1658 15.1612 15.1658 15.4587C15.1658 15.9228 14.9814 16.3679 14.6532 16.6961C14.325 17.0243 13.8799 17.2087 13.4158 17.2087C12.9516 17.2087 12.5065 17.0243 12.1783 16.6961C11.8501 16.3679 11.6658 15.9228 11.6658 15.4587C11.6658 15.2067 11.6856 14.9425 11.7241 14.6718C11.685 14.862 11.6658 15.0335 11.6658 15.167C11.6658 15.6312 11.4814 16.0763 11.1532 16.4045C10.825 16.7327 10.3799 16.917 9.91576 16.917C9.45163 16.917 9.00651 16.7327 8.67832 16.4045C8.35013 16.0763 8.16576 15.6312 8.16576 15.167C8.16576 15.6312 7.98139 16.0763 7.6532 16.4045C7.32501 16.7327 6.87989 16.917 6.41576 16.917C5.95163 16.917 5.50651 16.7327 5.17832 16.4045C4.85014 16.0763 4.66576 15.6312 4.66576 15.167L4.66693 15.0486C3.90806 16.0359 3.4976 17.2468 3.49968 18.492C3.49968 18.8214 3.56456 19.1476 3.69061 19.4519C3.81667 19.7563 4.00143 20.0328 4.23435 20.2657C4.46727 20.4986 4.74379 20.6834 5.04811 20.8094C5.35244 20.9355 5.67861 21.0004 6.00801 21.0004H15.5747C15.9041 21.0004 16.2303 20.9355 16.5346 20.8094C16.8389 20.6834 17.1154 20.4986 17.3483 20.2657C17.5813 20.0328 17.766 19.7563 17.8921 19.4519C18.0181 19.1476 18.083 18.8214 18.083 18.492C18.0837 17.5757 17.8616 16.6729 17.4358 15.8614C17.01 15.05 16.3927 14.3542 15.6383 13.8341Z" fill="#666666"/>
</svg>
