<svg width="24" height="25" viewBox="0 0 24 25" fill="none" xmlns="http://www.w3.org/2000/svg">
<path d="M12 2.91699C10.0716 2.91699 8.18657 3.48882 6.58319 4.56016C4.97982 5.63151 3.73013 7.15425 2.99218 8.93583C2.25422 10.7174 2.06114 12.6778 2.43735 14.5691C2.81355 16.4604 3.74215 18.1977 5.10571 19.5613C6.46927 20.9248 8.20656 21.8534 10.0979 22.2296C11.9892 22.6059 13.9496 22.4128 15.7312 21.6748C17.5127 20.9369 19.0355 19.6872 20.1068 18.0838C21.1782 16.4804 21.75 14.5954 21.75 12.667C21.7473 10.082 20.7192 7.6036 18.8913 5.77572C17.0634 3.94783 14.585 2.91972 12 2.91699ZM16.2806 10.9476L11.0306 16.1976C10.961 16.2674 10.8783 16.3227 10.7872 16.3604C10.6962 16.3982 10.5986 16.4176 10.5 16.4176C10.4014 16.4176 10.3038 16.3982 10.2128 16.3604C10.1218 16.3227 10.039 16.2674 9.96938 16.1976L7.71938 13.9476C7.57865 13.8069 7.49959 13.616 7.49959 13.417C7.49959 13.218 7.57865 13.0271 7.71938 12.8864C7.86011 12.7456 8.05098 12.6666 8.25 12.6666C8.44903 12.6666 8.6399 12.7456 8.78063 12.8864L10.5 14.6067L15.2194 9.88637C15.2891 9.81668 15.3718 9.76141 15.4628 9.7237C15.5539 9.68598 15.6515 9.66658 15.75 9.66658C15.8485 9.66658 15.9461 9.68598 16.0372 9.7237C16.1282 9.76141 16.2109 9.81668 16.2806 9.88637C16.3503 9.95605 16.4056 10.0388 16.4433 10.1298C16.481 10.2209 16.5004 10.3184 16.5004 10.417C16.5004 10.5155 16.481 10.6131 16.4433 10.7042C16.4056 10.7952 16.3503 10.8779 16.2806 10.9476Z" fill="#8B8D91"/>
</svg>
