<svg width="60" height="60" viewBox="0 0 60 60" fill="none" xmlns="http://www.w3.org/2000/svg">
<path d="M8.24174 20.3633L7.75296 23.2998C7.16158 26.8462 5.45811 29.1362 2.54091 30.3025L1.79371 30.6015L1.9505 31.3913C2.54382 34.3589 1.93211 37.3835 0.133789 40.382L1.79371 41.3779C3.6956 38.2091 4.42925 34.9851 3.98015 31.7824C6.36405 30.6325 8.04236 28.7587 8.99185 26.1909L12.6156 33.4394L13.5409 38.9921L12.5895 53.2742L10.6934 58.9634L12.5285 59.5761L14.4652 53.7688L15.4892 38.8963L14.502 32.9787L8.24174 20.3633Z" fill="#8B8D91"/>
<path d="M7.3501 1.97338L6.19348 0.420898C2.60844 3.09613 0.583633 7.43611 0 13.6886L1.92802 13.8687C2.45649 8.19203 4.23061 4.30114 7.3501 1.97338Z" fill="#8B8D91"/>
<path d="M58.0495 31.3913L58.2073 30.6016L57.4601 30.3025C54.5438 29.1362 52.8394 26.8462 52.248 23.2998L51.7583 20.3643L45.588 32.7048L44.5127 38.8963L45.4883 53.5268L47.4725 59.5761L49.3066 58.9634L47.4105 53.2742L46.4591 38.9921L47.3844 33.4394L51.0082 26.1909C51.9596 28.7587 53.636 30.6325 56.0198 31.7824C55.5708 34.9861 56.3044 38.2101 58.2063 41.378L59.8662 40.382C58.0679 37.3845 57.4572 34.3598 58.0495 31.3913Z" fill="#8B8D91"/>
<path d="M58.0734 13.8686L60.0005 13.6886C59.4188 7.43513 57.393 3.09515 53.808 0.419922L52.6514 1.97241C55.7718 4.30016 57.5459 8.19202 58.0734 13.8686Z" fill="#8B8D91"/>
<path d="M49.3262 18.8666L47.4543 18.3701C46.6907 21.2505 45.0946 25.6941 43.9409 26.5516C42.2113 27.8389 39.1857 28.5881 36.8957 28.3045C35.7062 28.1554 33.7094 27.3375 31.4175 26.0619C31.1407 25.908 30.9684 25.6118 30.9684 25.2905V21.5225V21.5215H29.0326V21.5225V25.2905V25.2914C29.0326 25.6137 28.8603 25.909 28.5835 26.0628C26.2926 27.3385 24.2948 28.1564 23.1044 28.3054C20.8201 28.5929 17.7907 27.8389 16.0601 26.5526C14.9064 25.6951 13.3103 21.2525 12.5467 18.3711L10.6748 18.8657C11.0116 20.1346 12.7935 26.5371 14.9045 28.106C16.7396 29.4698 19.5271 30.3041 22.0513 30.3041C22.4927 30.3041 22.9272 30.2789 23.3454 30.2267C25.2018 29.9934 27.7308 28.7536 29.5243 27.7547C29.7014 27.6569 29.8534 27.5292 30.0015 27.3985C30.1496 27.5282 30.3006 27.656 30.4767 27.7537C32.2712 28.7536 34.7993 29.9934 36.6547 30.2257C37.0748 30.2789 37.5084 30.3041 37.9497 30.3041C40.4749 30.3041 43.2624 29.4698 45.0966 28.107C47.2085 26.539 48.9904 20.1355 49.3262 18.8666Z" fill="#8B8D91"/>
<path d="M8.46837 16.3529C9.6608 14.9882 10.2667 13.2906 10.5019 12.4988C14.6696 10.143 16.3256 5.59105 16.3953 5.3936L14.5709 4.74512C14.5554 4.78867 13.0077 9.04542 9.233 10.9831L8.83036 11.1902L8.73067 11.6316C8.72583 11.6519 8.26802 13.64 7.01074 15.0792L8.46837 16.3529Z" fill="#8B8D91"/>
<path d="M27.1415 6.03749C23.7394 5.88263 20.831 4.24594 20.8019 4.22852L19.8398 5.90779C19.9744 5.98522 23.1694 7.7942 27.0525 7.97132L27.1415 6.03749Z" fill="#8B8D91"/>
<path d="M49.5008 12.4978C49.736 13.2886 50.3429 14.9872 51.5324 16.351L52.991 15.0782C51.7444 13.6506 51.274 11.649 51.2692 11.6287L51.1685 11.1883L50.7688 10.9821C47.0153 9.05604 45.4464 4.78574 45.4299 4.74219L43.6064 5.3926C43.6771 5.59102 45.3331 10.142 49.5008 12.4978Z" fill="#8B8D91"/>
<path d="M40.1611 5.9078L39.1971 4.22949C39.169 4.24498 36.2808 5.88167 32.8594 6.0375L32.9484 7.97133C36.8325 7.7942 40.0275 5.98523 40.1611 5.9078Z" fill="#8B8D91"/>
<path d="M30.9651 17.6514H29.0293V19.5871H30.9651V17.6514Z" fill="#8B8D91"/>
<path d="M42.6332 55.4698L42.0274 54.6055C41.9306 54.6732 39.658 56.2896 38.7617 58.9619L40.5968 59.5784C41.284 57.5304 43.1094 56.2131 43.1385 56.1918L43.1404 56.1899L42.6332 55.4698Z" fill="#8B8D91"/>
<path d="M17.9734 54.6055L16.8604 56.1899C16.8797 56.2034 18.7158 57.5236 19.4039 59.5775L21.2391 58.9629C20.3438 56.2896 18.0702 54.6732 17.9734 54.6055Z" fill="#8B8D91"/>
</svg>
