<svg width="602" height="189" viewBox="0 0 602 189" fill="none" xmlns="http://www.w3.org/2000/svg">
<path d="M2.62125 10.16H6.35325V11H0.84525V10.76L3.66525 7.76C4.62525 6.752 5.05725 6.152 5.05725 5.396C5.05725 4.52 4.45725 3.812 3.53325 3.812C3.05325 3.812 2.66925 3.968 2.38125 4.292C2.09325 4.616 1.94925 5 1.94925 5.444C1.94925 5.672 1.97325 5.888 2.02125 6.104H1.06125C1.00125 5.888 0.97725 5.66 0.97725 5.408C0.97725 4.148 1.98525 2.948 3.53325 2.948C4.98525 2.948 6.02925 4.004 6.02925 5.348C6.02925 5.72 5.95725 6.068 5.80125 6.404C5.50125 7.076 5.09325 7.556 4.37325 8.312L2.62125 10.16ZM12.9961 5.624C12.9961 5.936 12.9481 6.224 12.8521 6.5C12.7681 6.764 12.6601 6.992 12.5281 7.196C12.4081 7.4 12.2041 7.712 11.9041 8.144L9.93609 11H8.83209L10.8481 8.096C10.6561 8.168 10.4281 8.204 10.1761 8.204C8.79609 8.204 7.59609 7.064 7.59609 5.612C7.59609 4.1 8.82009 2.948 10.3081 2.948C11.7841 2.948 12.9961 4.1 12.9961 5.624ZM12.0721 5.6C12.0721 4.58 11.3161 3.8 10.3081 3.8C9.30009 3.8 8.52009 4.58 8.52009 5.6C8.52009 6.608 9.30009 7.412 10.3081 7.412C11.3161 7.412 12.0721 6.608 12.0721 5.6ZM17.9888 11V5.156H18.9128V11H17.9888ZM17.7607 2.924C17.7607 2.552 18.0728 2.252 18.4568 2.252C18.8288 2.252 19.1408 2.552 19.1408 2.924C19.1408 3.308 18.8408 3.596 18.4568 3.596C18.0728 3.596 17.7607 3.308 17.7607 2.924ZM25.7779 7.328V11H24.8539V7.436C24.8539 6.512 24.3019 5.876 23.4019 5.876C22.5019 5.876 21.8659 6.524 21.8659 7.436V11H20.9419V5.156H21.8059V5.78C22.2379 5.3 22.8739 5.024 23.6059 5.024C24.9619 5.024 25.7779 5.948 25.7779 7.328Z" fill="#333333"/>
<path d="M2.45719 44.41H6.18919V45.25H0.681188V45.01L3.50119 42.01C4.46119 41.002 4.89319 40.402 4.89319 39.646C4.89319 38.77 4.29319 38.062 3.36919 38.062C2.88919 38.062 2.50519 38.218 2.21719 38.542C1.92919 38.866 1.78519 39.25 1.78519 39.694C1.78519 39.922 1.80919 40.138 1.85719 40.354H0.897188C0.837188 40.138 0.813188 39.91 0.813188 39.658C0.813188 38.398 1.82119 37.198 3.36919 37.198C4.82119 37.198 5.86519 38.254 5.86519 39.598C5.86519 39.97 5.79319 40.318 5.63719 40.654C5.33719 41.326 4.92919 41.806 4.20919 42.562L2.45719 44.41ZM13.072 43.234C13.072 44.506 11.968 45.382 10.3 45.382C8.63203 45.382 7.50403 44.506 7.50403 43.222C7.50403 42.25 8.12803 41.554 9.38803 41.11C8.42803 40.666 7.87603 40.066 7.87603 39.166C7.87603 38.554 8.10403 38.074 8.56003 37.726C9.02803 37.378 9.60403 37.198 10.3 37.198C10.984 37.198 11.548 37.378 12.004 37.726C12.472 38.074 12.7 38.554 12.7 39.166C12.7 40.018 12.196 40.654 11.188 41.098C12.448 41.566 13.072 42.286 13.072 43.234ZM10.288 40.666C11.296 40.27 11.776 39.886 11.776 39.202C11.776 38.446 11.164 38.002 10.3 38.002C9.42403 38.002 8.80003 38.446 8.80003 39.202C8.80003 39.874 9.28003 40.246 10.288 40.666ZM12.124 43.198C12.124 42.37 11.5 41.974 10.3 41.542C9.08803 41.974 8.45203 42.382 8.45203 43.198C8.45203 44.026 9.13603 44.578 10.3 44.578C11.464 44.578 12.124 44.026 12.124 43.198ZM18.1528 45.25V39.406H19.0768V45.25H18.1528ZM17.9248 37.174C17.9248 36.802 18.2368 36.502 18.6208 36.502C18.9928 36.502 19.3048 36.802 19.3048 37.174C19.3048 37.558 19.0048 37.846 18.6208 37.846C18.2368 37.846 17.9248 37.558 17.9248 37.174ZM25.9419 41.578V45.25H25.0179V41.686C25.0179 40.762 24.4659 40.126 23.5659 40.126C22.6659 40.126 22.0299 40.774 22.0299 41.686V45.25H21.1059V39.406H21.9699V40.03C22.4019 39.55 23.0379 39.274 23.7699 39.274C25.1259 39.274 25.9419 40.198 25.9419 41.578Z" fill="#333333"/>
<path d="M2.42008 78.66H6.15208V79.5H0.644078V79.26L3.46408 76.26C4.42408 75.252 4.85608 74.652 4.85608 73.896C4.85608 73.02 4.25608 72.312 3.33208 72.312C2.85208 72.312 2.46808 72.468 2.18008 72.792C1.89208 73.116 1.74808 73.5 1.74808 73.944C1.74808 74.172 1.77208 74.388 1.82008 74.604H0.860078C0.800078 74.388 0.776078 74.16 0.776078 73.908C0.776078 72.648 1.78408 71.448 3.33208 71.448C4.78408 71.448 5.82808 72.504 5.82808 73.848C5.82808 74.22 5.75608 74.568 5.60008 74.904C5.30008 75.576 4.89208 76.056 4.17208 76.812L2.42008 78.66ZM7.21492 71.58H12.5069V71.856L8.49892 79.5H7.47892L11.2469 72.42H7.21492V71.58ZM17.1899 79.5V73.656H18.1139V79.5H17.1899ZM16.9619 71.424C16.9619 71.052 17.2739 70.752 17.6579 70.752C18.0299 70.752 18.3419 71.052 18.3419 71.424C18.3419 71.808 18.0419 72.096 17.6579 72.096C17.2739 72.096 16.9619 71.808 16.9619 71.424ZM24.979 75.828V79.5H24.055V75.936C24.055 75.012 23.503 74.376 22.603 74.376C21.703 74.376 21.067 75.024 21.067 75.936V79.5H20.143V73.656H21.007V74.28C21.439 73.8 22.075 73.524 22.807 73.524C24.163 73.524 24.979 74.448 24.979 75.828Z" fill="#333333"/>
<path d="M2.62125 112.91H6.35325V113.75H0.84525V113.51L3.66525 110.51C4.62525 109.502 5.05725 108.902 5.05725 108.146C5.05725 107.27 4.45725 106.562 3.53325 106.562C3.05325 106.562 2.66925 106.718 2.38125 107.042C2.09325 107.366 1.94925 107.75 1.94925 108.194C1.94925 108.422 1.97325 108.638 2.02125 108.854H1.06125C1.00125 108.638 0.97725 108.41 0.97725 108.158C0.97725 106.898 1.98525 105.698 3.53325 105.698C4.98525 105.698 6.02925 106.754 6.02925 108.098C6.02925 108.47 5.95725 108.818 5.80125 109.154C5.50125 109.826 5.09325 110.306 4.37325 111.062L2.62125 112.91ZM12.9961 111.218C12.9961 112.73 11.7961 113.882 10.2961 113.882C8.80809 113.882 7.59609 112.73 7.59609 111.206C7.59609 110.798 7.66809 110.438 7.81209 110.114C7.96809 109.79 8.19609 109.394 8.52009 108.926C8.60409 108.83 8.64009 108.746 8.68809 108.686L10.6561 105.83H11.7721L9.75609 108.734C9.94809 108.662 10.1641 108.626 10.4161 108.626C11.8201 108.626 12.9961 109.766 12.9961 111.218ZM12.0721 111.218C12.0721 110.222 11.2921 109.418 10.2961 109.418C9.30009 109.418 8.52009 110.222 8.52009 111.218C8.52009 112.226 9.30009 113.03 10.2961 113.03C11.2921 113.03 12.0721 112.226 12.0721 111.218ZM17.9888 113.75V107.906H18.9128V113.75H17.9888ZM17.7607 105.674C17.7607 105.302 18.0728 105.002 18.4568 105.002C18.8288 105.002 19.1408 105.302 19.1408 105.674C19.1408 106.058 18.8408 106.346 18.4568 106.346C18.0728 106.346 17.7607 106.058 17.7607 105.674ZM25.7779 110.078V113.75H24.8539V110.186C24.8539 109.262 24.3019 108.626 23.4019 108.626C22.5019 108.626 21.8659 109.274 21.8659 110.186V113.75H20.9419V107.906H21.8059V108.53C22.2379 108.05 22.8739 107.774 23.6059 107.774C24.9619 107.774 25.7779 108.698 25.7779 110.078Z" fill="#333333"/>
<path d="M2.59781 147.16H6.32981V148H0.821813V147.76L3.64181 144.76C4.60181 143.752 5.03381 143.152 5.03381 142.396C5.03381 141.52 4.43381 140.812 3.50981 140.812C3.02981 140.812 2.64581 140.968 2.35781 141.292C2.06981 141.616 1.92581 142 1.92581 142.444C1.92581 142.672 1.94981 142.888 1.99781 143.104H1.03781C0.977813 142.888 0.953813 142.66 0.953813 142.408C0.953813 141.148 1.96181 139.948 3.50981 139.948C4.96181 139.948 6.00581 141.004 6.00581 142.348C6.00581 142.72 5.93381 143.068 5.77781 143.404C5.47781 144.076 5.06981 144.556 4.34981 145.312L2.59781 147.16ZM12.9847 145.492C12.9847 147.088 11.6647 148.132 10.1767 148.132C8.91666 148.132 7.98066 147.46 7.44066 146.5L8.08866 146.02C8.58066 146.776 9.21666 147.268 10.1647 147.268C11.2327 147.268 12.0127 146.56 12.0127 145.504C12.0127 144.46 11.2927 143.86 9.99666 143.86H8.20866V140.08H12.5407V140.92H9.14466V143.14C9.51666 143.08 9.88866 143.044 10.2727 143.044C11.7367 143.044 12.9847 143.86 12.9847 145.492ZM18.0122 148V142.156H18.9362V148H18.0122ZM17.7842 139.924C17.7842 139.552 18.0962 139.252 18.4802 139.252C18.8522 139.252 19.1642 139.552 19.1642 139.924C19.1642 140.308 18.8642 140.596 18.4802 140.596C18.0962 140.596 17.7842 140.308 17.7842 139.924ZM25.8013 144.328V148H24.8773V144.436C24.8773 143.512 24.3253 142.876 23.4253 142.876C22.5253 142.876 21.8893 143.524 21.8893 144.436V148H20.9653V142.156H21.8293V142.78C22.2613 142.3 22.8973 142.024 23.6293 142.024C24.9853 142.024 25.8013 142.948 25.8013 144.328Z" fill="#333333"/>
<rect x="81.5833" y="91" width="5" height="62" rx="2.5" fill="#262625"/>
<rect x="175.75" y="46" width="5" height="107" rx="2.5" fill="#262625"/>
<rect x="269.917" y="57" width="5" height="96" rx="2.5" fill="#262625"/>
<rect x="364.083" width="5" height="153" rx="2.5" fill="#262625"/>
<rect x="458.25" y="22" width="5" height="131" rx="2.5" fill="#262625"/>
<rect x="552.417" y="1" width="5" height="152" rx="2.5" fill="#F5F5F5"/>
<path d="M74.1791 185V184.062C74.5571 184.118 74.8931 184.146 75.1871 184.146C76.1811 184.146 76.7131 183.81 76.7131 182.76V175.76H77.8051V182.858C77.8051 184.412 76.8951 185.154 75.3971 185.154C75.0331 185.154 74.6271 185.098 74.1791 185ZM85.2974 180.8V185H84.2894V184.118C83.7854 184.79 82.9874 185.154 81.9934 185.154C80.5934 185.154 79.6134 184.412 79.6134 183.236C79.6134 182.074 80.5934 181.332 82.0634 181.332H84.2194V180.744C84.2194 179.624 83.5894 179.022 82.5674 179.022C81.7414 179.022 81.1394 179.386 80.5794 180.114L79.8654 179.526C80.4814 178.518 81.5034 178.028 82.6374 178.028C84.2474 178.028 85.2974 179.008 85.2974 180.8ZM84.2194 182.382V182.214H82.1894C81.2374 182.214 80.7194 182.55 80.7194 183.18C80.7194 183.866 81.3354 184.258 82.1334 184.258C83.2534 184.258 84.2194 183.432 84.2194 182.382ZM93.2259 180.716V185H92.1479V180.842C92.1479 179.764 91.5039 179.022 90.4539 179.022C89.4039 179.022 88.6619 179.778 88.6619 180.842V185H87.5839V178.182H88.5919V178.91C89.0959 178.35 89.8379 178.028 90.6919 178.028C92.2739 178.028 93.2259 179.106 93.2259 180.716Z" fill="#6A6A6A"/>
<path d="M167.643 185V175.76H173.425V176.74H168.735V179.918H172.627V180.912H168.735V185H167.643ZM180.497 181.92H175.107C175.233 183.264 176.269 184.16 177.613 184.16C178.383 184.16 179.083 183.852 179.699 183.236L180.329 183.964C179.615 184.706 178.677 185.154 177.599 185.154C175.569 185.154 173.987 183.6 173.987 181.598C173.987 179.624 175.527 178.028 177.473 178.028C179.237 178.028 180.581 179.302 180.581 181.108C180.581 181.374 180.553 181.64 180.497 181.92ZM175.149 180.968H179.475C179.461 179.75 178.579 179.008 177.445 179.008C176.311 179.008 175.387 179.792 175.149 180.968ZM189.433 181.598C189.433 183.6 187.991 185.154 186.073 185.154C185.009 185.154 184.001 184.692 183.483 183.922V185H182.475V174.5H183.553V179.176C184.099 178.462 185.037 178.028 186.059 178.028C187.977 178.028 189.433 179.596 189.433 181.598ZM188.327 181.584C188.327 180.114 187.291 179.022 185.905 179.022C184.645 179.022 183.539 179.862 183.539 181.598C183.539 183.32 184.687 184.16 185.905 184.16C187.291 184.16 188.327 183.054 188.327 181.584Z" fill="#6A6A6A"/>
<path d="M270.087 175.606H270.465V185H269.373V178.378L266.419 182.382H266.027L263.059 178.35V185H261.967V175.606H262.359L266.209 180.94L270.087 175.606ZM277.972 180.8V185H276.964V184.118C276.46 184.79 275.662 185.154 274.668 185.154C273.268 185.154 272.288 184.412 272.288 183.236C272.288 182.074 273.268 181.332 274.738 181.332H276.894V180.744C276.894 179.624 276.264 179.022 275.242 179.022C274.416 179.022 273.814 179.386 273.254 180.114L272.54 179.526C273.156 178.518 274.178 178.028 275.312 178.028C276.922 178.028 277.972 179.008 277.972 180.8ZM276.894 182.382V182.214H274.864C273.912 182.214 273.394 182.55 273.394 183.18C273.394 183.866 274.01 184.258 274.808 184.258C275.928 184.258 276.894 183.432 276.894 182.382ZM283.884 178.182V179.134H283.478C282.33 179.134 281.336 179.876 281.336 181.136V185H280.258V178.182H281.266V179.148C281.756 178.49 282.554 178.126 283.38 178.126C283.534 178.126 283.702 178.14 283.884 178.182Z" fill="#6A6A6A"/>
<path d="M362.669 185L361.885 183.124H357.349L356.565 185H355.417L359.421 175.606H359.827L363.831 185H362.669ZM361.465 182.144L359.617 177.594L357.769 182.144H361.465ZM372.414 181.584C372.414 183.586 370.958 185.154 369.04 185.154C368.032 185.154 367.094 184.734 366.534 184.02V187.52H365.456V178.182H366.464V179.274C366.982 178.49 367.976 178.028 369.04 178.028C370.986 178.028 372.414 179.582 372.414 181.584ZM371.308 181.598C371.308 180.128 370.272 179.022 368.886 179.022C367.668 179.022 366.52 179.862 366.52 181.584C366.52 183.32 367.626 184.16 368.886 184.16C370.272 184.16 371.308 183.068 371.308 181.598ZM377.928 178.182V179.134H377.522C376.374 179.134 375.38 179.876 375.38 181.136V185H374.302V178.182H375.31V179.148C375.8 178.49 376.598 178.126 377.424 178.126C377.578 178.126 377.746 178.14 377.928 178.182Z" fill="#6A6A6A"/>
<path d="M457.183 175.606H457.561V185H456.469V178.378L453.515 182.382H453.123L450.155 178.35V185H449.063V175.606H449.455L453.305 180.94L457.183 175.606ZM465.068 180.8V185H464.06V184.118C463.556 184.79 462.758 185.154 461.764 185.154C460.364 185.154 459.384 184.412 459.384 183.236C459.384 182.074 460.364 181.332 461.834 181.332H463.99V180.744C463.99 179.624 463.36 179.022 462.338 179.022C461.512 179.022 460.91 179.386 460.35 180.114L459.636 179.526C460.252 178.518 461.274 178.028 462.408 178.028C464.018 178.028 465.068 179.008 465.068 180.8ZM463.99 182.382V182.214H461.96C461.008 182.214 460.49 182.55 460.49 183.18C460.49 183.866 461.106 184.258 461.904 184.258C463.024 184.258 463.99 183.432 463.99 182.382ZM472.198 178.182H473.346L469.986 185.952C469.468 187.142 468.726 187.674 467.676 187.674C467.326 187.674 466.976 187.632 466.626 187.534V186.624C466.976 186.666 467.256 186.694 467.452 186.694C468.166 186.694 468.642 186.428 468.992 185.602L469.356 184.79L466.528 178.182H467.69L469.944 183.614L472.198 178.182Z" fill="#6A6A6A"/>
<path d="M544.794 185V184.062C545.172 184.118 545.508 184.146 545.802 184.146C546.796 184.146 547.328 183.81 547.328 182.76V175.76H548.42V182.858C548.42 184.412 547.51 185.154 546.012 185.154C545.648 185.154 545.242 185.098 544.794 185ZM550.718 182.284V178.182H551.782V182.354C551.782 183.46 552.538 184.16 553.546 184.16C554.54 184.16 555.282 183.432 555.282 182.354V178.182H556.36V182.284C556.36 184.006 555.128 185.154 553.546 185.154C551.95 185.154 550.718 184.006 550.718 182.284ZM564.278 180.716V185H563.2V180.842C563.2 179.764 562.556 179.022 561.506 179.022C560.456 179.022 559.714 179.778 559.714 180.842V185H558.636V178.182H559.644V178.91C560.148 178.35 560.89 178.028 561.744 178.028C563.326 178.028 564.278 179.106 564.278 180.716Z" fill="#6A6A6A"/>
</svg>
