<svg width="20" height="21" viewBox="0 0 20 21" fill="none" xmlns="http://www.w3.org/2000/svg">
<path d="M10 0.583008C8.07164 0.583008 6.18657 1.15484 4.58319 2.22618C2.97982 3.29752 1.73013 4.82026 0.992179 6.60184C0.254225 8.38342 0.061142 10.3438 0.437348 12.2351C0.813554 14.1265 1.74215 15.8637 3.10571 17.2273C4.46928 18.5909 6.20656 19.5195 8.09787 19.8957C9.98919 20.2719 11.9496 20.0788 13.7312 19.3408C15.5127 18.6029 17.0355 17.3532 18.1068 15.7498C19.1782 14.1464 19.75 12.2614 19.75 10.333C19.7473 7.74798 18.7192 5.26962 16.8913 3.44173C15.0634 1.61384 12.585 0.585738 10 0.583008ZM15.25 11.083H10C9.80109 11.083 9.61033 11.004 9.46967 10.8633C9.32902 10.7227 9.25 10.5319 9.25 10.333V5.08301C9.25 4.8841 9.32902 4.69333 9.46967 4.55268C9.61033 4.41203 9.80109 4.33301 10 4.33301C10.1989 4.33301 10.3897 4.41203 10.5303 4.55268C10.671 4.69333 10.75 4.8841 10.75 5.08301V9.58301H15.25C15.4489 9.58301 15.6397 9.66203 15.7803 9.80268C15.921 9.94333 16 10.1341 16 10.333C16 10.5319 15.921 10.7227 15.7803 10.8633C15.6397 11.004 15.4489 11.083 15.25 11.083Z" fill="#8B8D91"/>
</svg>
