<svg width="21" height="20" viewBox="0 0 21 20" fill="none" xmlns="http://www.w3.org/2000/svg">
<path d="M10.5 0.25C8.57164 0.25 6.68657 0.821828 5.08319 1.89317C3.47982 2.96451 2.23013 4.48726 1.49218 6.26884C0.754225 8.05042 0.561142 10.0108 0.937348 11.9021C1.31355 13.7934 2.24215 15.5307 3.60571 16.8943C4.96928 18.2579 6.70656 19.1865 8.59787 19.5627C10.4892 19.9389 12.4496 19.7458 14.2312 19.0078C16.0127 18.2699 17.5355 17.0202 18.6068 15.4168C19.6782 13.8134 20.25 11.9284 20.25 10C20.2473 7.41498 19.2192 4.93661 17.3913 3.10872C15.5634 1.28084 13.085 0.25273 10.5 0.25ZM14.7806 8.28063L9.53063 13.5306C9.46097 13.6004 9.37826 13.6557 9.28721 13.6934C9.19616 13.7312 9.09857 13.7506 9 13.7506C8.90144 13.7506 8.80385 13.7312 8.7128 13.6934C8.62175 13.6557 8.53903 13.6004 8.46938 13.5306L6.21938 11.2806C6.07865 11.1399 5.99959 10.949 5.99959 10.75C5.99959 10.551 6.07865 10.3601 6.21938 10.2194C6.36011 10.0786 6.55098 9.99958 6.75 9.99958C6.94903 9.99958 7.1399 10.0786 7.28063 10.2194L9 11.9397L13.7194 7.21937C13.7891 7.14969 13.8718 7.09442 13.9628 7.0567C14.0539 7.01899 14.1515 6.99958 14.25 6.99958C14.3486 6.99958 14.4461 7.01899 14.5372 7.0567C14.6282 7.09442 14.7109 7.14969 14.7806 7.21937C14.8503 7.28906 14.9056 7.37178 14.9433 7.46283C14.981 7.55387 15.0004 7.65145 15.0004 7.75C15.0004 7.84855 14.981 7.94613 14.9433 8.03717C14.9056 8.12822 14.8503 8.21094 14.7806 8.28063Z" fill="#262625"/>
</svg>
