<svg width="20" height="13" viewBox="0 0 20 13" fill="none" xmlns="http://www.w3.org/2000/svg">
<path d="M1.52243 8.32368C2.37383 4.59561 5.933 1.94669 9.9366 1.94669C13.9389 1.94669 17.4981 4.59561 18.3508 8.32368C18.3845 8.47162 18.4814 8.60126 18.62 8.68409C18.7586 8.76692 18.9276 8.79615 19.0898 8.76536C19.2521 8.73457 19.3942 8.64627 19.4851 8.51989C19.5759 8.39351 19.608 8.2394 19.5742 8.09146C18.6042 3.85114 14.5469 0.80835 9.9366 0.80835C5.32628 0.80835 1.26901 3.85114 0.299004 8.09146C0.265232 8.2394 0.297292 8.39351 0.38813 8.51989C0.478968 8.64627 0.621144 8.73457 0.78338 8.76536C0.945617 8.79615 1.11462 8.76692 1.25322 8.68409C1.39182 8.60126 1.48866 8.47162 1.52243 8.32368ZM9.92412 4.22338C11.0829 4.22338 12.1943 4.64314 13.0137 5.39032C13.8331 6.1375 14.2935 7.1509 14.2935 8.20757C14.2935 9.26425 13.8331 10.2776 13.0137 11.0248C12.1943 11.772 11.0829 12.1918 9.92412 12.1918C8.76528 12.1918 7.65392 11.772 6.8345 11.0248C6.01508 10.2776 5.55474 9.26425 5.55474 8.20757C5.55474 7.1509 6.01508 6.1375 6.8345 5.39032C7.65392 4.64314 8.76528 4.22338 9.92412 4.22338Z" fill="#6A6A6A"/>
</svg>
