<svg width="46" height="60" viewBox="0 0 46 60" fill="none" xmlns="http://www.w3.org/2000/svg">
<path d="M45.0208 32.886C44.195 30.0169 42.7281 27.6297 41.3094 25.3209C40.8318 24.5438 40.3378 23.7398 39.8795 22.9341C38.1161 19.8345 37.1994 16.3177 36.9947 11.8668C36.796 7.54816 38.7224 3.37641 40.7139 0H36.6814C34.8301 3.47906 33.279 7.60137 33.4827 12.0286C33.7008 16.7672 34.711 20.7539 36.5636 24.198H9.4369C11.2895 20.7539 12.2997 16.7673 12.5179 12.0286C12.7216 7.60137 11.1703 3.47906 9.31925 0H5.28659C7.2782 3.37629 9.20464 7.54805 9.00589 11.8668C8.80105 16.3178 7.88441 19.8346 6.12097 22.9341C5.66253 23.74 5.16859 24.5437 4.69093 25.3213C3.27238 27.6298 1.80542 30.0169 0.979836 32.886C-0.236101 37.1106 -0.0332497 41.605 1.55113 45.5413C2.41292 47.6825 3.64761 49.5599 4.84175 51.3754C5.36429 52.1699 5.85777 52.9202 6.32499 53.6953C7.5632 55.7494 8.1053 57.7179 8.57171 59.9999H12.1568C11.6057 57.1709 10.9935 54.6287 9.33542 51.8782C8.83245 51.0441 8.29667 50.2293 7.77847 49.4414C6.62874 47.6932 5.54277 46.0421 4.81222 44.227C3.80089 41.7144 3.48214 38.914 3.87003 36.1506C7.50296 36.7139 16.6431 38.7904 21.2425 45.7767V60H24.7581V45.7768C29.3578 38.7899 38.4993 36.7137 42.1305 36.1507C42.5183 38.9142 42.1996 41.7145 41.1884 44.227C40.4578 46.0421 39.3719 47.6932 38.2221 49.4413C37.7039 50.2293 37.168 51.0441 36.6651 51.8784C35.0072 54.6288 34.3949 57.1711 33.8439 60H37.429C37.8953 57.718 38.4374 55.7494 39.6755 53.6954C40.1427 52.9202 40.6363 52.1699 41.1589 51.3752C42.3529 49.5598 43.5877 47.6824 44.4495 45.5414C46.0336 41.6052 46.2366 37.1108 45.0208 32.886ZM35.031 34.2892C29.929 36.0493 25.8197 38.7722 23.0003 42.237C20.1809 38.7723 16.0716 36.0493 10.9696 34.2892C8.50163 33.4378 6.27765 32.9715 4.73757 32.7212C5.39359 30.9728 6.33612 29.3681 7.3471 27.716H38.6534C39.6644 29.3681 40.6069 30.9728 41.263 32.7212C39.723 32.9714 37.4989 33.4377 35.031 34.2892Z" fill="#8B8D91"/>
</svg>
