<svg width="19" height="24" viewBox="0 0 19 24" fill="none" xmlns="http://www.w3.org/2000/svg">
<path d="M7.15039 10.5C7.44587 10.5 7.73845 10.4418 8.01143 10.3287C8.28441 10.2157 8.53245 10.0499 8.74138 9.84099C8.95031 9.63206 9.11605 9.38402 9.22912 9.11104C9.34219 8.83806 9.40039 8.54547 9.40039 8.25C9.40039 7.95453 9.34219 7.66194 9.22912 7.38896C9.11605 7.11598 8.95031 6.86794 8.74138 6.65901C8.53245 6.45008 8.28441 6.28434 8.01143 6.17127C7.73845 6.0582 7.44587 6 7.15039 6C6.55365 6 5.98136 6.23705 5.5594 6.65901C5.13744 7.08097 4.90039 7.65326 4.90039 8.25C4.90039 8.84674 5.13744 9.41903 5.5594 9.84099C5.98136 10.2629 6.55365 10.5 7.15039 10.5Z" fill="#262625"/>
<path d="M18.3965 21C18.3965 21.7956 18.0804 22.5587 17.5178 23.1213C16.9552 23.6839 16.1921 24 15.3965 24H3.39648C2.60083 24 1.83777 23.6839 1.27516 23.1213C0.712555 22.5587 0.396484 21.7956 0.396484 21V3C0.396484 2.20435 0.712555 1.44129 1.27516 0.87868C1.83777 0.316071 2.60083 0 3.39648 0L11.6465 0L18.3965 6.75V21ZM3.39648 1.5C2.99866 1.5 2.61713 1.65804 2.33582 1.93934C2.05452 2.22064 1.89648 2.60218 1.89648 3V18L5.23248 14.664C5.35071 14.5461 5.50491 14.4709 5.67066 14.4506C5.8364 14.4302 6.00421 14.4657 6.14748 14.5515L9.39648 16.5L12.632 11.97C12.6953 11.8815 12.7771 11.8078 12.8718 11.754C12.9664 11.7003 13.0716 11.6678 13.1801 11.6588C13.2886 11.6498 13.3977 11.6645 13.4999 11.702C13.6021 11.7394 13.695 11.7986 13.772 11.8755L16.8965 15V6.75H13.8965C13.2997 6.75 12.7275 6.51295 12.3055 6.09099C11.8835 5.66903 11.6465 5.09674 11.6465 4.5V1.5H3.39648Z" fill="#262625"/>
</svg>
