<svg width="25" height="24" viewBox="0 0 25 24" fill="none" xmlns="http://www.w3.org/2000/svg">
<path d="M10.1504 10.5C10.4459 10.5 10.7384 10.4418 11.0114 10.3287C11.2844 10.2157 11.5324 10.0499 11.7414 9.84099C11.9503 9.63206 12.116 9.38402 12.2291 9.11104C12.3422 8.83806 12.4004 8.54547 12.4004 8.25C12.4004 7.95453 12.3422 7.66194 12.2291 7.38896C12.116 7.11598 11.9503 6.86794 11.7414 6.65901C11.5324 6.45008 11.2844 6.28434 11.0114 6.17127C10.7384 6.0582 10.4459 6 10.1504 6C9.55365 6 8.98136 6.23705 8.5594 6.65901C8.13744 7.08097 7.90039 7.65326 7.90039 8.25C7.90039 8.84674 8.13744 9.41903 8.5594 9.84099C8.98136 10.2629 9.55365 10.5 10.1504 10.5Z" fill="#262625"/>
<path d="M21.3965 21C21.3965 21.7956 21.0804 22.5587 20.5178 23.1213C19.9552 23.6839 19.1921 24 18.3965 24H6.39648C5.60083 24 4.83777 23.6839 4.27516 23.1213C3.71255 22.5587 3.39648 21.7956 3.39648 21V3C3.39648 2.20435 3.71255 1.44129 4.27516 0.87868C4.83777 0.316071 5.60083 0 6.39648 0L14.6465 0L21.3965 6.75V21ZM6.39648 1.5C5.99866 1.5 5.61713 1.65804 5.33582 1.93934C5.05452 2.22064 4.89648 2.60218 4.89648 3V18L8.23248 14.664C8.35071 14.5461 8.50491 14.4709 8.67066 14.4506C8.8364 14.4302 9.00421 14.4657 9.14748 14.5515L12.3965 16.5L15.632 11.97C15.6953 11.8815 15.7771 11.8078 15.8718 11.754C15.9664 11.7003 16.0716 11.6678 16.1801 11.6588C16.2886 11.6498 16.3977 11.6645 16.4999 11.702C16.6021 11.7394 16.695 11.7986 16.772 11.8755L19.8965 15V6.75H16.8965C16.2997 6.75 15.7275 6.51295 15.3055 6.09099C14.8835 5.66903 14.6465 5.09674 14.6465 4.5V1.5H6.39648Z" fill="#262625"/>
</svg>
