<svg width="25" height="24" viewBox="0 0 25 24" fill="none" xmlns="http://www.w3.org/2000/svg">
<g clip-path="url(#clip0_1163_34622)">
<path d="M18.7084 0H5.95837C2.85177 0 0.333374 2.5184 0.333374 5.625V18.375C0.333374 21.4816 2.85177 24 5.95837 24H18.7084C21.815 24 24.3334 21.4816 24.3334 18.375V5.625C24.3334 2.5184 21.815 0 18.7084 0Z" fill="url(#paint0_radial_1163_34622)"/>
<path d="M18.7084 0H5.95837C2.85177 0 0.333374 2.5184 0.333374 5.625V18.375C0.333374 21.4816 2.85177 24 5.95837 24H18.7084C21.815 24 24.3334 21.4816 24.3334 18.375V5.625C24.3334 2.5184 21.815 0 18.7084 0Z" fill="url(#paint1_radial_1163_34622)"/>
<path d="M12.3342 2.625C9.78816 2.625 9.46856 2.63616 8.46862 2.68163C7.47056 2.72738 6.78928 2.88534 6.19322 3.11719C5.57653 3.35662 5.0535 3.67697 4.53244 4.19822C4.01091 4.71937 3.69056 5.24241 3.45037 5.85881C3.21787 6.45506 3.05972 7.13662 3.01481 8.13422C2.97009 9.13425 2.95837 9.45394 2.95837 12.0001C2.95837 14.5463 2.96962 14.8648 3.015 15.8647C3.06094 16.8628 3.21891 17.5441 3.45056 18.1402C3.69019 18.7568 4.01053 19.2799 4.53178 19.8009C5.05275 20.3225 5.57578 20.6436 6.192 20.883C6.78853 21.1148 7.4699 21.2728 8.46778 21.3186C9.46781 21.364 9.78712 21.3752 12.3331 21.3752C14.8794 21.3752 15.198 21.364 16.1979 21.3186C17.196 21.2728 17.878 21.1148 18.4746 20.883C19.091 20.6436 19.6132 20.3225 20.1341 19.8009C20.6557 19.2799 20.9759 18.7568 21.2162 18.1404C21.4466 17.5441 21.6049 16.8626 21.6517 15.8649C21.6967 14.865 21.7084 14.5463 21.7084 12.0001C21.7084 9.45394 21.6967 9.13444 21.6517 8.13441C21.6049 7.13634 21.4466 6.45516 21.2162 5.85909C20.9759 5.24241 20.6557 4.71937 20.1341 4.19822C19.6127 3.67678 19.0912 3.35644 18.474 3.11728C17.8763 2.88534 17.1947 2.72728 16.1966 2.68163C15.1966 2.63616 14.8782 2.625 12.3313 2.625H12.3342ZM11.4932 4.31447C11.7428 4.31409 12.0214 4.31447 12.3342 4.31447C14.8374 4.31447 15.1341 4.32347 16.1226 4.36838C17.0366 4.41019 17.5327 4.56291 17.8632 4.69125C18.3007 4.86112 18.6127 5.06428 18.9406 5.3925C19.2687 5.72062 19.4718 6.03309 19.6421 6.47062C19.7705 6.80062 19.9234 7.29675 19.965 8.21081C20.0099 9.19913 20.0197 9.49594 20.0197 11.9979C20.0197 14.4999 20.0099 14.7968 19.965 15.7851C19.9232 16.6991 19.7705 17.1952 19.6421 17.5253C19.4722 17.9629 19.2687 18.2744 18.9406 18.6023C18.6125 18.9305 18.3009 19.1335 17.8632 19.3035C17.5331 19.4324 17.0366 19.5848 16.1226 19.6266C15.1342 19.6715 14.8374 19.6812 12.3342 19.6812C9.83091 19.6812 9.53419 19.6715 8.54597 19.6266C7.63191 19.5844 7.13578 19.4317 6.80503 19.3033C6.36759 19.1333 6.05503 18.9303 5.72691 18.6022C5.39878 18.274 5.19572 17.9623 5.02537 17.5246C4.89703 17.1945 4.74412 16.6984 4.7025 15.7843C4.65759 14.796 4.64859 14.4992 4.64859 11.9956C4.64859 9.492 4.65759 9.19678 4.7025 8.20847C4.74431 7.29441 4.89703 6.79828 5.02537 6.46781C5.19534 6.03028 5.39878 5.71781 5.727 5.38969C6.05522 5.06156 6.36759 4.85841 6.80512 4.68816C7.13559 4.55925 7.63191 4.40691 8.54597 4.36491C9.41081 4.32581 9.74597 4.31409 11.4932 4.31212V4.31447ZM17.3386 5.87109C16.7175 5.87109 16.2136 6.37453 16.2136 6.99572C16.2136 7.61681 16.7175 8.12072 17.3386 8.12072C17.9597 8.12072 18.4636 7.61681 18.4636 6.99572C18.4636 6.37463 17.9597 5.87072 17.3386 5.87072V5.87109ZM12.3342 7.18556C9.67547 7.18556 7.51978 9.34125 7.51978 12.0001C7.51978 14.6589 9.67547 16.8136 12.3342 16.8136C14.9931 16.8136 17.148 14.6589 17.148 12.0001C17.148 9.34134 14.9929 7.18556 12.334 7.18556H12.3342ZM12.3342 8.87503C14.0601 8.87503 15.4593 10.2741 15.4593 12.0001C15.4593 13.7259 14.0601 15.1252 12.3342 15.1252C10.6084 15.1252 9.20925 13.7259 9.20925 12.0001C9.20925 10.2741 10.6083 8.87503 12.3342 8.87503Z" fill="white"/>
</g>
<defs>
<radialGradient id="paint0_radial_1163_34622" cx="0" cy="0" r="1" gradientUnits="userSpaceOnUse" gradientTransform="translate(6.70837 25.8485) rotate(-90) scale(23.7858 22.1227)">
<stop stop-color="#FFDD55"/>
<stop offset="0.1" stop-color="#FFDD55"/>
<stop offset="0.5" stop-color="#FF543E"/>
<stop offset="1" stop-color="#C837AB"/>
</radialGradient>
<radialGradient id="paint1_radial_1163_34622" cx="0" cy="0" r="1" gradientUnits="userSpaceOnUse" gradientTransform="translate(-3.68672 1.72884) rotate(78.681) scale(10.6324 43.827)">
<stop stop-color="#3771C8"/>
<stop offset="0.128" stop-color="#3771C8"/>
<stop offset="1" stop-color="#6600FF" stop-opacity="0"/>
</radialGradient>
<clipPath id="clip0_1163_34622">
<rect width="24" height="24" fill="white" transform="translate(0.333374)"/>
</clipPath>
</defs>
</svg>
