<svg width="28" height="28" viewBox="0 0 28 28" fill="none" xmlns="http://www.w3.org/2000/svg">
<path d="M23.5198 14.8519C24.2957 14.0771 24.8875 13.1378 25.2514 12.1034C25.6152 11.0691 25.7419 9.96614 25.6221 8.87621C25.5022 7.78629 25.1389 6.73726 24.5589 5.80671C23.979 4.87615 23.1972 4.08788 22.2715 3.5002C19.9265 1.94854 16.7882 1.93687 14.4198 3.4652C12.3665 4.78354 11.2348 6.83687 11.0365 8.9602C10.8848 10.5002 10.3015 11.9352 9.22818 13.0085L9.19318 13.0435C7.83984 14.3969 7.83984 16.4619 9.11151 17.7219L10.2665 18.8769C10.8778 19.4877 11.7065 19.8308 12.5707 19.8308C13.4348 19.8308 14.2636 19.4877 14.8748 18.8769C16.0065 17.7452 17.4998 17.1269 19.1215 16.9519C20.7198 16.7769 22.2832 16.0769 23.5198 14.8519ZM7.30318 23.1702C7.61818 23.8235 7.51318 24.6169 6.96484 25.1535C6.72736 25.3946 6.42468 25.5611 6.09394 25.6326C5.76319 25.7042 5.41876 25.6776 5.10289 25.5562C4.78702 25.4348 4.51345 25.2239 4.31573 24.9493C4.11802 24.6746 4.00476 24.3483 3.98984 24.0102C3.65178 23.9953 3.32542 23.882 3.05079 23.6843C2.77617 23.4866 2.56522 23.213 2.44383 22.8972C2.32244 22.5813 2.29588 22.2369 2.36741 21.9061C2.43893 21.5754 2.60544 21.2727 2.84651 21.0352C3.38318 20.4985 4.18818 20.3819 4.82984 20.6969L7.72318 17.8619C7.88651 18.0835 8.07318 18.3402 8.28318 18.5502L9.43818 19.7052C9.68318 19.9385 9.91651 20.1369 10.2198 20.3119L7.30318 23.1702Z" fill="#666666"/>
</svg>
