<svg width="28" height="28" viewBox="0 0 28 28" fill="none" xmlns="http://www.w3.org/2000/svg">
<g clip-path="url(#clip0_5181_36737)">
<path d="M25.375 0.656351H2.625C2.10882 0.651098 1.61163 0.85083 1.24254 1.21172C0.873449 1.57261 0.662596 2.06518 0.65625 2.58135V25.4232C0.663744 25.9386 0.875101 26.4301 1.24407 26.79C1.61304 27.15 2.10957 27.3491 2.625 27.3439H25.375C25.8912 27.3479 26.3881 27.1475 26.757 26.7864C27.1259 26.4253 27.3368 25.9328 27.3438 25.4167V2.57479C27.3345 2.06013 27.1226 1.56991 26.7539 1.21068C26.3853 0.851442 25.8897 0.652234 25.375 0.656351Z" fill="#0076B2"/>
<path d="M4.60724 10.6597H8.5688V23.4062H4.60724V10.6597ZM6.58911 4.31592C7.04348 4.31592 7.48765 4.45068 7.86541 4.70316C8.24318 4.95564 8.53758 5.3145 8.71136 5.73432C8.88514 6.15415 8.93049 6.61609 8.84169 7.0617C8.75289 7.50731 8.53392 7.91657 8.21247 8.2377C7.89103 8.55884 7.48156 8.77742 7.03587 8.8658C6.59017 8.95418 6.12828 8.90838 5.70862 8.7342C5.28896 8.56002 4.93039 8.26528 4.67827 7.88728C4.42615 7.50927 4.2918 7.06498 4.29224 6.61061C4.29282 6.00182 4.53506 5.41816 4.96575 4.98788C5.39643 4.55761 5.98032 4.31592 6.58911 4.31592ZM11.0538 10.6597H14.8513V12.4097H14.9038C15.4332 11.4078 16.7238 10.3512 18.651 10.3512C22.6629 10.3425 23.4066 12.9828 23.4066 16.4062V23.4062H19.445V17.2047C19.445 15.7281 19.4188 13.8272 17.3866 13.8272C15.3544 13.8272 15.0088 15.4372 15.0088 17.1084V23.4062H11.0538V10.6597Z" fill="white"/>
</g>
<defs>
<clipPath id="clip0_5181_36737">
<rect width="28" height="28" fill="white"/>
</clipPath>
</defs>
</svg>
