<svg width="18" height="18" viewBox="0 0 18 18" fill="none" xmlns="http://www.w3.org/2000/svg">
<path d="M0.949017 6.13672H4.34464V17.0623H0.949017V6.13672ZM2.64777 0.699219C3.03723 0.699219 3.41794 0.814731 3.74174 1.03114C4.06554 1.24756 4.31788 1.55514 4.46683 1.91499C4.61579 2.27485 4.65467 2.67079 4.57855 3.05274C4.50243 3.43469 4.31474 3.78549 4.03922 4.06075C3.7637 4.33601 3.41272 4.52337 3.0307 4.59912C2.64868 4.67487 2.25277 4.63561 1.89306 4.48632C1.53335 4.33702 1.226 4.08439 1.0099 3.76038C0.793796 3.43638 0.678646 3.05556 0.679017 2.66609C0.679514 2.14427 0.887154 1.644 1.25631 1.27519C1.62547 0.906382 2.12595 0.699219 2.64777 0.699219ZM6.47464 6.13672H9.72964V7.63672H9.77464C10.2284 6.77797 11.3346 5.87234 12.9865 5.87234C16.4253 5.86484 17.0628 8.12797 17.0628 11.0623V17.0623H13.6671V11.7467C13.6671 10.4811 13.6446 8.85172 11.9028 8.85172C10.1609 8.85172 9.86464 10.2317 9.86464 11.6642V17.0623H6.47464V6.13672Z" fill="white"/>
</svg>
