<svg width="24" height="24" viewBox="0 0 24 24" fill="none" xmlns="http://www.w3.org/2000/svg">
<path d="M17.5 6C15.852 4.159 13.666 3 11 3C9.8181 3 8.64778 3.23279 7.55585 3.68508C6.46392 4.13738 5.47177 4.80031 4.63604 5.63604C3.80031 6.47177 3.13738 7.46392 2.68508 8.55585C2.23279 9.64778 2 10.8181 2 12C2 13.1819 2.23279 14.3522 2.68508 15.4442C3.13738 16.5361 3.80031 17.5282 4.63604 18.364C5.47177 19.1997 6.46392 19.8626 7.55585 20.3149C8.64778 20.7672 9.8181 21 11 21C13.666 21 15.852 19.841 17.5 18M22 12L13 12M22 12C22 11.3 20.006 9.992 19.5 9.5M22 12C22 12.7 20.006 14.008 19.5 14.5" stroke="#8B8D91" stroke-width="1.5" stroke-linecap="round" stroke-linejoin="round"/>
</svg>
