<svg width="565" height="189" viewBox="0 0 565 189" fill="none" xmlns="http://www.w3.org/2000/svg">
<rect x="44.5833" y="91" width="5" height="62" rx="2.5" fill="#262625"/>
<rect x="138.75" y="46" width="5" height="107" rx="2.5" fill="#262625"/>
<rect x="232.917" y="57" width="5" height="96" rx="2.5" fill="#262625"/>
<rect x="327.083" width="5" height="153" rx="2.5" fill="#262625"/>
<rect x="421.25" y="22" width="5" height="131" rx="2.5" fill="#262625"/>
<rect x="515.417" y="1" width="5" height="152" rx="2.5" fill="#F5F5F5"/>
<path d="M37.1791 185V184.062C37.5571 184.118 37.8931 184.146 38.1871 184.146C39.1811 184.146 39.7131 183.81 39.7131 182.76V175.76H40.8051V182.858C40.8051 184.412 39.8951 185.154 38.3971 185.154C38.0331 185.154 37.6271 185.098 37.1791 185ZM48.2974 180.8V185H47.2894V184.118C46.7854 184.79 45.9874 185.154 44.9934 185.154C43.5934 185.154 42.6134 184.412 42.6134 183.236C42.6134 182.074 43.5934 181.332 45.0634 181.332H47.2194V180.744C47.2194 179.624 46.5894 179.022 45.5674 179.022C44.7414 179.022 44.1394 179.386 43.5794 180.114L42.8654 179.526C43.4814 178.518 44.5034 178.028 45.6374 178.028C47.2474 178.028 48.2974 179.008 48.2974 180.8ZM47.2194 182.382V182.214H45.1894C44.2374 182.214 43.7194 182.55 43.7194 183.18C43.7194 183.866 44.3354 184.258 45.1334 184.258C46.2534 184.258 47.2194 183.432 47.2194 182.382ZM56.2259 180.716V185H55.1479V180.842C55.1479 179.764 54.5039 179.022 53.4539 179.022C52.4039 179.022 51.6619 179.778 51.6619 180.842V185H50.5839V178.182H51.5919V178.91C52.0959 178.35 52.8379 178.028 53.6919 178.028C55.2739 178.028 56.2259 179.106 56.2259 180.716Z" fill="#6A6A6A"/>
<path d="M130.643 185V175.76H136.425V176.74H131.735V179.918H135.627V180.912H131.735V185H130.643ZM143.497 181.92H138.107C138.233 183.264 139.269 184.16 140.613 184.16C141.383 184.16 142.083 183.852 142.699 183.236L143.329 183.964C142.615 184.706 141.677 185.154 140.599 185.154C138.569 185.154 136.987 183.6 136.987 181.598C136.987 179.624 138.527 178.028 140.473 178.028C142.237 178.028 143.581 179.302 143.581 181.108C143.581 181.374 143.553 181.64 143.497 181.92ZM138.149 180.968H142.475C142.461 179.75 141.579 179.008 140.445 179.008C139.311 179.008 138.387 179.792 138.149 180.968ZM152.433 181.598C152.433 183.6 150.991 185.154 149.073 185.154C148.009 185.154 147.001 184.692 146.483 183.922V185H145.475V174.5H146.553V179.176C147.099 178.462 148.037 178.028 149.059 178.028C150.977 178.028 152.433 179.596 152.433 181.598ZM151.327 181.584C151.327 180.114 150.291 179.022 148.905 179.022C147.645 179.022 146.539 179.862 146.539 181.598C146.539 183.32 147.687 184.16 148.905 184.16C150.291 184.16 151.327 183.054 151.327 181.584Z" fill="#6A6A6A"/>
<path d="M233.087 175.606H233.465V185H232.373V178.378L229.419 182.382H229.027L226.059 178.35V185H224.967V175.606H225.359L229.209 180.94L233.087 175.606ZM240.972 180.8V185H239.964V184.118C239.46 184.79 238.662 185.154 237.668 185.154C236.268 185.154 235.288 184.412 235.288 183.236C235.288 182.074 236.268 181.332 237.738 181.332H239.894V180.744C239.894 179.624 239.264 179.022 238.242 179.022C237.416 179.022 236.814 179.386 236.254 180.114L235.54 179.526C236.156 178.518 237.178 178.028 238.312 178.028C239.922 178.028 240.972 179.008 240.972 180.8ZM239.894 182.382V182.214H237.864C236.912 182.214 236.394 182.55 236.394 183.18C236.394 183.866 237.01 184.258 237.808 184.258C238.928 184.258 239.894 183.432 239.894 182.382ZM246.884 178.182V179.134H246.478C245.33 179.134 244.336 179.876 244.336 181.136V185H243.258V178.182H244.266V179.148C244.756 178.49 245.554 178.126 246.38 178.126C246.534 178.126 246.702 178.14 246.884 178.182Z" fill="#6A6A6A"/>
<path d="M325.669 185L324.885 183.124H320.349L319.565 185H318.417L322.421 175.606H322.827L326.831 185H325.669ZM324.465 182.144L322.617 177.594L320.769 182.144H324.465ZM335.414 181.584C335.414 183.586 333.958 185.154 332.04 185.154C331.032 185.154 330.094 184.734 329.534 184.02V187.52H328.456V178.182H329.464V179.274C329.982 178.49 330.976 178.028 332.04 178.028C333.986 178.028 335.414 179.582 335.414 181.584ZM334.308 181.598C334.308 180.128 333.272 179.022 331.886 179.022C330.668 179.022 329.52 179.862 329.52 181.584C329.52 183.32 330.626 184.16 331.886 184.16C333.272 184.16 334.308 183.068 334.308 181.598ZM340.928 178.182V179.134H340.522C339.374 179.134 338.38 179.876 338.38 181.136V185H337.302V178.182H338.31V179.148C338.8 178.49 339.598 178.126 340.424 178.126C340.578 178.126 340.746 178.14 340.928 178.182Z" fill="#6A6A6A"/>
<path d="M420.183 175.606H420.561V185H419.469V178.378L416.515 182.382H416.123L413.155 178.35V185H412.063V175.606H412.455L416.305 180.94L420.183 175.606ZM428.068 180.8V185H427.06V184.118C426.556 184.79 425.758 185.154 424.764 185.154C423.364 185.154 422.384 184.412 422.384 183.236C422.384 182.074 423.364 181.332 424.834 181.332H426.99V180.744C426.99 179.624 426.36 179.022 425.338 179.022C424.512 179.022 423.91 179.386 423.35 180.114L422.636 179.526C423.252 178.518 424.274 178.028 425.408 178.028C427.018 178.028 428.068 179.008 428.068 180.8ZM426.99 182.382V182.214H424.96C424.008 182.214 423.49 182.55 423.49 183.18C423.49 183.866 424.106 184.258 424.904 184.258C426.024 184.258 426.99 183.432 426.99 182.382ZM435.198 178.182H436.346L432.986 185.952C432.468 187.142 431.726 187.674 430.676 187.674C430.326 187.674 429.976 187.632 429.626 187.534V186.624C429.976 186.666 430.256 186.694 430.452 186.694C431.166 186.694 431.642 186.428 431.992 185.602L432.356 184.79L429.528 178.182H430.69L432.944 183.614L435.198 178.182Z" fill="#6A6A6A"/>
<path d="M507.794 185V184.062C508.172 184.118 508.508 184.146 508.802 184.146C509.796 184.146 510.328 183.81 510.328 182.76V175.76H511.42V182.858C511.42 184.412 510.51 185.154 509.012 185.154C508.648 185.154 508.242 185.098 507.794 185ZM513.718 182.284V178.182H514.782V182.354C514.782 183.46 515.538 184.16 516.546 184.16C517.54 184.16 518.282 183.432 518.282 182.354V178.182H519.36V182.284C519.36 184.006 518.128 185.154 516.546 185.154C514.95 185.154 513.718 184.006 513.718 182.284ZM527.278 180.716V185H526.2V180.842C526.2 179.764 525.556 179.022 524.506 179.022C523.456 179.022 522.714 179.778 522.714 180.842V185H521.636V178.182H522.644V178.91C523.148 178.35 523.89 178.028 524.744 178.028C526.326 178.028 527.278 179.106 527.278 180.716Z" fill="#6A6A6A"/>
</svg>
