<svg width="55" height="55" viewBox="0 0 55 55" fill="none" xmlns="http://www.w3.org/2000/svg">
<rect x="0.5" y="0.5" width="54" height="54" rx="7.5" fill="white"/>
<rect x="0.5" y="0.5" width="54" height="54" rx="7.5" stroke="#E1E1E1"/>
<path fill-rule="evenodd" clip-rule="evenodd" d="M28.8333 15.5C28.8333 15.1464 28.6928 14.8072 28.4428 14.5572C28.1927 14.3071 27.8536 14.1667 27.5 14.1667C27.1464 14.1667 26.8072 14.3071 26.5572 14.5572C26.3071 14.8072 26.1666 15.1464 26.1666 15.5V16.5H25.424C23.9947 16.4999 22.6191 17.0445 21.5772 18.023C20.5353 19.0014 19.9055 20.3402 19.816 21.7667L19.5213 26.4787C19.4074 28.2749 18.8043 30.0058 17.7773 31.484C17.5648 31.7894 17.435 32.1446 17.4004 32.5151C17.3659 32.8855 17.4278 33.2586 17.5801 33.5981C17.7325 33.9375 17.9701 34.2318 18.2698 34.4522C18.5695 34.6726 18.9212 34.8117 19.2906 34.856L23.8333 35.4V36.8333C23.8333 37.8058 24.2196 38.7384 24.9072 39.426C25.5949 40.1137 26.5275 40.5 27.5 40.5C28.4724 40.5 29.4051 40.1137 30.0927 39.426C30.7803 38.7384 31.1666 37.8058 31.1666 36.8333V35.4L35.7093 34.8547C36.0785 34.8103 36.43 34.6711 36.7295 34.4508C37.0291 34.2305 37.2665 33.9364 37.4188 33.5971C37.5711 33.2579 37.6331 32.885 37.5987 32.5147C37.5644 32.1445 37.4348 31.7894 37.2226 31.484C36.1956 30.0058 35.5926 28.2749 35.4786 26.4787L35.184 21.768C35.0948 20.3413 34.4651 19.0022 33.4232 18.0235C32.3813 17.0447 31.0055 16.4999 29.576 16.5H28.8333V15.5ZM25.8333 36.8333C25.8333 37.2754 26.0089 37.6993 26.3215 38.0118C26.634 38.3244 27.0579 38.5 27.5 38.5C27.942 38.5 28.3659 38.3244 28.6785 38.0118C28.991 37.6993 29.1666 37.2754 29.1666 36.8333V35.8333H25.8333V36.8333Z" fill="#DBDBDB"/>
</svg>
