<svg width="24" height="24" viewBox="0 0 24 24" fill="none" xmlns="http://www.w3.org/2000/svg">
<path d="M6.19995 7.4002L7.39995 6.2002V10.6002M7.39995 10.6002H6.19995M7.39995 10.6002H8.19995M12.9999 13.8002H11.7249C11.1403 13.8002 10.8145 13.1489 11.1246 12.6861C11.1628 12.6291 11.2168 12.5851 11.274 12.5471L12.7139 11.589C12.771 11.5509 12.8249 11.5068 12.8639 11.4503C13.2202 10.9345 12.857 10.2002 12.202 10.2002H11M15.8 14.2002H16.9571C17.9446 14.2002 18.1198 15.7103 17.208 15.9647C17.1639 15.977 17.1176 15.982 17.0718 15.9836L16.6 16.0002L17.0718 16.0168C17.1176 16.0184 17.1639 16.0234 17.208 16.0357C18.1198 16.2901 17.9446 17.8002 16.9571 17.8002H15.8" stroke="#667085" stroke-width="1.8" stroke-linecap="round" stroke-linejoin="round"/>
</svg>
