<svg width="24" height="16" viewBox="0 0 24 16" fill="none" xmlns="http://www.w3.org/2000/svg">
<path d="M15.4189 14.3402C15.4927 14.4533 15.5346 14.5843 15.5401 14.7193C15.5456 14.8543 15.5145 14.9882 15.4502 15.107C15.3858 15.2258 15.2906 15.325 15.1745 15.3942C15.0585 15.4633 14.9259 15.4998 14.7908 15.4998H0.958893C0.823795 15.4998 0.69121 15.4633 0.575146 15.3942C0.459082 15.325 0.363848 15.2258 0.299506 15.107C0.235165 14.9882 0.204104 14.8543 0.209607 14.7193C0.21511 14.5843 0.256971 14.4533 0.330768 14.3402C1.38649 12.7151 2.93935 11.475 4.75764 10.8048C3.75245 10.1356 2.9893 9.16073 2.58105 8.02426C2.17279 6.8878 2.1411 5.65012 2.49067 4.49425C2.84023 3.33838 3.55249 2.32569 4.52212 1.60593C5.49174 0.886171 6.66726 0.497559 7.87483 0.497559C9.0824 0.497559 10.2579 0.886171 11.2275 1.60593C12.1972 2.32569 12.9094 3.33838 13.259 4.49425C13.6086 5.65012 13.5769 6.8878 13.1686 8.02426C12.7604 9.16073 11.9972 10.1356 10.992 10.8048C12.8103 11.475 14.3632 12.7151 15.4189 14.3402ZM23.6605 14.3261C22.6044 12.7079 21.0551 11.4731 19.242 10.8048C20.4287 10.0055 21.2662 8.78397 21.5839 7.38891C21.9017 5.99386 21.676 4.53014 20.9526 3.29568C20.2292 2.06122 19.0626 1.14881 17.6902 0.744181C16.3178 0.339547 14.8428 0.4731 13.5655 1.11765C13.5166 1.14287 13.4739 1.17852 13.4404 1.22208C13.4068 1.26564 13.3833 1.31604 13.3714 1.3697C13.3595 1.42337 13.3595 1.479 13.3715 1.53265C13.3835 1.5863 13.4072 1.63666 13.4408 1.68015C14.3906 2.86497 14.9361 4.32282 14.9973 5.84013C15.0586 7.35745 14.6324 8.85451 13.7811 10.112C13.7261 10.1942 13.7057 10.2948 13.7245 10.3919C13.7433 10.489 13.7997 10.5747 13.8814 10.6305C14.9913 11.4051 15.9414 12.3864 16.6798 13.5208C16.9776 13.9768 17.0993 14.5257 17.022 15.0648C17.0133 15.1185 17.0164 15.1734 17.031 15.2257C17.0456 15.278 17.0714 15.3266 17.1066 15.3679C17.1419 15.4093 17.1857 15.4425 17.235 15.4653C17.2843 15.4881 17.338 15.4999 17.3923 15.4998H23.0455C23.2106 15.4999 23.3712 15.4454 23.5022 15.3449C23.6332 15.2444 23.7274 15.1034 23.7701 14.9439C23.7962 14.839 23.7999 14.7298 23.781 14.6233C23.7621 14.5169 23.7211 14.4156 23.6605 14.3261Z" fill="#8B8D91"/>
</svg>
