<svg width="50" height="50" viewBox="0 0 50 50" fill="none" xmlns="http://www.w3.org/2000/svg">
<path d="M27.8125 37.1875C27.8125 37.7438 27.6476 38.2875 27.3385 38.75C27.0295 39.2126 26.5902 39.573 26.0763 39.7859C25.5624 39.9988 24.9969 40.0545 24.4513 39.946C23.9057 39.8374 23.4046 39.5696 23.0113 39.1762C22.6179 38.7829 22.3501 38.2818 22.2416 37.7362C22.133 37.1906 22.1887 36.6251 22.4016 36.1112C22.6145 35.5973 22.975 35.158 23.4375 34.849C23.9 34.5399 24.4437 34.375 25 34.375C25.7459 34.375 26.4613 34.6713 26.9887 35.1988C27.5162 35.7262 27.8125 36.4416 27.8125 37.1875ZM25 11.875C19.8297 11.875 15.625 15.6602 15.625 20.3125V21.25C15.625 21.7473 15.8226 22.2242 16.1742 22.5758C16.5258 22.9275 17.0027 23.125 17.5 23.125C17.9973 23.125 18.4742 22.9275 18.8258 22.5758C19.1775 22.2242 19.375 21.7473 19.375 21.25V20.3125C19.375 17.7344 21.8992 15.625 25 15.625C28.1008 15.625 30.625 17.7344 30.625 20.3125C30.625 22.8906 28.1008 25 25 25C24.5027 25 24.0258 25.1975 23.6742 25.5492C23.3226 25.9008 23.125 26.3777 23.125 26.875V28.75C23.125 29.2473 23.3226 29.7242 23.6742 30.0758C24.0258 30.4275 24.5027 30.625 25 30.625C25.4973 30.625 25.9742 30.4275 26.3258 30.0758C26.6775 29.7242 26.875 29.2473 26.875 28.75V28.5812C31.15 27.7961 34.375 24.3859 34.375 20.3125C34.375 15.6602 30.1703 11.875 25 11.875ZM49.375 25C49.375 29.8209 47.9454 34.5336 45.2671 38.542C42.5887 42.5505 38.7819 45.6747 34.3279 47.5196C29.874 49.3644 24.973 49.8472 20.2447 48.9066C15.5164 47.9661 11.1732 45.6446 7.76428 42.2357C4.35538 38.8268 2.03388 34.4836 1.09337 29.7553C0.152855 25.027 0.635561 20.126 2.48045 15.6721C4.32533 11.2181 7.44954 7.41129 11.458 4.73293C15.4664 2.05457 20.1791 0.625 25 0.625C31.4626 0.631825 37.6585 3.20209 42.2282 7.77181C46.7979 12.3415 49.3682 18.5374 49.375 25ZM45.625 25C45.625 20.9208 44.4154 16.9331 42.1491 13.5414C39.8828 10.1496 36.6616 7.50604 32.8929 5.94498C29.1241 4.38393 24.9771 3.97548 20.9763 4.7713C16.9754 5.56712 13.3004 7.53146 10.4159 10.4159C7.53148 13.3004 5.56713 16.9754 4.77131 20.9763C3.97549 24.9771 4.38394 29.1241 5.94499 32.8928C7.50605 36.6616 10.1496 39.8828 13.5414 42.1491C16.9331 44.4154 20.9208 45.625 25 45.625C30.4682 45.6188 35.7106 43.4438 39.5772 39.5772C43.4438 35.7106 45.6188 30.4682 45.625 25Z" fill="#8B8D91"/>
</svg>
