<svg width="24" height="24" viewBox="0 0 24 24" fill="none" xmlns="http://www.w3.org/2000/svg">
<path fill-rule="evenodd" clip-rule="evenodd" d="M19.1699 6.93008C19.3805 7.14102 19.4989 7.42696 19.4989 7.72508C19.4989 8.02321 19.3805 8.30915 19.1699 8.52008L10.0244 17.6656C9.9188 17.7711 9.79328 17.8545 9.65515 17.911C9.51702 17.9675 9.36903 17.9959 9.2198 17.9947C9.07056 17.9934 8.92307 17.9625 8.78591 17.9037C8.64875 17.8448 8.52466 17.7593 8.42087 17.6521L4.81637 13.9261C4.71271 13.8201 4.63101 13.6947 4.57598 13.557C4.52095 13.4194 4.49367 13.2722 4.49571 13.1239C4.49775 12.9757 4.52908 12.8293 4.58788 12.6932C4.64668 12.5571 4.7318 12.434 4.83834 12.3309C4.94489 12.2278 5.07076 12.1468 5.20872 12.0925C5.34668 12.0383 5.49401 12.0118 5.64224 12.0146C5.79046 12.0175 5.93666 12.0496 6.07243 12.1091C6.20821 12.1687 6.33087 12.2545 6.43337 12.3616L9.24287 15.2656L17.5799 6.93008C17.7908 6.71941 18.0767 6.60107 18.3749 6.60107C18.673 6.60107 18.9589 6.71941 19.1699 6.93008Z" fill="#666666"/>
</svg>
