<svg width="128" height="130" viewBox="0 0 128 130" fill="none" xmlns="http://www.w3.org/2000/svg">
<path d="M121.104 61.1908C117.827 57.9167 113.653 55.6876 109.109 54.7855C104.565 53.8833 99.8561 54.3485 95.5767 56.1222C91.2973 57.896 87.6399 60.8987 85.0667 64.7507C82.4935 68.6027 81.1201 73.1311 81.1201 77.7636C81.1201 82.396 82.4935 86.9245 85.0667 90.7765C87.6399 94.6285 91.2973 97.6312 95.5767 99.4049C99.8561 101.179 104.565 101.644 109.109 100.742C113.653 99.8395 117.827 97.6105 121.104 94.3364C125.493 89.9376 127.958 83.9774 127.958 77.7636C127.958 71.5497 125.493 65.5896 121.104 61.1908ZM91.273 64.5051C94.5052 61.282 98.8009 59.3467 103.357 59.0614C107.912 58.7761 112.416 60.1603 116.025 62.955L89.7229 89.2572C86.9282 85.6481 85.544 81.1445 85.8293 76.5888C86.1146 72.0331 88.0498 67.7374 91.273 64.5051ZM117.79 91.0217C114.558 94.2464 110.262 96.1827 105.706 96.468C101.15 96.7533 96.6459 95.3681 93.0375 92.5718L119.34 66.27C122.134 69.879 123.519 74.3826 123.233 78.9382C122.948 83.4939 121.013 87.7896 117.79 91.0217Z" fill="#8B8D91"/>
<path d="M49.9306 77.9746C49.0916 77.111 48.4413 76.0822 48.0211 74.9538L51.8399 73.0445L61.0684 73.0776L67.052 82.2722L58.8867 87.2075L49.9306 77.9746ZM74.5479 50.4232L81.5792 43.392C81.7969 43.1743 81.9695 42.9159 82.0873 42.6315C82.2051 42.347 82.2657 42.0422 82.2656 41.7344V38.0175L85.0722 35.2111L90.8399 38.0951L87.3067 45.1615L78.9934 55.7532C77.4169 57.2896 75.3009 58.1467 73.0995 58.1406C72.0059 58.1383 70.923 57.9254 69.9099 57.5134L70.2671 56.5759C70.965 54.7152 71.4157 52.7709 71.6077 50.793L72.0949 50.9688C72.5134 51.12 72.9664 51.1491 73.4007 51.0524C73.8352 50.9558 74.2331 50.7374 74.5479 50.4229V50.4232ZM65.8828 54.918L60.7435 68.3887L57.6351 68.3775C57.5917 68.051 57.48 67.7373 57.3073 67.4567L55.4812 64.4978L55.3098 61.2414C55.2816 60.7035 55.0689 60.1918 54.7076 59.7923C54.3464 59.3928 53.8585 59.13 53.3262 59.048L50.4794 58.6085L49.4475 57.1946L50.0273 53.7183C50.4243 51.3308 50.6242 48.9148 50.625 46.4945V44.4558C51.5984 43.9947 52.4715 43.3462 53.1941 42.5475C53.9168 41.7487 54.4749 40.8154 54.8366 39.8007C55.1983 38.7861 55.3565 37.7102 55.3021 36.6344C55.2476 35.5587 54.9817 34.5042 54.5194 33.5312H61.0169L64.4499 39.2538C65.8512 41.589 66.7077 44.2102 66.9558 46.9222C67.2039 49.6342 66.8371 52.3673 65.8828 54.918ZM45.5651 51.874L44.1073 49.8763L45.9307 47.1411C45.904 48.7249 45.7819 50.3055 45.5651 51.8746V51.874ZM45.9375 12.1984C45.9416 10.454 46.3497 8.73429 47.1299 7.17407C47.9101 5.61386 49.0411 4.25558 50.4343 3.20576L50.7524 2.96699C52.7004 1.51203 55.0655 0.723641 57.4969 0.71875H65.6581C66.6436 0.719758 67.5884 1.11168 68.2852 1.80852C68.982 2.50535 69.374 3.45017 69.375 4.43564C69.3763 5.62697 68.9984 6.78779 68.296 7.75H55.3125C54.6909 7.75 54.0947 7.99693 53.6552 8.43647C53.2157 8.87601 52.9687 9.47215 52.9687 10.0938V15.6766L49.5767 17.3726C49.2429 17.5398 48.954 17.7844 48.7339 18.086C48.5138 18.3876 48.3691 18.7374 48.3117 19.1063C46.7716 17.1332 45.9359 14.7015 45.9375 12.1984ZM52.9687 20.9172L56.3607 19.2212C56.75 19.0265 57.0774 18.7273 57.3062 18.3571C57.535 17.9869 57.6562 17.5602 57.6562 17.125V12.4375H67.0312V20.7777C67.0317 21.2698 66.8771 21.7495 66.5895 22.1486C66.3018 22.5478 65.8956 22.8462 65.4287 23.0014L61.6028 24.2767C61.1361 24.4322 60.7302 24.7306 60.4425 25.1296C60.1549 25.5286 60 26.0081 60 26.5V28.8438H52.9687V20.9172ZM34.3652 46.2607L40.0324 36.458C40.5481 35.5694 41.2878 34.8315 42.1777 34.3179C43.0676 33.8044 44.0765 33.5331 45.104 33.5312H47.1094C48.0418 33.5312 48.936 33.9016 49.5953 34.561C50.2546 35.2203 50.625 36.1145 50.625 37.0469C50.625 37.9793 50.2546 38.8735 49.5953 39.5328C48.936 40.1921 48.0418 40.5625 47.1094 40.5625H45.9375C45.5517 40.5625 45.1718 40.6578 44.8316 40.8398C44.4915 41.0218 44.2015 41.285 43.9875 41.6061L39.3 48.6373C39.0339 49.0364 38.8966 49.5076 38.9068 49.9872C38.917 50.4667 39.074 50.9317 39.3568 51.3191L47.267 62.159C47.4489 62.4083 47.6783 62.6192 47.9419 62.7796C48.2055 62.9401 48.4983 63.0468 48.8033 63.0938L50.7287 63.3903L50.8315 65.3415C50.8522 65.7338 50.9712 66.1146 51.1775 66.4489L51.9723 67.738L50.2031 68.6225L50.1677 68.6403L46.6992 70.3744L34.664 53.1827C33.9628 52.1761 33.5624 50.9908 33.5095 49.7651C33.4566 48.5395 33.7534 47.3241 34.3652 46.2607ZM2.97361 84.0335C2.62165 84.2094 2.2199 84.2587 1.83582 84.1733C1.45175 84.088 1.10877 83.873 0.864471 83.5646C0.620176 83.2562 0.489456 82.8731 0.494269 82.4797C0.499082 82.0862 0.639134 81.7065 0.890901 81.4041L8.81248 71.8984L13.5313 75.4375L9.26131 80.8896L2.97361 84.0335ZM36.123 96.8125C33.892 96.809 31.7251 96.0655 29.9619 94.6984L14.0771 82.3439L15.7277 80.236L17.4448 78.0435C22.9043 79.4629 27.7217 82.6905 31.1112 87.1996L32.3437 88.8438C32.5571 89.1285 32.8325 89.3609 33.1491 89.5234C33.4656 89.6859 33.815 89.7742 34.1708 89.7816C34.5266 89.7889 34.8793 89.7152 35.2023 89.566C35.5254 89.4167 35.8102 89.1959 36.0351 88.9202L39.2285 85.0106L45.5549 91.4767L43.2085 93.8828C42.2793 94.8146 41.1748 95.5533 39.9587 96.0561C38.7426 96.5589 37.439 96.816 36.123 96.8125ZM48.8276 88.1189L42.2358 81.383L44.5775 78.6133C45.1301 79.5664 45.7977 80.448 46.5653 81.2383L51.0384 85.8493L48.8276 88.1189ZM62.187 90.6912L69.6337 86.19L72.3337 90.2397C73.502 91.9946 74.2009 94.0198 74.3637 96.1217L76.219 120.25H71.0156L69.1204 115.038C67.7353 111.236 67.0278 107.22 67.0301 103.173V96.8125C67.0301 96.2195 66.8053 95.6485 66.4011 95.2146L62.187 90.6912ZM85.2278 129.625H71.7187V124.938H78.1966L85.4754 128.577C85.5868 128.633 85.6761 128.724 85.7289 128.837C85.7817 128.95 85.7948 129.077 85.7661 129.199C85.7375 129.32 85.6688 129.428 85.5711 129.505C85.4734 129.583 85.3524 129.625 85.2278 129.625Z" fill="#8B8D91"/>
</svg>
