<svg width="22" height="21" viewBox="0 0 22 21" fill="none" xmlns="http://www.w3.org/2000/svg">
<path d="M20.9647 9.76719L16.746 13.4075L18.0313 18.8516C18.1022 19.1471 18.084 19.457 17.9788 19.7422C17.8737 20.0273 17.6864 20.2749 17.4406 20.4537C17.1948 20.6325 16.9016 20.7344 16.5979 20.7466C16.2942 20.7588 15.9938 20.6807 15.7344 20.5222L11.0001 17.6084L6.26287 20.5222C6.00359 20.6798 5.70347 20.7571 5.40031 20.7445C5.09716 20.7318 4.80452 20.6298 4.55925 20.4512C4.31398 20.2726 4.12704 20.0254 4.02197 19.7407C3.9169 19.4561 3.89841 19.1467 3.96881 18.8516L5.25881 13.4075L1.04006 9.76719C0.810652 9.56892 0.644739 9.30745 0.563043 9.01545C0.481347 8.72345 0.487488 8.41385 0.580699 8.12531C0.67391 7.83678 0.850059 7.5821 1.08715 7.39308C1.32424 7.20407 1.61176 7.08908 1.91381 7.0625L7.44506 6.61625L9.57881 1.4525C9.6943 1.17108 9.89088 0.930358 10.1435 0.760942C10.3962 0.591526 10.6935 0.501068 10.9977 0.501068C11.3019 0.501068 11.5992 0.591526 11.8519 0.760942C12.1046 0.930358 12.3011 1.17108 12.4166 1.4525L14.5494 6.61625L20.0807 7.0625C20.3833 7.0881 20.6717 7.20244 20.9096 7.39119C21.1476 7.57995 21.3246 7.83473 21.4183 8.12361C21.5121 8.4125 21.5186 8.72264 21.4369 9.01517C21.3552 9.30771 21.189 9.56963 20.9591 9.76813L20.9647 9.76719Z" fill="#8B8D91"/>
</svg>
