<svg width="46" height="54" viewBox="0 0 46 54" fill="none" xmlns="http://www.w3.org/2000/svg">
<path d="M45.6962 28.1936C45.6962 28.1932 45.6962 28.1927 45.6962 28.1918C45.3075 25.0836 44.544 22.1818 43.4275 19.5675C43.4266 19.5657 43.4257 19.5639 43.4248 19.562C43.0073 18.5815 42.5294 17.6202 42.0048 16.7047C41.4655 15.7631 41.1478 14.8567 40.8114 13.8972L40.7331 13.6738C40.4795 12.9533 39.0682 6.43568 38.8663 1.17369C38.8421 0.544718 38.3253 0.047129 37.6954 0.047129H18.6639C18.0166 0.047129 17.492 0.571726 17.492 1.219C17.492 1.86582 18.0166 2.39088 18.6639 2.39088H36.5835C36.8517 6.4929 37.6945 10.9593 38.1911 13.1547L29.6053 14.87C25.2223 15.7452 20.7774 15.7452 16.3943 14.87L7.80939 13.1561C8.35184 10.757 9.30719 5.64603 9.47519 1.26386C9.49991 0.617045 8.99591 0.0727637 8.34909 0.0480445C7.70319 0.0192054 7.15799 0.527323 7.13327 1.17369C6.9314 6.42835 5.52515 12.9345 5.2688 13.6725C5.26834 13.6729 5.26834 13.6734 5.26834 13.6738L5.18274 13.9164C4.8472 14.8695 4.53043 15.7699 3.9953 16.7042C3.47483 17.6124 2.99738 18.5737 2.57532 19.5616C2.57532 19.562 2.57486 19.5625 2.57486 19.563C1.45655 22.1772 0.692539 25.0799 0.303898 28.19C0.303898 28.1913 0.30344 28.1927 0.30344 28.1936C-0.0362205 30.9068 -0.0971029 33.8507 0.12125 36.9429C0.430241 41.3278 1.61173 47.5891 5.48532 52.5183H5.48578C5.74716 52.8529 6.02686 53.1861 6.31708 53.5084C6.54871 53.7652 6.86777 53.8961 7.1882 53.8961C7.4679 53.8961 7.74805 53.7963 7.97189 53.5949C8.453 53.1614 8.49146 52.4203 8.05841 51.9397C7.89774 51.7616 7.74118 51.5799 7.59012 51.3967C7.62308 49.5817 7.57044 47.6925 7.43311 45.7736C6.88608 38.1335 5.04312 31.2689 2.69113 28.0119C3.02301 25.6251 3.59247 23.3812 4.38852 21.3226C6.98312 21.7561 9.36121 22.4464 10.8746 23.2159C13.8203 24.7119 16.392 26.9137 18.3114 29.5829C19.0049 30.5488 19.6792 31.5582 20.3164 32.5831C20.3356 32.6152 20.3562 32.6463 20.3782 32.6761C20.3782 32.6761 20.3787 32.6761 20.3787 32.6765C20.3814 32.6802 20.3841 32.6838 20.3869 32.6875C20.3896 32.6912 20.3919 32.6944 20.3947 32.6976C20.3965 32.7003 20.3988 32.7026 20.4006 32.7053C20.4057 32.7118 20.4107 32.7182 20.4157 32.7241C20.4167 32.725 20.4176 32.7264 20.4185 32.7278C20.4661 32.785 20.5187 32.8372 20.575 32.8839C20.5755 32.8843 20.576 32.8848 20.5764 32.8848C20.5897 32.8958 20.6034 32.9068 20.6172 32.9168C20.6194 32.9187 20.6213 32.92 20.6231 32.9214C20.6277 32.9251 20.6323 32.9283 20.6368 32.9315C20.6419 32.9351 20.6474 32.9388 20.6529 32.9429C20.6547 32.9443 20.657 32.9457 20.6588 32.947C20.8131 33.0528 20.9934 33.1224 21.1889 33.1443C21.1889 33.1443 21.1894 33.1443 21.1894 33.1448C21.1958 33.1453 21.2017 33.1462 21.2077 33.1466C21.2109 33.1466 21.2141 33.1471 21.2173 33.1475C21.2246 33.148 21.2315 33.1485 21.2388 33.1489C21.2438 33.1494 21.2489 33.1498 21.2539 33.1498C21.2571 33.1503 21.2603 33.1503 21.2635 33.1508C21.2718 33.1508 21.28 33.1512 21.2882 33.1517H21.2942C21.3029 33.1517 21.312 33.1521 21.3212 33.1521H21.7602C21.3235 39.6666 17.7557 52.2688 17.7177 52.4034C17.5405 53.0259 17.9012 53.6741 18.5243 53.8513C18.6309 53.8819 18.7389 53.8966 18.8451 53.8966C19.356 53.8966 19.8252 53.5601 19.9717 53.0447C20.082 52.657 21.8014 46.5838 22.9994 40.6315C24.1973 46.5838 25.9171 52.6574 26.0275 53.0452C26.1739 53.5601 26.6436 53.8966 27.154 53.8966C27.2602 53.8966 27.3682 53.8819 27.4754 53.8513C28.0979 53.6741 28.4586 53.0259 28.2815 52.4034C28.243 52.2688 24.6743 39.6675 24.2381 33.1521H24.667C25.0721 33.1521 25.4488 32.9425 25.6626 32.5982C26.3012 31.5692 26.9787 30.5548 27.6763 29.5839C30.5781 25.5491 35.8607 22.4437 41.6189 21.3432C42.4104 23.3963 42.9771 25.6334 43.308 28.0124C40.9565 31.2693 39.1131 38.1335 38.5661 45.774C38.4292 47.693 38.3765 49.5817 38.409 51.3967C38.258 51.5803 38.1014 51.7616 37.9412 51.9397C37.5077 52.4208 37.5466 53.1614 38.0273 53.5949C38.2511 53.7968 38.5317 53.8961 38.8114 53.8961C39.1319 53.8961 39.4509 53.7652 39.6825 53.5084C39.9728 53.1861 40.2525 52.8529 40.5138 52.5187C40.5138 52.5183 40.5138 52.5183 40.5138 52.5183C44.3874 47.5891 45.5689 41.3278 45.8784 36.9433C46.0967 33.8507 46.0354 30.9068 45.6962 28.1936ZM5.1951 47.6614C3.3494 43.9283 2.67603 39.8588 2.45905 36.7781C2.35193 35.2638 2.31531 33.7893 2.34873 32.3657C3.69226 35.744 4.71903 40.6819 5.09531 45.9411C5.13651 46.5179 5.16992 47.0919 5.1951 47.6614ZM25.7734 28.2156C25.1701 29.0551 24.5818 29.9249 24.0197 30.8084H21.9685C21.4054 29.924 20.8172 29.0538 20.2143 28.2151C18.077 25.2429 15.2146 22.7916 11.9361 21.1262C9.88489 20.0834 7.21704 19.4558 5.36218 19.1153C5.57413 18.69 5.79706 18.2739 6.02869 17.8697C6.51941 17.0128 6.85037 16.1993 7.13785 15.412L15.9356 17.1689C20.6226 18.1041 25.3765 18.1041 30.064 17.1689L38.8622 15.411C39.1492 16.1984 39.4798 17.0118 39.9709 17.8692C40.2094 18.2858 40.4374 18.7129 40.6535 19.1469C34.5281 20.446 28.9233 23.8362 25.7734 28.2156ZM43.5406 36.7781C43.3231 39.8588 42.6502 43.9283 40.8041 47.6614C40.8297 47.0919 40.8627 46.5179 40.9039 45.9411C41.2806 40.6819 42.3069 35.744 43.6509 32.3652C43.6843 33.7893 43.6472 35.2638 43.5406 36.7781Z" fill="#8B8D91"/>
</svg>
