<svg width="25" height="16" viewBox="0 0 25 16" fill="none" xmlns="http://www.w3.org/2000/svg">
<path d="M16.0857 14.3403C16.1595 14.4535 16.2014 14.5845 16.2069 14.7194C16.2124 14.8544 16.1813 14.9884 16.117 15.1072C16.0526 15.226 15.9574 15.3252 15.8413 15.3943C15.7253 15.4635 15.5927 15.5 15.4576 15.5H1.6257C1.4906 15.5 1.35802 15.4635 1.24196 15.3943C1.12589 15.3252 1.03066 15.226 0.966315 15.1072C0.901974 14.9884 0.870913 14.8544 0.876416 14.7194C0.881919 14.5845 0.92378 14.4535 0.997577 14.3403C2.0533 12.7153 3.60616 11.4752 5.42445 10.805C4.41926 10.1358 3.65611 9.16088 3.24786 8.02442C2.8396 6.88795 2.80791 5.65027 3.15747 4.4944C3.50704 3.33853 4.2193 2.32584 5.18893 1.60608C6.15855 0.886324 7.33407 0.497711 8.54164 0.497711C9.74921 0.497711 10.9247 0.886324 11.8944 1.60608C12.864 2.32584 13.5762 3.33853 13.9258 4.4944C14.2754 5.65027 14.2437 6.88795 13.8354 8.02442C13.4272 9.16088 12.664 10.1358 11.6588 10.805C13.4771 11.4752 15.03 12.7153 16.0857 14.3403ZM24.3273 14.3262C23.2713 12.7081 21.7219 11.4733 19.9088 10.805C21.0955 10.0056 21.933 8.78412 22.2508 7.38907C22.5685 5.99401 22.3428 4.53029 21.6194 3.29583C20.896 2.06137 19.7294 1.14897 18.357 0.744334C16.9846 0.3397 15.5096 0.473252 14.2323 1.11781C14.1834 1.14303 14.1407 1.17868 14.1072 1.22223C14.0736 1.26579 14.0501 1.31619 14.0382 1.36986C14.0263 1.42353 14.0263 1.47915 14.0383 1.5328C14.0503 1.58645 14.074 1.63681 14.1076 1.68031C15.0574 2.86513 15.6029 4.32297 15.6642 5.84029C15.7254 7.35761 15.2992 8.85467 14.4479 10.1122C14.3929 10.1944 14.3725 10.295 14.3913 10.392C14.4101 10.4891 14.4665 10.5749 14.5482 10.6306C15.6581 11.4053 16.6083 12.3866 17.3466 13.5209C17.6444 13.977 17.7661 14.5258 17.6888 15.065C17.6801 15.1186 17.6832 15.1735 17.6978 15.2258C17.7124 15.2782 17.7382 15.3267 17.7735 15.3681C17.8087 15.4094 17.8525 15.4427 17.9018 15.4655C17.9511 15.4882 18.0048 15.5 18.0591 15.5H23.7123C23.8774 15.5 24.038 15.4456 24.169 15.3451C24.3 15.2445 24.3942 15.1036 24.437 14.9441C24.463 14.8391 24.4667 14.7299 24.4478 14.6235C24.4289 14.517 24.3879 14.4158 24.3273 14.3262Z" fill="#8B8D91"/>
</svg>
