<svg width="22" height="22" viewBox="0 0 22 22" fill="none" xmlns="http://www.w3.org/2000/svg">
<path fill-rule="evenodd" clip-rule="evenodd" d="M10.3961 2.34504C9.71948 1.70104 8.74764 1.38079 7.48064 1.6917C7.16915 1.26696 6.75127 0.931771 6.26906 0.719869C5.48973 0.385036 4.51148 0.392036 3.40839 1.02612C2.25456 1.56454 1.69864 2.35612 1.54523 3.18679C1.44139 3.75145 1.53181 4.28695 1.68056 4.70929C0.701728 5.56562 0.407144 6.54329 0.547728 7.46437C0.669644 8.2612 1.10481 8.94195 1.53181 9.40395C1.457 9.72521 1.44946 10.0585 1.50964 10.3828C1.69048 10.2545 1.77623 10.195 1.97281 10.115C2.29364 9.98437 2.55614 9.9692 2.84781 9.9692C3.76656 9.9692 4.29798 10.076 5.17414 10.3192C5.67068 10.4519 6.1475 10.6496 6.59223 10.9072L6.7579 10.836C6.96617 10.7457 7.19627 10.7182 7.41998 10.7567L9.46923 11.1108C9.39023 10.6878 9.34479 10.2593 9.33331 9.8292C9.31125 8.80631 9.57339 7.79734 10.0906 6.91455C10.6078 6.03176 11.3597 5.30976 12.2628 4.82887C12.0269 4.58217 11.7408 4.38884 11.424 4.26187C11.2898 3.64762 10.9801 2.90095 10.3961 2.34504ZM4.66431 2.99662C4.73298 2.96263 4.80768 2.9425 4.88413 2.93739C4.96059 2.93227 5.0373 2.94227 5.10989 2.96681C5.18248 2.99135 5.24952 3.02995 5.30719 3.0804C5.36485 3.13086 5.41202 3.19218 5.44598 3.26087L5.9074 4.1942L6.84831 3.18679C6.95519 3.07981 7.09943 3.01853 7.25063 3.01585C7.40182 3.01317 7.54814 3.0693 7.65875 3.17242C7.76935 3.27553 7.83559 3.41757 7.8435 3.56858C7.85141 3.71958 7.80037 3.86776 7.70114 3.98187L6.4604 5.3107L6.92881 6.25629L7.70523 5.55045C7.8204 5.45188 7.96943 5.40202 8.12073 5.41143C8.27204 5.42085 8.41373 5.48879 8.51581 5.60087C8.61788 5.71295 8.67231 5.86037 8.66757 6.01189C8.66282 6.16342 8.59928 6.30714 8.4904 6.41262L7.46665 7.34304L8.08265 8.58787C8.15004 8.72643 8.15988 8.88602 8.11002 9.03181C8.06015 9.1776 7.95464 9.29774 7.8165 9.366C7.67836 9.43426 7.51883 9.44509 7.37274 9.39614C7.22664 9.34718 7.10585 9.24241 7.03673 9.1047L6.39798 7.81379L5.25231 8.04537C5.10406 8.06832 4.95266 8.03327 4.82958 7.9475C4.70649 7.86174 4.62118 7.73185 4.59137 7.58482C4.56156 7.43779 4.58954 7.28493 4.6695 7.158C4.74945 7.03106 4.87524 6.93981 5.02073 6.9032L5.86306 6.73287L5.39873 5.79545L3.62598 6.06204C3.5488 6.07691 3.4694 6.07603 3.39257 6.05945C3.31574 6.04288 3.24304 6.01094 3.17886 5.96557C3.11468 5.92019 3.06033 5.86232 3.01907 5.79541C2.97781 5.72851 2.95051 5.65395 2.93879 5.57623C2.92706 5.49851 2.93117 5.41922 2.95086 5.34312C2.97055 5.26702 3.00541 5.19569 3.05336 5.13341C3.10131 5.07112 3.16135 5.01917 3.22988 4.98067C3.29841 4.94217 3.37401 4.91792 3.45214 4.90937L4.85564 4.6982L4.40006 3.77712C4.33178 3.63855 4.32126 3.47855 4.3708 3.33223C4.42034 3.18591 4.5259 3.06521 4.66431 2.99662Z" fill="#666666"/>
<path fill-rule="evenodd" clip-rule="evenodd" d="M11.0796 11.4056L10.7833 11.3478C10.6777 11.06 10.6007 10.7624 10.5535 10.4594L10.5447 10.4244C10.4852 10.1812 10.4455 9.96709 10.442 9.80609C10.4293 9.18175 10.5487 8.56176 10.7923 7.98675C11.0358 7.41174 11.3982 6.89468 11.8555 6.46942C11.8912 6.43559 11.9276 6.40623 11.9645 6.38134C13.14 5.33134 14.7838 5.14876 16.0566 6.19059C16.042 4.76026 16.6225 3.36259 18.0283 2.55176L18.5212 3.40459C17.3306 4.09117 16.8879 5.37626 17.085 6.75001C19.8005 5.85751 21.9139 8.42592 21.1205 11.3828C20.8752 12.2903 20.3564 13.1003 19.6348 13.7028L19.279 13.5785C18.2249 13.2128 16.8978 12.77 15.8373 12.4778C14.806 12.1931 13.4789 11.8985 12.4172 11.6768C11.9719 11.5838 11.526 11.4933 11.0796 11.4056ZM18.9068 8.65867C19.0586 8.62922 19.2158 8.66121 19.344 8.74762C19.4722 8.83402 19.5608 8.96778 19.5905 9.11951C19.6972 9.65098 19.6555 10.2016 19.47 10.7109C19.2845 11.2203 18.9623 11.6687 18.5387 12.007C18.4187 12.1045 18.2648 12.1503 18.111 12.1343C17.9572 12.1183 17.816 12.0419 17.7185 11.9218C17.6211 11.8018 17.5753 11.6479 17.5913 11.4941C17.6072 11.3403 17.6837 11.1991 17.8037 11.1017C18.0627 10.8961 18.2597 10.6229 18.373 10.3123C18.4863 10.0017 18.5113 9.66575 18.4454 9.34176C18.4163 9.19017 18.4484 9.03323 18.5348 8.9053C18.6212 8.77738 18.7547 8.6889 18.9062 8.65926M2.97129 21.499C4.72129 21.4016 5.80396 20.904 6.47129 20.1754C6.73671 20.5313 7.18179 20.7378 7.66362 20.6619C8.26735 20.5666 8.86979 20.4634 9.47079 20.3522V17.6193H10.7716V20.1008C12.4166 19.7683 14.4175 19.3115 16.623 18.6973V16.97H17.9239V18.3233C18.8123 18.0591 19.7275 17.7703 20.6603 17.4553C20.9035 17.3812 21.1164 17.2308 21.2677 17.0265C21.4189 16.8222 21.5006 16.5747 21.5006 16.3205C21.5006 16.0662 21.4189 15.8187 21.2677 15.6144C21.1164 15.4101 20.9035 15.2598 20.6603 15.1856C18.4762 14.4499 16.2614 13.809 14.022 13.2647V16.97H12.7217V12.9584C10.5692 12.4696 8.80754 12.1593 7.66362 11.9784C7.43932 11.9422 7.20938 11.9686 6.99904 12.0545C6.78871 12.1404 6.60611 12.2826 6.47129 12.4655C5.80396 11.7363 4.72129 11.2388 2.97129 11.1413C2.88635 11.1373 2.80149 11.1508 2.72198 11.181C2.64248 11.2112 2.57002 11.2574 2.50913 11.3167C2.44824 11.3761 2.40021 11.4473 2.36802 11.526C2.33584 11.6048 2.32019 11.6892 2.32204 11.7743C2.33721 12.8318 2.40196 13.6718 2.62246 14.3269C1.90787 14.5976 1.23412 15.1436 0.618125 15.9655C0.460625 16.1755 0.460625 16.4654 0.618125 16.6754C1.22888 17.4903 1.89737 18.0346 2.60496 18.307C2.41712 18.9428 2.34246 19.777 2.32321 20.8643C2.32112 20.9494 2.33655 21.0339 2.36852 21.1127C2.40049 21.1915 2.44832 21.2628 2.50905 21.3224C2.56978 21.3819 2.6421 21.4283 2.72152 21.4587C2.80094 21.4891 2.88576 21.5028 2.97071 21.499M4.25346 15.0987L3.08271 15.542C2.75837 15.6645 2.39437 15.9043 2.00937 16.3202C2.39029 16.732 2.75079 16.9712 3.07221 17.0948L4.19104 17.5259L3.85154 18.6745C3.75179 19.0128 3.68471 19.476 3.64912 20.1258C4.90329 19.9333 5.43296 19.4684 5.70654 19.0455C6.10029 18.4371 6.21871 17.5493 6.21871 16.3202C6.21871 15.0911 6.10029 14.2038 5.70654 13.5954C5.43237 13.1719 4.90154 12.707 3.64562 12.5139C3.67887 13.1439 3.74479 13.5861 3.85446 13.9133L4.25346 15.0987Z" fill="#666666"/>
</svg>
