<svg width="19" height="20" viewBox="0 0 19 20" fill="none" xmlns="http://www.w3.org/2000/svg">
<path d="M13.3965 0L18.3965 5V19.008C18.3962 19.2712 18.2915 19.5235 18.1053 19.7095C17.9191 19.8955 17.6667 20 17.4035 20H1.38948C1.12686 19.9982 0.875502 19.8931 0.689702 19.7075C0.503902 19.5219 0.398579 19.2706 0.396484 19.008V0.992C0.396484 0.444 0.841484 0 1.38948 0H13.3965ZM12.3965 9.667L7.51848 6.414C7.45823 6.3738 7.38819 6.35071 7.31584 6.34721C7.24349 6.3437 7.17155 6.35991 7.10769 6.3941C7.04383 6.42829 6.99046 6.47917 6.95326 6.54132C6.91606 6.60348 6.89644 6.67457 6.89648 6.747V13.252C6.89644 13.3244 6.91606 13.3955 6.95326 13.4577C6.99046 13.5198 7.04383 13.5707 7.10769 13.6049C7.17155 13.6391 7.24349 13.6553 7.31584 13.6518C7.38819 13.6483 7.45823 13.6252 7.51848 13.585L12.3965 10.333C12.4511 10.2963 12.4959 10.2468 12.5269 10.1887C12.5579 10.1306 12.5741 10.0658 12.5741 10C12.5741 9.93418 12.5579 9.86938 12.5269 9.8113C12.4959 9.75323 12.4511 9.70367 12.3965 9.667Z" fill="#262625"/>
</svg>
