<svg width="54" height="60" viewBox="0 0 54 60" fill="none" xmlns="http://www.w3.org/2000/svg">
<path d="M31 41.998C31.5523 41.998 32 41.5503 32 40.998C32 40.4458 31.5523 39.998 31 39.998C30.4477 39.998 30 40.4458 30 40.998C30 41.5503 30.4477 41.998 31 41.998Z" fill="#8B8D91"/>
<path d="M27 21.998C26.4477 21.998 26 22.4458 26 22.998V25.998C26 26.5503 26.4477 26.998 27 26.998C27.5523 26.998 28 26.5503 28 25.998V22.998C28 22.4458 27.5523 21.998 27 21.998Z" fill="#8B8D91"/>
<path d="M1.2928 18.7051L6.5248 23.9371C4.5998 30.6691 2.6418 36.1231 1.6478 41.8831C1.6478 41.8901 1.6408 41.8941 1.6388 41.9011C1.6308 41.9281 1.6388 41.9551 1.6318 41.9831C0.642155 47.4616 0.842691 53.0889 2.2198 58.4831C2.452 59.3712 3.25183 59.9926 4.1698 59.9981H49.9098C50.8307 60.0002 51.6348 59.3751 51.8598 58.4821C55.1598 45.3671 51.2118 36.7621 47.5348 23.8771L52.7068 18.7051C52.8932 18.5168 52.9984 18.263 52.9998 17.9981V10.9981C52.9998 9.8935 52.1044 8.99807 50.9998 8.99807H45.0068C44.9396 6.8087 45.1455 4.6195 45.6198 2.48107C45.7709 1.88367 45.6374 1.24997 45.258 0.764399C44.8786 0.278825 44.296 -0.00406336 43.6798 -0.00193325H10.3998C9.78256 -0.00468795 9.19895 0.278992 8.8198 0.766067C7.6998 2.20807 9.1678 2.48407 9.0728 8.99807H2.9998C1.89523 8.99807 0.999801 9.8935 0.999801 10.9981C0.999801 18.4401 0.886801 18.2981 1.2928 18.7051ZM4.4138 18.9981H7.8138C7.6078 19.9191 7.3908 20.8261 7.1448 21.7301L4.4138 18.9981ZM3.4138 43.4351C6.26496 44.1462 9.15567 44.6882 12.0708 45.0581C10.1998 49.3491 6.3998 51.0461 3.1168 51.6761C2.90495 48.9266 3.00392 46.162 3.4138 43.4351ZM25.9998 57.9981H4.1598C3.80234 56.5727 3.52491 55.1284 3.3288 53.6721C6.7898 53.0291 11.8808 51.0811 14.1218 45.3101C18.0669 45.7398 22.0315 45.9662 25.9998 45.9881V57.9981ZM25.9998 43.9881C18.5082 44.0432 11.0373 43.1927 3.7498 41.4551C4.1028 39.5981 4.5608 37.7391 5.0878 35.8371C11.9646 37.28 18.9732 38.0016 25.9998 37.9901V43.9881ZM49.9098 57.9981H27.9998V55.9981H28.9998C31.7599 55.9948 33.9965 53.7581 33.9998 50.9981V45.7981C36.1328 45.6771 38.0998 45.5111 39.8808 45.3131C42.1318 51.1221 47.2578 53.0581 50.7438 53.6881C50.5465 55.1392 50.2681 56.5781 49.9098 57.9981ZM27.9998 53.9981V45.9921C29.3888 45.9821 30.7268 45.9491 31.9998 45.8921V50.9981C31.9998 52.6549 30.6567 53.9981 28.9998 53.9981H27.9998ZM50.9588 51.6911C47.6468 51.0761 43.8168 49.3851 41.9288 45.0571C44.8704 44.686 47.787 44.1384 50.6628 43.4171C51.0755 46.1549 51.1748 48.9308 50.9588 51.6911ZM50.3268 41.4371C43.0107 43.1627 35.5167 44.0203 27.9998 43.9921V37.9921C35.0527 38.0051 42.0873 37.2764 48.9878 35.8181C49.5148 37.7201 49.9728 39.5791 50.3268 41.4371ZM48.4378 33.8911C46.7738 34.2631 44.5018 34.6911 41.6638 35.0731C42.2111 34.1871 42.6049 33.2151 42.8288 32.1981C42.9089 31.8453 42.7922 31.4768 42.5237 31.2344C42.2551 30.9921 41.8767 30.9136 41.5339 31.0292C41.1912 31.1448 40.9376 31.4366 40.8708 31.7921C40.5579 33.1398 39.8957 34.3814 38.9508 35.3921C31.0045 36.1981 22.9971 36.1981 15.0508 35.3921C14.1063 34.3811 13.4441 33.1396 13.1308 31.7921C13.0102 31.2606 12.4862 30.9236 11.9526 31.0342C11.4189 31.1449 11.0722 31.6624 11.1728 32.1981C11.397 33.2141 11.7908 34.185 12.3378 35.0701C9.5378 34.6981 7.2898 34.2701 5.6378 33.9071C7.0498 29.0811 8.8628 23.6041 9.8628 18.9981H44.2168C45.2368 23.6981 46.9318 28.7551 48.4378 33.8911ZM46.9168 21.6671C46.6778 20.7811 46.4658 19.8951 46.2648 18.9981H49.5858L46.9168 21.6671ZM43.6778 1.99807C43.1647 4.29455 42.9393 6.64594 43.0068 8.99807H11.0728C11.1402 6.64583 10.9141 4.29437 10.3998 1.99807H43.6778ZM2.9998 10.9981H50.9998V16.9981H47.9998V14.9981C47.9998 14.4458 47.5521 13.9981 46.9998 13.9981C46.4475 13.9981 45.9998 14.4458 45.9998 14.9981V16.9981H42.9998V14.9981C42.9998 14.4458 42.5521 13.9981 41.9998 13.9981C41.4475 13.9981 40.9998 14.4458 40.9998 14.9981V16.9981H37.9998V14.9981C37.9998 14.4458 37.5521 13.9981 36.9998 13.9981C36.4475 13.9981 35.9998 14.4458 35.9998 14.9981V16.9981H32.9998V14.9981C32.9998 14.4458 32.5521 13.9981 31.9998 13.9981C31.4475 13.9981 30.9998 14.4458 30.9998 14.9981V16.9981H27.9998V14.9981C27.9998 14.4458 27.5521 13.9981 26.9998 13.9981C26.4475 13.9981 25.9998 14.4458 25.9998 14.9981V16.9981H22.9998V14.9981C22.9998 14.4458 22.5521 13.9981 21.9998 13.9981C21.4475 13.9981 20.9998 14.4458 20.9998 14.9981V16.9981H17.9998V14.9981C17.9998 14.4458 17.5521 13.9981 16.9998 13.9981C16.4475 13.9981 15.9998 14.4458 15.9998 14.9981V16.9981H12.9998V14.9981C12.9998 14.4458 12.5521 13.9981 11.9998 13.9981C11.4475 13.9981 10.9998 14.4458 10.9998 14.9981V16.9981H7.9998V14.9981C7.9998 14.4458 7.55209 13.9981 6.9998 13.9981C6.44752 13.9981 5.9998 14.4458 5.9998 14.9981V16.9981H2.9998V10.9981Z" fill="#8B8D91"/>
</svg>
