<svg width="54" height="40" viewBox="0 0 54 40" fill="none" xmlns="http://www.w3.org/2000/svg">
<rect width="53.1667" height="40" transform="translate(0.833008)" fill="white"/>
<path d="M18.003 20.92V25.4733C18.003 25.7456 17.8949 26.0068 17.7023 26.1993C17.5098 26.3918 17.2486 26.5 16.9763 26.5H15.7697C15.6343 26.5009 15.5001 26.475 15.3747 26.4238C15.2494 26.3726 15.1354 26.2971 15.0394 26.2017C14.9434 26.1062 14.8671 25.9928 14.8151 25.8678C14.7631 25.7428 14.7363 25.6087 14.7363 25.4733V20.92C14.7355 20.7841 14.7616 20.6493 14.8132 20.5235C14.8648 20.3977 14.9409 20.2835 15.037 20.1873C15.1332 20.0912 15.2474 20.0151 15.3732 19.9635C15.499 19.9119 15.6337 19.8858 15.7697 19.8867H16.9763C17.1117 19.8867 17.2458 19.9134 17.3708 19.9654C17.4958 20.0175 17.6093 20.0937 17.7047 20.1897C17.8001 20.2858 17.8756 20.3997 17.9268 20.5251C17.978 20.6504 18.0039 20.7846 18.003 20.92ZM22.4697 14.5333V25.4733C22.4697 25.6087 22.4429 25.7428 22.3909 25.8678C22.3389 25.9928 22.2627 26.1062 22.1666 26.2017C22.0706 26.2971 21.9566 26.3726 21.8313 26.4238C21.706 26.475 21.5717 26.5009 21.4363 26.5H20.2297C19.9568 26.5 19.695 26.3921 19.5014 26.1997C19.3078 26.0074 19.1981 25.7462 19.1963 25.4733V14.5333C19.1981 14.2598 19.3075 13.998 19.5009 13.8046C19.6943 13.6112 19.9562 13.5017 20.2297 13.5H21.4363C21.7104 13.5 21.9732 13.6089 22.167 13.8027C22.3608 13.9964 22.4697 14.2593 22.4697 14.5333ZM26.9297 17.9867V25.4733C26.9297 25.7456 26.8215 26.0068 26.629 26.1993C26.4364 26.3918 26.1753 26.5 25.903 26.5H24.6963C24.561 26.5009 24.4267 26.475 24.3014 26.4238C24.1761 26.3726 24.0621 26.2971 23.9661 26.2017C23.87 26.1062 23.7938 25.9928 23.7418 25.8678C23.6898 25.7428 23.663 25.6087 23.663 25.4733V17.9867C23.663 17.851 23.6897 17.7166 23.7417 17.5912C23.7936 17.4659 23.8697 17.3519 23.9657 17.256C24.0616 17.16 24.1755 17.0839 24.3009 17.032C24.4263 16.9801 24.5606 16.9533 24.6963 16.9533H25.9297C26.1979 16.962 26.4523 17.0747 26.6389 17.2675C26.8255 17.4604 26.9298 17.7183 26.9297 17.9867Z" fill="#8B8D91"/>
<path d="M41.8775 21.7886L37.7111 17.6222C37.6724 17.5835 37.6265 17.5527 37.5759 17.5318C37.5253 17.5108 37.4711 17.5 37.4164 17.5C37.3616 17.5 37.3074 17.5108 37.2568 17.5318C37.2062 17.5527 37.1603 17.5835 37.1216 17.6222L32.9552 21.7886C32.8969 21.8469 32.8571 21.9211 32.841 22.002C32.8249 22.0829 32.8332 22.1667 32.8647 22.2428C32.8963 22.319 32.9498 22.3841 33.0183 22.4299C33.0869 22.4757 33.1675 22.5001 33.25 22.5H41.5828C41.6652 22.5001 41.7458 22.4757 41.8144 22.4299C41.883 22.3841 41.9364 22.319 41.968 22.2428C41.9996 22.1667 42.0078 22.0829 41.9917 22.002C41.9756 21.9211 41.9359 21.8469 41.8775 21.7886Z" fill="#8B8D91"/>
</svg>
