<svg width="60" height="60" viewBox="0 0 60 60" fill="none" xmlns="http://www.w3.org/2000/svg">
<path d="M51.25 5H8.75C7.75544 5 6.80161 5.39509 6.09835 6.09835C5.39509 6.80161 5 7.75544 5 8.75V51.25C5 52.2446 5.39509 53.1984 6.09835 53.9016C6.80161 54.6049 7.75544 55 8.75 55H51.25C52.2446 55 53.1984 54.6049 53.9016 53.9016C54.6049 53.1984 55 52.2446 55 51.25V8.75C55 7.75544 54.6049 6.80161 53.9016 6.09835C53.1984 5.39509 52.2446 5 51.25 5Z" stroke="#8B8D91" stroke-width="2.5" stroke-linejoin="round"/>
<path d="M15 23.8184C19.1558 18.8184 24.1558 16.3184 30 16.3184C35.8433 16.3184 40.8433 18.8184 45 23.8184" stroke="#8B8D91" stroke-width="2.5" stroke-linecap="round"/>
<path d="M30 38.75C30.9946 38.75 31.9484 38.3549 32.6517 37.6517C33.3549 36.9484 33.75 35.9946 33.75 35C33.75 34.0054 33.3549 33.0516 32.6517 32.3483C31.9484 31.6451 30.9946 31.25 30 31.25C29.0054 31.25 28.0516 31.6451 27.3483 32.3483C26.6451 33.0516 26.25 34.0054 26.25 35C26.25 35.9946 26.6451 36.9484 27.3483 37.6517C28.0516 38.3549 29.0054 38.75 30 38.75Z" fill="#8B8D91"/>
<path d="M23.75 26.25L30.01 35" stroke="#8B8D91" stroke-width="2.5" stroke-linecap="round"/>
</svg>
