<svg width="602" height="189" viewBox="0 0 602 189" fill="none" xmlns="http://www.w3.org/2000/svg">
<path d="M2.62125 10.16H6.35325V11H0.84525V10.76L3.66525 7.76C4.62525 6.752 5.05725 6.152 5.05725 5.396C5.05725 4.52 4.45725 3.812 3.53325 3.812C3.05325 3.812 2.66925 3.968 2.38125 4.292C2.09325 4.616 1.94925 5 1.94925 5.444C1.94925 5.672 1.97325 5.888 2.02125 6.104H1.06125C1.00125 5.888 0.97725 5.66 0.97725 5.408C0.97725 4.148 1.98525 2.948 3.53325 2.948C4.98525 2.948 6.02925 4.004 6.02925 5.348C6.02925 5.72 5.95725 6.068 5.80125 6.404C5.50125 7.076 5.09325 7.556 4.37325 8.312L2.62125 10.16ZM12.9961 5.624C12.9961 5.936 12.9481 6.224 12.8521 6.5C12.7681 6.764 12.6601 6.992 12.5281 7.196C12.4081 7.4 12.2041 7.712 11.9041 8.144L9.93609 11H8.83209L10.8481 8.096C10.6561 8.168 10.4281 8.204 10.1761 8.204C8.79609 8.204 7.59609 7.064 7.59609 5.612C7.59609 4.1 8.82009 2.948 10.3081 2.948C11.7841 2.948 12.9961 4.1 12.9961 5.624ZM12.0721 5.6C12.0721 4.58 11.3161 3.8 10.3081 3.8C9.30009 3.8 8.52009 4.58 8.52009 5.6C8.52009 6.608 9.30009 7.412 10.3081 7.412C11.3161 7.412 12.0721 6.608 12.0721 5.6ZM17.9888 11V5.156H18.9128V11H17.9888ZM17.7607 2.924C17.7607 2.552 18.0728 2.252 18.4568 2.252C18.8288 2.252 19.1408 2.552 19.1408 2.924C19.1408 3.308 18.8408 3.596 18.4568 3.596C18.0728 3.596 17.7607 3.308 17.7607 2.924ZM25.7779 7.328V11H24.8539V7.436C24.8539 6.512 24.3019 5.876 23.4019 5.876C22.5019 5.876 21.8659 6.524 21.8659 7.436V11H20.9419V5.156H21.8059V5.78C22.2379 5.3 22.8739 5.024 23.6059 5.024C24.9619 5.024 25.7779 5.948 25.7779 7.328Z" fill="#333333"/>
<path d="M2.45719 44.41H6.18919V45.25H0.681188V45.01L3.50119 42.01C4.46119 41.002 4.89319 40.402 4.89319 39.646C4.89319 38.77 4.29319 38.062 3.36919 38.062C2.88919 38.062 2.50519 38.218 2.21719 38.542C1.92919 38.866 1.78519 39.25 1.78519 39.694C1.78519 39.922 1.80919 40.138 1.85719 40.354H0.897188C0.837188 40.138 0.813188 39.91 0.813188 39.658C0.813188 38.398 1.82119 37.198 3.36919 37.198C4.82119 37.198 5.86519 38.254 5.86519 39.598C5.86519 39.97 5.79319 40.318 5.63719 40.654C5.33719 41.326 4.92919 41.806 4.20919 42.562L2.45719 44.41ZM13.072 43.234C13.072 44.506 11.968 45.382 10.3 45.382C8.63203 45.382 7.50403 44.506 7.50403 43.222C7.50403 42.25 8.12803 41.554 9.38803 41.11C8.42803 40.666 7.87603 40.066 7.87603 39.166C7.87603 38.554 8.10403 38.074 8.56003 37.726C9.02803 37.378 9.60403 37.198 10.3 37.198C10.984 37.198 11.548 37.378 12.004 37.726C12.472 38.074 12.7 38.554 12.7 39.166C12.7 40.018 12.196 40.654 11.188 41.098C12.448 41.566 13.072 42.286 13.072 43.234ZM10.288 40.666C11.296 40.27 11.776 39.886 11.776 39.202C11.776 38.446 11.164 38.002 10.3 38.002C9.42403 38.002 8.80003 38.446 8.80003 39.202C8.80003 39.874 9.28003 40.246 10.288 40.666ZM12.124 43.198C12.124 42.37 11.5 41.974 10.3 41.542C9.08803 41.974 8.45203 42.382 8.45203 43.198C8.45203 44.026 9.13603 44.578 10.3 44.578C11.464 44.578 12.124 44.026 12.124 43.198ZM18.1528 45.25V39.406H19.0768V45.25H18.1528ZM17.9248 37.174C17.9248 36.802 18.2368 36.502 18.6208 36.502C18.9928 36.502 19.3048 36.802 19.3048 37.174C19.3048 37.558 19.0048 37.846 18.6208 37.846C18.2368 37.846 17.9248 37.558 17.9248 37.174ZM25.9419 41.578V45.25H25.0179V41.686C25.0179 40.762 24.4659 40.126 23.5659 40.126C22.6659 40.126 22.0299 40.774 22.0299 41.686V45.25H21.1059V39.406H21.9699V40.03C22.4019 39.55 23.0379 39.274 23.7699 39.274C25.1259 39.274 25.9419 40.198 25.9419 41.578Z" fill="#333333"/>
<path d="M2.42008 78.66H6.15208V79.5H0.644078V79.26L3.46408 76.26C4.42408 75.252 4.85608 74.652 4.85608 73.896C4.85608 73.02 4.25608 72.312 3.33208 72.312C2.85208 72.312 2.46808 72.468 2.18008 72.792C1.89208 73.116 1.74808 73.5 1.74808 73.944C1.74808 74.172 1.77208 74.388 1.82008 74.604H0.860078C0.800078 74.388 0.776078 74.16 0.776078 73.908C0.776078 72.648 1.78408 71.448 3.33208 71.448C4.78408 71.448 5.82808 72.504 5.82808 73.848C5.82808 74.22 5.75608 74.568 5.60008 74.904C5.30008 75.576 4.89208 76.056 4.17208 76.812L2.42008 78.66ZM7.21492 71.58H12.5069V71.856L8.49892 79.5H7.47892L11.2469 72.42H7.21492V71.58ZM17.1899 79.5V73.656H18.1139V79.5H17.1899ZM16.9619 71.424C16.9619 71.052 17.2739 70.752 17.6579 70.752C18.0299 70.752 18.3419 71.052 18.3419 71.424C18.3419 71.808 18.0419 72.096 17.6579 72.096C17.2739 72.096 16.9619 71.808 16.9619 71.424ZM24.979 75.828V79.5H24.055V75.936C24.055 75.012 23.503 74.376 22.603 74.376C21.703 74.376 21.067 75.024 21.067 75.936V79.5H20.143V73.656H21.007V74.28C21.439 73.8 22.075 73.524 22.807 73.524C24.163 73.524 24.979 74.448 24.979 75.828Z" fill="#333333"/>
<path d="M2.62125 112.91H6.35325V113.75H0.84525V113.51L3.66525 110.51C4.62525 109.502 5.05725 108.902 5.05725 108.146C5.05725 107.27 4.45725 106.562 3.53325 106.562C3.05325 106.562 2.66925 106.718 2.38125 107.042C2.09325 107.366 1.94925 107.75 1.94925 108.194C1.94925 108.422 1.97325 108.638 2.02125 108.854H1.06125C1.00125 108.638 0.97725 108.41 0.97725 108.158C0.97725 106.898 1.98525 105.698 3.53325 105.698C4.98525 105.698 6.02925 106.754 6.02925 108.098C6.02925 108.47 5.95725 108.818 5.80125 109.154C5.50125 109.826 5.09325 110.306 4.37325 111.062L2.62125 112.91ZM12.9961 111.218C12.9961 112.73 11.7961 113.882 10.2961 113.882C8.80809 113.882 7.59609 112.73 7.59609 111.206C7.59609 110.798 7.66809 110.438 7.81209 110.114C7.96809 109.79 8.19609 109.394 8.52009 108.926C8.60409 108.83 8.64009 108.746 8.68809 108.686L10.6561 105.83H11.7721L9.75609 108.734C9.94809 108.662 10.1641 108.626 10.4161 108.626C11.8201 108.626 12.9961 109.766 12.9961 111.218ZM12.0721 111.218C12.0721 110.222 11.2921 109.418 10.2961 109.418C9.30009 109.418 8.52009 110.222 8.52009 111.218C8.52009 112.226 9.30009 113.03 10.2961 113.03C11.2921 113.03 12.0721 112.226 12.0721 111.218ZM17.9888 113.75V107.906H18.9128V113.75H17.9888ZM17.7607 105.674C17.7607 105.302 18.0728 105.002 18.4568 105.002C18.8288 105.002 19.1408 105.302 19.1408 105.674C19.1408 106.058 18.8408 106.346 18.4568 106.346C18.0728 106.346 17.7607 106.058 17.7607 105.674ZM25.7779 110.078V113.75H24.8539V110.186C24.8539 109.262 24.3019 108.626 23.4019 108.626C22.5019 108.626 21.8659 109.274 21.8659 110.186V113.75H20.9419V107.906H21.8059V108.53C22.2379 108.05 22.8739 107.774 23.6059 107.774C24.9619 107.774 25.7779 108.698 25.7779 110.078Z" fill="#333333"/>
<path d="M2.59781 147.16H6.32981V148H0.821813V147.76L3.64181 144.76C4.60181 143.752 5.03381 143.152 5.03381 142.396C5.03381 141.52 4.43381 140.812 3.50981 140.812C3.02981 140.812 2.64581 140.968 2.35781 141.292C2.06981 141.616 1.92581 142 1.92581 142.444C1.92581 142.672 1.94981 142.888 1.99781 143.104H1.03781C0.977813 142.888 0.953813 142.66 0.953813 142.408C0.953813 141.148 1.96181 139.948 3.50981 139.948C4.96181 139.948 6.00581 141.004 6.00581 142.348C6.00581 142.72 5.93381 143.068 5.77781 143.404C5.47781 144.076 5.06981 144.556 4.34981 145.312L2.59781 147.16ZM12.9847 145.492C12.9847 147.088 11.6647 148.132 10.1767 148.132C8.91666 148.132 7.98066 147.46 7.44066 146.5L8.08866 146.02C8.58066 146.776 9.21666 147.268 10.1647 147.268C11.2327 147.268 12.0127 146.56 12.0127 145.504C12.0127 144.46 11.2927 143.86 9.99666 143.86H8.20866V140.08H12.5407V140.92H9.14466V143.14C9.51666 143.08 9.88866 143.044 10.2727 143.044C11.7367 143.044 12.9847 143.86 12.9847 145.492ZM18.0122 148V142.156H18.9362V148H18.0122ZM17.7842 139.924C17.7842 139.552 18.0962 139.252 18.4802 139.252C18.8522 139.252 19.1642 139.552 19.1642 139.924C19.1642 140.308 18.8642 140.596 18.4802 140.596C18.0962 140.596 17.7842 140.308 17.7842 139.924ZM25.8013 144.328V148H24.8773V144.436C24.8773 143.512 24.3253 142.876 23.4253 142.876C22.5253 142.876 21.8893 143.524 21.8893 144.436V148H20.9653V142.156H21.8293V142.78C22.2613 142.3 22.8973 142.024 23.6293 142.024C24.9853 142.024 25.8013 142.948 25.8013 144.328Z" fill="#333333"/>
<rect x="58.0417" y="91" width="5" height="62" rx="2.5" fill="#262625"/>
<rect x="105.125" y="46" width="5" height="107" rx="2.5" fill="#262625"/>
<rect x="152.208" y="46" width="5" height="107" rx="2.5" fill="#262625"/>
<rect x="199.292" y="31" width="5" height="122" rx="2.5" fill="#262625"/>
<rect x="246.375" y="46" width="5" height="107" rx="2.5" fill="#262625"/>
<rect x="293.458" y="57" width="5" height="96" rx="2.5" fill="#262625"/>
<rect x="340.542" y="57" width="5" height="96" rx="2.5" fill="#262625"/>
<rect x="387.625" y="46" width="5" height="107" rx="2.5" fill="#262625"/>
<rect x="434.708" width="5" height="153" rx="2.5" fill="#262625"/>
<rect x="481.792" y="22" width="5" height="131" rx="2.5" fill="#262625"/>
<rect x="528.875" width="5" height="153" rx="2.5" fill="#262625"/>
<rect x="575.958" y="1" width="5" height="152" rx="2.5" fill="#F5F5F5"/>
<path d="M52.0523 184V183.196C52.3763 183.244 52.6643 183.268 52.9163 183.268C53.7683 183.268 54.2243 182.98 54.2243 182.08V176.08H55.1603V182.164C55.1603 183.496 54.3803 184.132 53.0963 184.132C52.7843 184.132 52.4363 184.084 52.0523 184ZM61.5823 180.4V184H60.7183V183.244C60.2863 183.82 59.6023 184.132 58.7503 184.132C57.5503 184.132 56.7103 183.496 56.7103 182.488C56.7103 181.492 57.5503 180.856 58.8103 180.856H60.6583V180.352C60.6583 179.392 60.1183 178.876 59.2423 178.876C58.5343 178.876 58.0183 179.188 57.5383 179.812L56.9263 179.308C57.4543 178.444 58.3303 178.024 59.3023 178.024C60.6823 178.024 61.5823 178.864 61.5823 180.4ZM60.6583 181.756V181.612H58.9183C58.1023 181.612 57.6583 181.9 57.6583 182.44C57.6583 183.028 58.1863 183.364 58.8703 183.364C59.8303 183.364 60.6583 182.656 60.6583 181.756ZM68.3781 180.328V184H67.4541V180.436C67.4541 179.512 66.9021 178.876 66.0021 178.876C65.1021 178.876 64.4661 179.524 64.4661 180.436V184H63.5421V178.156H64.4061V178.78C64.8381 178.3 65.4741 178.024 66.2061 178.024C67.5621 178.024 68.3781 178.948 68.3781 180.328Z" fill="#6A6A6A"/>
<path d="M98.5334 184V176.08H103.489V176.92H99.4694V179.644H102.805V180.496H99.4694V184H98.5334ZM109.551 181.36H104.931C105.039 182.512 105.927 183.28 107.079 183.28C107.739 183.28 108.339 183.016 108.867 182.488L109.407 183.112C108.795 183.748 107.991 184.132 107.067 184.132C105.327 184.132 103.971 182.8 103.971 181.084C103.971 179.392 105.291 178.024 106.959 178.024C108.471 178.024 109.623 179.116 109.623 180.664C109.623 180.892 109.599 181.12 109.551 181.36ZM104.967 180.544H108.675C108.663 179.5 107.907 178.864 106.935 178.864C105.963 178.864 105.171 179.536 104.967 180.544ZM117.211 181.084C117.211 182.8 115.975 184.132 114.331 184.132C113.419 184.132 112.555 183.736 112.111 183.076V184H111.247V175H112.171V179.008C112.639 178.396 113.443 178.024 114.319 178.024C115.963 178.024 117.211 179.368 117.211 181.084ZM116.263 181.072C116.263 179.812 115.375 178.876 114.187 178.876C113.107 178.876 112.159 179.596 112.159 181.084C112.159 182.56 113.143 183.28 114.187 183.28C115.375 183.28 116.263 182.332 116.263 181.072Z" fill="#6A6A6A"/>
<path d="M152.712 175.948H153.036V184H152.1V178.324L149.568 181.756H149.232L146.688 178.3V184H145.752V175.948H146.088L149.388 180.52L152.712 175.948ZM159.47 180.4V184H158.606V183.244C158.174 183.82 157.49 184.132 156.638 184.132C155.438 184.132 154.598 183.496 154.598 182.488C154.598 181.492 155.438 180.856 156.698 180.856H158.546V180.352C158.546 179.392 158.006 178.876 157.13 178.876C156.422 178.876 155.906 179.188 155.426 179.812L154.814 179.308C155.342 178.444 156.218 178.024 157.19 178.024C158.57 178.024 159.47 178.864 159.47 180.4ZM158.546 181.756V181.612H156.806C155.99 181.612 155.546 181.9 155.546 182.44C155.546 183.028 156.074 183.364 156.758 183.364C157.718 183.364 158.546 182.656 158.546 181.756ZM164.538 178.156V178.972H164.19C163.206 178.972 162.354 179.608 162.354 180.688V184H161.43V178.156H162.294V178.984C162.714 178.42 163.398 178.108 164.106 178.108C164.238 178.108 164.382 178.12 164.538 178.156Z" fill="#6A6A6A"/>
<path d="M198.436 184L197.764 182.392H193.876L193.204 184H192.22L195.652 175.948H196L199.432 184H198.436ZM197.404 181.552L195.82 177.652L194.236 181.552H197.404ZM206.789 181.072C206.789 182.788 205.541 184.132 203.897 184.132C203.033 184.132 202.229 183.772 201.749 183.16V186.16H200.825V178.156H201.689V179.092C202.133 178.42 202.985 178.024 203.897 178.024C205.565 178.024 206.789 179.356 206.789 181.072ZM205.841 181.084C205.841 179.824 204.953 178.876 203.765 178.876C202.721 178.876 201.737 179.596 201.737 181.072C201.737 182.56 202.685 183.28 203.765 183.28C204.953 183.28 205.841 182.344 205.841 181.084ZM211.515 178.156V178.972H211.167C210.183 178.972 209.331 179.608 209.331 180.688V184H208.407V178.156H209.271V178.984C209.691 178.42 210.375 178.108 211.083 178.108C211.215 178.108 211.359 178.12 211.515 178.156Z" fill="#6A6A6A"/>
<path d="M245.818 175.948H246.142V184H245.206V178.324L242.674 181.756H242.338L239.794 178.3V184H238.858V175.948H239.194L242.494 180.52L245.818 175.948ZM252.576 180.4V184H251.712V183.244C251.28 183.82 250.596 184.132 249.744 184.132C248.544 184.132 247.704 183.496 247.704 182.488C247.704 181.492 248.544 180.856 249.804 180.856H251.652V180.352C251.652 179.392 251.112 178.876 250.236 178.876C249.528 178.876 249.012 179.188 248.532 179.812L247.92 179.308C248.448 178.444 249.324 178.024 250.296 178.024C251.676 178.024 252.576 178.864 252.576 180.4ZM251.652 181.756V181.612H249.912C249.096 181.612 248.652 181.9 248.652 182.44C248.652 183.028 249.18 183.364 249.864 183.364C250.824 183.364 251.652 182.656 251.652 181.756ZM258.688 178.156H259.672L256.792 184.816C256.348 185.836 255.712 186.292 254.812 186.292C254.512 186.292 254.212 186.256 253.912 186.172V185.392C254.212 185.428 254.452 185.452 254.62 185.452C255.232 185.452 255.64 185.224 255.94 184.516L256.252 183.82L253.828 178.156H254.824L256.756 182.812L258.688 178.156Z" fill="#6A6A6A"/>
<path d="M287.281 184V183.196C287.605 183.244 287.893 183.268 288.145 183.268C288.997 183.268 289.453 182.98 289.453 182.08V176.08H290.389V182.164C290.389 183.496 289.609 184.132 288.325 184.132C288.013 184.132 287.665 184.084 287.281 184ZM292.359 181.672V178.156H293.271V181.732C293.271 182.68 293.919 183.28 294.783 183.28C295.635 183.28 296.271 182.656 296.271 181.732V178.156H297.195V181.672C297.195 183.148 296.139 184.132 294.783 184.132C293.415 184.132 292.359 183.148 292.359 181.672ZM303.982 180.328V184H303.058V180.436C303.058 179.512 302.506 178.876 301.606 178.876C300.706 178.876 300.07 179.524 300.07 180.436V184H299.146V178.156H300.01V178.78C300.442 178.3 301.078 178.024 301.81 178.024C303.166 178.024 303.982 178.948 303.982 180.328Z" fill="#6A6A6A"/>
<path d="M336.287 184V183.196C336.611 183.244 336.899 183.268 337.151 183.268C338.003 183.268 338.459 182.98 338.459 182.08V176.08H339.395V182.164C339.395 183.496 338.615 184.132 337.331 184.132C337.019 184.132 336.671 184.084 336.287 184ZM341.365 181.672V178.156H342.277V181.732C342.277 182.68 342.925 183.28 343.789 183.28C344.641 183.28 345.277 182.656 345.277 181.732V178.156H346.201V181.672C346.201 183.148 345.145 184.132 343.789 184.132C342.421 184.132 341.365 183.148 341.365 181.672ZM348.152 184V175H349.076V184H348.152Z" fill="#6A6A6A"/>
<path d="M385.645 184L384.973 182.392H381.085L380.413 184H379.429L382.861 175.948H383.209L386.641 184H385.645ZM384.613 181.552L383.029 177.652L381.445 181.552H384.613ZM387.786 181.672V178.156H388.698V181.732C388.698 182.68 389.346 183.28 390.21 183.28C391.062 183.28 391.698 182.656 391.698 181.732V178.156H392.622V181.672C392.622 183.148 391.566 184.132 390.21 184.132C388.842 184.132 387.786 183.148 387.786 181.672ZM399.313 178.156H400.189V183.436C400.189 185.212 399.073 186.292 397.345 186.292C396.205 186.292 395.257 185.824 394.597 185.164L395.137 184.516C395.797 185.092 396.445 185.44 397.321 185.44C398.533 185.44 399.265 184.744 399.265 183.484V182.968C398.797 183.58 397.969 183.94 397.093 183.94C395.449 183.94 394.225 182.68 394.225 180.988C394.225 179.308 395.449 178.024 397.093 178.024C398.017 178.024 398.869 178.42 399.313 179.092V178.156ZM399.277 180.988C399.277 179.584 398.293 178.9 397.237 178.9C396.049 178.9 395.161 179.776 395.161 181C395.161 182.236 396.049 183.088 397.237 183.088C398.305 183.088 399.277 182.404 399.277 180.988Z" fill="#6A6A6A"/>
<path d="M427.136 182.428L427.832 181.912C428.42 182.812 429.164 183.268 430.04 183.268C430.988 183.268 431.636 182.752 431.636 181.948C431.636 181.228 431.204 180.988 430.316 180.556L429.428 180.136C428.336 179.62 427.64 179.068 427.64 178.012C427.64 176.776 428.732 175.948 430.028 175.948C431.084 175.948 431.996 176.488 432.512 177.292L431.828 177.808C431.396 177.172 430.736 176.812 430.016 176.812C429.236 176.812 428.612 177.232 428.612 177.964C428.612 178.192 428.66 178.384 428.768 178.54C428.972 178.84 429.26 178.996 429.884 179.296L430.76 179.716C432.008 180.328 432.608 180.904 432.608 181.924C432.608 183.232 431.528 184.132 430.052 184.132C428.816 184.132 427.76 183.484 427.136 182.428ZM439.515 181.36H434.895C435.003 182.512 435.891 183.28 437.043 183.28C437.703 183.28 438.303 183.016 438.831 182.488L439.371 183.112C438.759 183.748 437.955 184.132 437.031 184.132C435.291 184.132 433.935 182.8 433.935 181.084C433.935 179.392 435.255 178.024 436.923 178.024C438.435 178.024 439.587 179.116 439.587 180.664C439.587 180.892 439.563 181.12 439.515 181.36ZM434.931 180.544H438.639C438.627 179.5 437.871 178.864 436.899 178.864C435.927 178.864 435.135 179.536 434.931 180.544ZM447.175 181.072C447.175 182.788 445.927 184.132 444.283 184.132C443.419 184.132 442.615 183.772 442.135 183.16V186.16H441.211V178.156H442.075V179.092C442.519 178.42 443.371 178.024 444.283 178.024C445.951 178.024 447.175 179.356 447.175 181.072ZM446.227 181.084C446.227 179.824 445.339 178.876 444.151 178.876C443.107 178.876 442.123 179.596 442.123 181.072C442.123 182.56 443.071 183.28 444.151 183.28C445.339 183.28 446.227 182.344 446.227 181.084Z" fill="#6A6A6A"/>
<path d="M474.59 180.04C474.542 177.772 476.45 175.912 478.694 175.948C480.914 175.912 482.858 177.772 482.81 180.04C482.858 182.308 480.914 184.168 478.694 184.132C476.45 184.18 474.542 182.284 474.59 180.04ZM481.838 180.028C481.874 178.24 480.446 176.776 478.706 176.812C476.918 176.812 475.562 178.192 475.562 180.028C475.562 181.864 476.918 183.268 478.706 183.268C480.446 183.292 481.874 181.84 481.838 180.028ZM483.989 181.072C483.953 179.404 485.381 178 487.049 178.024C488.069 178.024 488.933 178.516 489.461 179.296L488.801 179.824C488.333 179.188 487.745 178.876 487.061 178.876C485.849 178.876 484.937 179.86 484.937 181.072C484.937 182.296 485.849 183.28 487.061 183.28C487.745 183.28 488.321 182.968 488.789 182.344L489.449 182.86C488.921 183.64 488.069 184.132 487.049 184.132C485.357 184.132 483.989 182.764 483.989 181.072ZM494.211 183.22V184C493.839 184.084 493.515 184.132 493.239 184.132C492.027 184.132 491.271 183.52 491.271 182.236V178.984H490.287V178.156H491.271V176.56H492.195V178.156H494.019V178.984H492.195V182.176C492.195 183.004 492.627 183.292 493.431 183.292C493.659 183.292 493.911 183.268 494.211 183.22Z" fill="#6A6A6A"/>
<path d="M526.845 176.08H527.781V184.132H527.445L522.405 178.06V184H521.469V175.948H521.805L526.845 182.032V176.08ZM529.414 181.072C529.378 179.404 530.806 177.988 532.474 178.024C534.142 178 535.57 179.404 535.534 181.072C535.57 182.716 534.13 184.156 532.462 184.12C530.794 184.156 529.39 182.716 529.414 181.072ZM534.586 181.084C534.586 179.824 533.662 178.876 532.474 178.876C531.274 178.876 530.362 179.824 530.362 181.084C530.362 182.308 531.274 183.268 532.462 183.268C533.65 183.268 534.586 182.308 534.586 181.084ZM541.076 178.156H542.06L539.312 184.132H538.976L536.216 178.156H537.2L539.144 182.56L541.076 178.156Z" fill="#6A6A6A"/>
<path d="M568.652 184V176.08H571.004C573.656 176.08 575.312 177.724 575.312 180.028C575.312 182.308 573.656 184 571.004 184H568.652ZM569.588 183.16H570.992C573.08 183.16 574.34 181.828 574.34 180.028C574.34 178.204 573.092 176.92 570.992 176.92H569.588V183.16ZM582.072 181.36H577.452C577.56 182.512 578.448 183.28 579.6 183.28C580.26 183.28 580.86 183.016 581.388 182.488L581.928 183.112C581.316 183.748 580.512 184.132 579.588 184.132C577.848 184.132 576.492 182.8 576.492 181.084C576.492 179.392 577.812 178.024 579.48 178.024C580.992 178.024 582.144 179.116 582.144 180.664C582.144 180.892 582.12 181.12 582.072 181.36ZM577.488 180.544H581.196C581.184 179.5 580.428 178.864 579.456 178.864C578.484 178.864 577.692 179.536 577.488 180.544ZM583.347 181.072C583.311 179.404 584.739 178 586.407 178.024C587.427 178.024 588.291 178.516 588.819 179.296L588.159 179.824C587.691 179.188 587.103 178.876 586.419 178.876C585.207 178.876 584.295 179.86 584.295 181.072C584.295 182.296 585.207 183.28 586.419 183.28C587.103 183.28 587.679 182.968 588.147 182.344L588.807 182.86C588.279 183.64 587.427 184.132 586.407 184.132C584.715 184.132 583.347 182.764 583.347 181.072Z" fill="#6A6A6A"/>
</svg>
