<svg width="602" height="186" viewBox="0 0 602 186" fill="none" xmlns="http://www.w3.org/2000/svg">
<path d="M6.57789 8.984C6.57789 10.256 5.47389 11.132 3.80589 11.132C2.13789 11.132 1.00989 10.256 1.00989 8.972C1.00989 8 1.63389 7.304 2.89389 6.86C1.93389 6.416 1.38189 5.816 1.38189 4.916C1.38189 4.304 1.60989 3.824 2.06589 3.476C2.53389 3.128 3.10989 2.948 3.80589 2.948C4.48989 2.948 5.05389 3.128 5.50989 3.476C5.97789 3.824 6.20589 4.304 6.20589 4.916C6.20589 5.768 5.70189 6.404 4.69389 6.848C5.95389 7.316 6.57789 8.036 6.57789 8.984ZM3.79389 6.416C4.80189 6.02 5.28189 5.636 5.28189 4.952C5.28189 4.196 4.66989 3.752 3.80589 3.752C2.92989 3.752 2.30589 4.196 2.30589 4.952C2.30589 5.624 2.78589 5.996 3.79389 6.416ZM5.62989 8.948C5.62989 8.12 5.00589 7.724 3.80589 7.292C2.59389 7.724 1.95789 8.132 1.95789 8.948C1.95789 9.776 2.64189 10.328 3.80589 10.328C4.96989 10.328 5.62989 9.776 5.62989 8.948ZM10.1794 3.08H10.5274V11H9.59139V4.184L7.86339 4.724L7.63539 3.92L10.1794 3.08ZM16.2055 11V2H17.1295V11H16.2055ZM18.3415 7.724L21.1015 11H19.9135L17.2255 7.712L19.6615 5.156H20.8735L18.3415 7.724ZM26.7815 5.156H27.6575V10.436C27.6575 12.212 26.5415 13.292 24.8135 13.292C23.6735 13.292 22.7255 12.824 22.0655 12.164L22.6055 11.516C23.2655 12.092 23.9135 12.44 24.7895 12.44C26.0015 12.44 26.7335 11.744 26.7335 10.484V9.968C26.2655 10.58 25.4375 10.94 24.5615 10.94C22.9175 10.94 21.6935 9.68 21.6935 7.988C21.6935 6.308 22.9175 5.024 24.5615 5.024C25.4855 5.024 26.3375 5.42 26.7815 6.092V5.156ZM26.7455 7.988C26.7455 6.584 25.7615 5.9 24.7055 5.9C23.5175 5.9 22.6295 6.776 22.6295 8C22.6295 9.236 23.5175 10.088 24.7055 10.088C25.7735 10.088 26.7455 9.404 26.7455 7.988Z" fill="#333333"/>
<path d="M0.689531 37.33H5.98153V37.606L1.97353 45.25H0.953531L4.72153 38.17H0.689531V37.33ZM12.2812 39.874C12.2812 40.186 12.2333 40.474 12.1373 40.75C12.0533 41.014 11.9453 41.242 11.8133 41.446C11.6933 41.65 11.4893 41.962 11.1893 42.394L9.22125 45.25H8.11725L10.1333 42.346C9.94125 42.418 9.71325 42.454 9.46125 42.454C8.08125 42.454 6.88125 41.314 6.88125 39.862C6.88125 38.35 8.10525 37.198 9.59325 37.198C11.0693 37.198 12.2812 38.35 12.2812 39.874ZM11.3573 39.85C11.3573 38.83 10.6013 38.05 9.59325 38.05C8.58525 38.05 7.80525 38.83 7.80525 39.85C7.80525 40.858 8.58525 41.662 9.59325 41.662C10.6013 41.662 11.3573 40.858 11.3573 39.85ZM17.2739 45.25V36.25H18.1979V45.25H17.2739ZM19.4099 41.974L22.1699 45.25H20.9819L18.2939 41.962L20.7299 39.406H21.9419L19.4099 41.974ZM27.8498 39.406H28.7258V44.686C28.7258 46.462 27.6098 47.542 25.8818 47.542C24.7418 47.542 23.7938 47.074 23.1338 46.414L23.6738 45.766C24.3338 46.342 24.9818 46.69 25.8578 46.69C27.0698 46.69 27.8018 45.994 27.8018 44.734V44.218C27.3338 44.83 26.5058 45.19 25.6298 45.19C23.9858 45.19 22.7618 43.93 22.7618 42.238C22.7618 40.558 23.9858 39.274 25.6298 39.274C26.5538 39.274 27.4058 39.67 27.8498 40.342V39.406ZM27.8138 42.238C27.8138 40.834 26.8298 40.15 25.7738 40.15C24.5858 40.15 23.6978 41.026 23.6978 42.25C23.6978 43.486 24.5858 44.338 25.7738 44.338C26.8418 44.338 27.8138 43.654 27.8138 42.238Z" fill="#333333"/>
<path d="M0.904375 71.58H6.19638V71.856L2.18838 79.5H1.16838L4.93638 72.42H0.904375V71.58ZM6.91609 71.58H12.2081V71.856L8.20009 79.5H7.18009L10.9481 72.42H6.91609V71.58ZM12.2365 78.876C12.2365 78.444 12.5725 78.12 12.9925 78.12C13.4125 78.12 13.7485 78.444 13.7485 78.876C13.7485 79.308 13.4125 79.632 12.9925 79.632C12.5725 79.632 12.2365 79.308 12.2365 78.876ZM19.0591 79.5V70.5H19.9831V79.5H19.0591ZM21.1951 76.224L23.9551 79.5H22.7671L20.0791 76.212L22.5151 73.656H23.7271L21.1951 76.224ZM29.635 73.656H30.511V78.936C30.511 80.712 29.395 81.792 27.667 81.792C26.527 81.792 25.579 81.324 24.919 80.664L25.459 80.016C26.119 80.592 26.767 80.94 27.643 80.94C28.855 80.94 29.587 80.244 29.587 78.984V78.468C29.119 79.08 28.291 79.44 27.415 79.44C25.771 79.44 24.547 78.18 24.547 76.488C24.547 74.808 25.771 73.524 27.415 73.524C28.339 73.524 29.191 73.92 29.635 74.592V73.656ZM29.599 76.488C29.599 75.084 28.615 74.4 27.559 74.4C26.371 74.4 25.483 75.276 25.483 76.5C25.483 77.736 26.371 78.588 27.559 78.588C28.627 78.588 29.599 77.904 29.599 76.488Z" fill="#333333"/>
<path d="M0.546953 105.83H5.83895V106.106L1.83095 113.75H0.810953L4.57895 106.67H0.546953V105.83ZM11.4238 111.218C11.4238 112.73 10.2238 113.882 8.72383 113.882C7.23583 113.882 6.02383 112.73 6.02383 111.206C6.02383 110.798 6.09583 110.438 6.23983 110.114C6.39583 109.79 6.62383 109.394 6.94783 108.926C7.03183 108.83 7.06783 108.746 7.11583 108.686L9.08383 105.83H10.1998L8.18383 108.734C8.37583 108.662 8.59183 108.626 8.84383 108.626C10.2478 108.626 11.4238 109.766 11.4238 111.218ZM10.4998 111.218C10.4998 110.222 9.71983 109.418 8.72383 109.418C7.72783 109.418 6.94783 110.222 6.94783 111.218C6.94783 112.226 7.72783 113.03 8.72383 113.03C9.71983 113.03 10.4998 112.226 10.4998 111.218ZM16.4165 113.75V104.75H17.3405V113.75H16.4165ZM18.5525 110.474L21.3125 113.75H20.1245L17.4365 110.462L19.8725 107.906H21.0845L18.5525 110.474ZM26.9924 107.906H27.8684V113.186C27.8684 114.962 26.7524 116.042 25.0244 116.042C23.8844 116.042 22.9364 115.574 22.2764 114.914L22.8164 114.266C23.4764 114.842 24.1244 115.19 25.0004 115.19C26.2124 115.19 26.9444 114.494 26.9444 113.234V112.718C26.4764 113.33 25.6484 113.69 24.7724 113.69C23.1284 113.69 21.9044 112.43 21.9044 110.738C21.9044 109.058 23.1284 107.774 24.7724 107.774C25.6964 107.774 26.5484 108.17 26.9924 108.842V107.906ZM26.9564 110.738C26.9564 109.334 25.9724 108.65 24.9164 108.65C23.7284 108.65 22.8404 109.526 22.8404 110.75C22.8404 111.986 23.7284 112.838 24.9164 112.838C25.9844 112.838 26.9564 112.154 26.9564 110.738Z" fill="#333333"/>
<path d="M0.546953 140.08H5.83895V140.356L1.83095 148H0.810953L4.57895 140.92H0.546953V140.08ZM11.4238 145.468C11.4238 146.98 10.2238 148.132 8.72383 148.132C7.23583 148.132 6.02383 146.98 6.02383 145.456C6.02383 145.048 6.09583 144.688 6.23983 144.364C6.39583 144.04 6.62383 143.644 6.94783 143.176C7.03183 143.08 7.06783 142.996 7.11583 142.936L9.08383 140.08H10.1998L8.18383 142.984C8.37583 142.912 8.59183 142.876 8.84383 142.876C10.2478 142.876 11.4238 144.016 11.4238 145.468ZM10.4998 145.468C10.4998 144.472 9.71983 143.668 8.72383 143.668C7.72783 143.668 6.94783 144.472 6.94783 145.468C6.94783 146.476 7.72783 147.28 8.72383 147.28C9.71983 147.28 10.4998 146.476 10.4998 145.468ZM16.4165 148V139H17.3405V148H16.4165ZM18.5525 144.724L21.3125 148H20.1245L17.4365 144.712L19.8725 142.156H21.0845L18.5525 144.724ZM26.9924 142.156H27.8684V147.436C27.8684 149.212 26.7524 150.292 25.0244 150.292C23.8844 150.292 22.9364 149.824 22.2764 149.164L22.8164 148.516C23.4764 149.092 24.1244 149.44 25.0004 149.44C26.2124 149.44 26.9444 148.744 26.9444 147.484V146.968C26.4764 147.58 25.6484 147.94 24.7724 147.94C23.1284 147.94 21.9044 146.68 21.9044 144.988C21.9044 143.308 23.1284 142.024 24.7724 142.024C25.6964 142.024 26.5484 142.42 26.9924 143.092V142.156ZM26.9564 144.988C26.9564 143.584 25.9724 142.9 24.9164 142.9C23.7284 142.9 22.8404 143.776 22.8404 145C22.8404 146.236 23.7284 147.088 24.9164 147.088C25.9844 147.088 26.9564 146.404 26.9564 144.988Z" fill="#333333"/>
<rect x="45" y="88" width="2" height="62" rx="1" fill="#262625"/>
<rect x="53" y="114" width="2" height="36" rx="1" fill="#262625"/>
<rect x="61" y="126" width="2" height="24" rx="1" fill="#262625"/>
<rect x="69" y="106" width="2" height="44" rx="1" fill="#262625"/>
<rect x="77" y="43" width="2" height="107" rx="1" fill="#262625"/>
<rect x="85" y="54" width="2" height="96" rx="1" fill="#262625"/>
<rect x="93" y="88" width="2" height="62" rx="1" fill="#262625"/>
<rect x="101" y="57" width="2" height="93" rx="1" fill="#262625"/>
<rect x="109" y="55" width="2" height="95" rx="1" fill="#262625"/>
<rect x="117" y="74" width="2" height="76" rx="1" fill="#262625"/>
<rect x="125" y="58" width="2" height="92" rx="1" fill="#262625"/>
<rect x="133" y="56" width="2" height="94" rx="1" fill="#262625"/>
<rect x="141" y="70" width="2" height="80" rx="1" fill="#262625"/>
<rect x="149" y="88" width="2" height="62" rx="1" fill="#262625"/>
<rect x="157" y="98" width="2" height="52" rx="1" fill="#262625"/>
<rect x="165" y="79" width="2" height="71" rx="1" fill="#262625"/>
<rect x="173" y="70" width="2" height="80" rx="1" fill="#262625"/>
<rect x="181" y="67" width="2" height="83" rx="1" fill="#262625"/>
<rect x="189" y="59" width="2" height="91" rx="1" fill="#262625"/>
<rect x="197" y="92" width="2" height="58" rx="1" fill="#262625"/>
<rect x="205" y="43" width="2" height="107" rx="1" fill="#262625"/>
<rect x="213" y="43" width="2" height="107" rx="1" fill="#262625"/>
<rect x="221" y="2" width="2" height="148" rx="1" fill="#262625"/>
<rect x="229" width="2" height="150" rx="1" fill="#262625"/>
<rect x="237" y="4" width="2" height="146" rx="1" fill="#262625"/>
<rect x="245" y="2" width="2" height="148" rx="1" fill="#262625"/>
<rect x="253" y="11" width="2" height="139" rx="1" fill="#262625"/>
<rect x="261" width="2" height="150" rx="1" fill="#262625"/>
<rect x="269" y="6" width="2" height="144" rx="1" fill="#262625"/>
<rect x="277" y="4" width="2" height="146" rx="1" fill="#262625"/>
<rect x="285" y="88" width="2" height="62" rx="1" fill="#262625"/>
<rect x="293" y="114" width="2" height="36" rx="1" fill="#262625"/>
<rect x="301" y="126" width="2" height="24" rx="1" fill="#262625"/>
<rect x="309" y="106" width="2" height="44" rx="1" fill="#262625"/>
<rect x="317" y="43" width="2" height="107" rx="1" fill="#262625"/>
<rect x="325" y="54" width="2" height="96" rx="1" fill="#262625"/>
<rect x="333" y="88" width="2" height="62" rx="1" fill="#262625"/>
<rect x="341" y="57" width="2" height="93" rx="1" fill="#262625"/>
<rect x="349" y="55" width="2" height="95" rx="1" fill="#262625"/>
<rect x="357" y="74" width="2" height="76" rx="1" fill="#262625"/>
<rect x="365" y="58" width="2" height="92" rx="1" fill="#262625"/>
<rect x="373" y="56" width="2" height="94" rx="1" fill="#262625"/>
<rect x="381" y="70" width="2" height="80" rx="1" fill="#262625"/>
<rect x="389" y="88" width="2" height="62" rx="1" fill="#262625"/>
<rect x="397" y="98" width="2" height="52" rx="1" fill="#262625"/>
<rect x="405" y="79" width="2" height="71" rx="1" fill="#262625"/>
<rect x="413" y="70" width="2" height="80" rx="1" fill="#262625"/>
<rect x="421" y="67" width="2" height="83" rx="1" fill="#262625"/>
<rect x="429" y="59" width="2" height="91" rx="1" fill="#262625"/>
<rect x="437" y="92" width="2" height="58" rx="1" fill="#262625"/>
<rect x="445" y="43" width="2" height="107" rx="1" fill="#262625"/>
<rect x="453" y="43" width="2" height="107" rx="1" fill="#262625"/>
<rect x="461" y="2" width="2" height="148" rx="1" fill="#262625"/>
<rect x="469" width="2" height="150" rx="1" fill="#262625"/>
<rect x="477" y="4" width="2" height="146" rx="1" fill="#262625"/>
<rect x="485" y="2" width="2" height="148" rx="1" fill="#262625"/>
<rect x="493" y="11" width="2" height="139" rx="1" fill="#262625"/>
<rect x="501" width="2" height="150" rx="1" fill="#262625"/>
<rect x="509" y="6" width="2" height="144" rx="1" fill="#262625"/>
<rect x="517" y="4" width="2" height="146" rx="1" fill="#262625"/>
<rect x="525" y="106" width="2" height="44" rx="1" fill="#262625"/>
<rect x="533" y="43" width="2" height="107" rx="1" fill="#262625"/>
<rect x="541" y="88" width="2" height="62" rx="1" fill="#262625"/>
<rect x="549" y="57" width="2" height="93" rx="1" fill="#262625"/>
<rect x="557" y="55" width="2" height="95" rx="1" fill="#262625"/>
<rect x="565" y="74" width="2" height="76" rx="1" fill="#262625"/>
<rect x="573" y="58" width="2" height="92" rx="1" fill="#262625"/>
<rect x="581" y="70" width="2" height="80" rx="1" fill="#262625"/>
<rect x="589" y="88" width="2" height="62" rx="1" fill="#262625"/>
<rect x="597" y="98" width="2" height="52" rx="1" fill="#262625"/>
<path d="M42.5107 181V180.196C42.8347 180.244 43.1227 180.268 43.3747 180.268C44.2267 180.268 44.6827 179.98 44.6827 179.08V173.08H45.6187V179.164C45.6187 180.496 44.8387 181.132 43.5547 181.132C43.2427 181.132 42.8947 181.084 42.5107 181ZM52.0406 177.4V181H51.1766V180.244C50.7446 180.82 50.0606 181.132 49.2086 181.132C48.0086 181.132 47.1686 180.496 47.1686 179.488C47.1686 178.492 48.0086 177.856 49.2686 177.856H51.1166V177.352C51.1166 176.392 50.5766 175.876 49.7006 175.876C48.9926 175.876 48.4766 176.188 47.9966 176.812L47.3846 176.308C47.9126 175.444 48.7886 175.024 49.7606 175.024C51.1406 175.024 52.0406 175.864 52.0406 177.4ZM51.1166 178.756V178.612H49.3766C48.5606 178.612 48.1166 178.9 48.1166 179.44C48.1166 180.028 48.6446 180.364 49.3286 180.364C50.2886 180.364 51.1166 179.656 51.1166 178.756ZM58.8365 177.328V181H57.9125V177.436C57.9125 176.512 57.3605 175.876 56.4605 175.876C55.5605 175.876 54.9245 176.524 54.9245 177.436V181H54.0005V175.156H54.8645V175.78C55.2965 175.3 55.9325 175.024 56.6645 175.024C58.0205 175.024 58.8365 175.948 58.8365 177.328Z" fill="#6A6A6A"/>
<circle cx="70.5" cy="178" r="2.5" fill="#DBDBDB"/>
<rect x="75" y="177.5" width="491" height="1" fill="#DBDBDB"/>
<circle cx="570.5" cy="178" r="2.5" fill="#DBDBDB"/>
<path d="M582.408 181V173.08H587.364V173.92H583.344V176.644H586.68V177.496H583.344V181H582.408ZM593.426 178.36H588.806C588.914 179.512 589.802 180.28 590.954 180.28C591.614 180.28 592.214 180.016 592.742 179.488L593.282 180.112C592.67 180.748 591.866 181.132 590.942 181.132C589.202 181.132 587.846 179.8 587.846 178.084C587.846 176.392 589.166 175.024 590.834 175.024C592.346 175.024 593.498 176.116 593.498 177.664C593.498 177.892 593.474 178.12 593.426 178.36ZM588.842 177.544H592.55C592.538 176.5 591.782 175.864 590.81 175.864C589.838 175.864 589.046 176.536 588.842 177.544ZM601.086 178.084C601.086 179.8 599.85 181.132 598.206 181.132C597.294 181.132 596.43 180.736 595.986 180.076V181H595.122V172H596.046V176.008C596.514 175.396 597.318 175.024 598.194 175.024C599.838 175.024 601.086 176.368 601.086 178.084ZM600.138 178.072C600.138 176.812 599.25 175.876 598.062 175.876C596.982 175.876 596.034 176.596 596.034 178.084C596.034 179.56 597.018 180.28 598.062 180.28C599.25 180.28 600.138 179.332 600.138 178.072Z" fill="#6A6A6A"/>
</svg>
