<svg width="20" height="18" viewBox="0 0 20 18" fill="none" xmlns="http://www.w3.org/2000/svg">
<path d="M18.25 0.75H1.75C1.35218 0.75 0.970644 0.908035 0.68934 1.18934C0.408035 1.47064 0.25 1.85218 0.25 2.25V15.75C0.25 16.1478 0.408035 16.5294 0.68934 16.8107C0.970644 17.092 1.35218 17.25 1.75 17.25H18.25C18.6478 17.25 19.0294 17.092 19.3107 16.8107C19.592 16.5294 19.75 16.1478 19.75 15.75V2.25C19.75 1.85218 19.592 1.47064 19.3107 1.18934C19.0294 0.908035 18.6478 0.75 18.25 0.75ZM18.25 8.25H13.75V2.25H18.25V8.25ZM1.75 2.25H12.25V15.75H1.75V2.25ZM18.25 15.75H13.75V9.75H18.25V15.75ZM14.875 5.25C14.875 5.0275 14.941 4.80999 15.0646 4.62498C15.1882 4.43998 15.3639 4.29578 15.5695 4.21064C15.775 4.12549 16.0012 4.10321 16.2195 4.14662C16.4377 4.19002 16.6382 4.29717 16.7955 4.4545C16.9528 4.61184 17.06 4.81229 17.1034 5.03052C17.1468 5.24875 17.1245 5.47495 17.0394 5.68052C16.9542 5.88609 16.81 6.06179 16.625 6.1854C16.44 6.30902 16.2225 6.375 16 6.375C15.7016 6.375 15.4155 6.25647 15.2045 6.0455C14.9935 5.83452 14.875 5.54837 14.875 5.25ZM17.125 12.75C17.125 12.9725 17.059 13.19 16.9354 13.375C16.8118 13.56 16.6361 13.7042 16.4305 13.7894C16.225 13.8745 15.9988 13.8968 15.7805 13.8534C15.5623 13.81 15.3618 13.7028 15.2045 13.5455C15.0472 13.3882 14.94 13.1877 14.8966 12.9695C14.8532 12.7512 14.8755 12.525 14.9606 12.3195C15.0458 12.1139 15.19 11.9382 15.375 11.8146C15.56 11.691 15.7775 11.625 16 11.625C16.2984 11.625 16.5845 11.7435 16.7955 11.9545C17.0065 12.1655 17.125 12.4516 17.125 12.75ZM10.7266 12.5625C10.4839 11.6563 9.9084 10.875 9.115 10.3744C9.53634 9.95553 9.82384 9.42102 9.94104 8.83859C10.0582 8.25616 9.99988 7.65205 9.77334 7.10283C9.54681 6.55361 9.1623 6.08402 8.66857 5.75358C8.17483 5.42315 7.5941 5.24675 7 5.24675C6.4059 5.24675 5.82517 5.42315 5.33143 5.75358C4.8377 6.08402 4.45319 6.55361 4.22666 7.10283C4.00012 7.65205 3.94175 8.25616 4.05896 8.83859C4.17616 9.42102 4.46366 9.95553 4.885 10.3744C4.09211 10.8755 3.51681 11.6566 3.27344 12.5625C3.22371 12.7552 3.25257 12.9598 3.35366 13.1312C3.45475 13.3026 3.6198 13.4268 3.8125 13.4766C4.0052 13.5263 4.20975 13.4974 4.38118 13.3963C4.55259 13.2952 4.67683 13.1302 4.72656 12.9375C4.97406 11.9766 5.95094 11.25 7 11.25C8.04906 11.25 9.02687 11.9747 9.27344 12.9375C9.32317 13.1302 9.4474 13.2952 9.61882 13.3963C9.79025 13.4974 9.9948 13.5263 10.1875 13.4766C10.3802 13.4268 10.5452 13.3026 10.6463 13.1312C10.7474 12.9598 10.7763 12.7552 10.7266 12.5625ZM5.5 8.25C5.5 7.95333 5.58797 7.66332 5.7528 7.41665C5.91762 7.16997 6.15189 6.97771 6.42597 6.86418C6.70006 6.75065 7.00166 6.72094 7.29264 6.77882C7.58361 6.8367 7.85088 6.97956 8.06066 7.18934C8.27044 7.39912 8.4133 7.66639 8.47118 7.95736C8.52906 8.24834 8.49935 8.54994 8.38582 8.82403C8.27229 9.09811 8.08003 9.33238 7.83335 9.4972C7.58668 9.66203 7.29667 9.75 7 9.75C6.60218 9.75 6.22064 9.59196 5.93934 9.31066C5.65804 9.02936 5.5 8.64782 5.5 8.25Z" fill="#262625"/>
</svg>
