<svg width="24" height="24" viewBox="0 0 24 24" fill="none" xmlns="http://www.w3.org/2000/svg">
<g clip-path="url(#clip0_4877_24101)">
<path d="M5.98999 4.92816C6.13044 5.06879 6.20933 5.25941 6.20933 5.45816C6.20933 5.65691 6.13044 5.84754 5.98999 5.98816C5.20067 6.77746 4.57454 7.71451 4.14736 8.74579C3.72018 9.77708 3.50031 10.8824 3.50031 11.9987C3.50031 13.1149 3.72018 14.2202 4.14736 15.2515C4.57454 16.2828 5.20067 17.2199 5.98999 18.0092C6.12655 18.1507 6.20206 18.3402 6.20025 18.5368C6.19845 18.7335 6.11949 18.9215 5.98037 19.0605C5.84124 19.1995 5.6531 19.2783 5.45645 19.2799C5.2598 19.2815 5.07038 19.2058 4.92899 19.0692C1.02399 15.1642 1.02399 8.83316 4.92899 4.92816C5.06962 4.78771 5.26024 4.70882 5.45899 4.70882C5.65775 4.70882 5.84937 4.78771 5.98999 4.92816ZM19.07 4.92816C22.975 8.83316 22.975 15.1652 19.07 19.0702C18.9278 19.2026 18.7398 19.2748 18.5455 19.2713C18.3512 19.2679 18.1658 19.1892 18.0284 19.0518C17.891 18.9144 17.8122 18.729 17.8088 18.5347C17.8054 18.3404 17.8775 18.1523 18.01 18.0102C18.7995 17.2208 19.4257 16.2837 19.853 15.2524C20.2803 14.221 20.5002 13.1155 20.5002 11.9992C20.5002 10.8828 20.2803 9.77734 19.853 8.74597C19.4257 7.71459 18.7995 6.77748 18.01 5.98816C17.9363 5.9195 17.8772 5.8367 17.8362 5.7447C17.7952 5.6527 17.7732 5.55339 17.7714 5.45268C17.7696 5.35198 17.7882 5.25195 17.8259 5.15856C17.8636 5.06518 17.9197 4.98034 17.991 4.90912C18.0622 4.8379 18.147 4.78176 18.2404 4.74404C18.3338 4.70632 18.4338 4.68779 18.5345 4.68957C18.6352 4.69135 18.7345 4.71339 18.8265 4.75438C18.9185 4.79537 19.0013 4.85447 19.07 4.92816ZM8.81799 7.75616C8.95844 7.89679 9.03733 8.08741 9.03733 8.28616C9.03733 8.48491 8.95844 8.67554 8.81799 8.81616C8.39997 9.23405 8.06838 9.73019 7.84214 10.2762C7.6159 10.8223 7.49946 11.4076 7.49946 11.9987C7.49946 12.5897 7.6159 13.175 7.84214 13.7211C8.06838 14.2671 8.39997 14.7633 8.81799 15.1812C8.95047 15.3233 9.0226 15.5114 9.01917 15.7057C9.01574 15.9 8.93703 16.0854 8.79962 16.2228C8.6622 16.3602 8.47682 16.4389 8.28252 16.4423C8.08822 16.4458 7.90017 16.3736 7.75799 16.2412C6.63286 15.116 6.00078 13.5899 6.00078 11.9987C6.00078 10.4074 6.63286 8.88137 7.75799 7.75616C7.89862 7.61571 8.08924 7.53682 8.28799 7.53682C8.48674 7.53682 8.67737 7.61571 8.81799 7.75616ZM16.243 7.75616C17.3681 8.88137 18.0002 10.4074 18.0002 11.9987C18.0002 13.5899 17.3681 15.116 16.243 16.2412C16.1738 16.3128 16.0911 16.37 15.9996 16.4094C15.9081 16.4487 15.8097 16.4694 15.7102 16.4703C15.6106 16.4713 15.5118 16.4523 15.4196 16.4147C15.3274 16.377 15.2437 16.3213 15.1732 16.251C15.1028 16.1806 15.047 16.0969 15.0093 16.0047C14.9715 15.9126 14.9525 15.8138 14.9533 15.7142C14.9541 15.6146 14.9748 15.5162 15.014 15.4247C15.0533 15.3332 15.1104 15.2504 15.182 15.1812C15.5999 14.7633 15.9313 14.2672 16.1575 13.7212C16.3836 13.1753 16.5 12.5901 16.5 11.9992C16.5 11.4082 16.3836 10.823 16.1575 10.2771C15.9313 9.7311 15.5999 9.23503 15.182 8.81716C15.0495 8.67499 14.9774 8.48694 14.9808 8.29264C14.9842 8.09834 15.063 7.91295 15.2004 7.77554C15.3378 7.63813 15.5232 7.55942 15.7175 7.55599C15.9118 7.55256 16.0998 7.62468 16.242 7.75716M12 10.4992C12.3978 10.4992 12.7794 10.6572 13.0607 10.9385C13.342 11.2198 13.5 11.6013 13.5 11.9992C13.5 12.397 13.342 12.7785 13.0607 13.0598C12.7794 13.3411 12.3978 13.4992 12 13.4992C11.6022 13.4992 11.2206 13.3411 10.9393 13.0598C10.658 12.7785 10.5 12.397 10.5 11.9992C10.5 11.6013 10.658 11.2198 10.9393 10.9385C11.2206 10.6572 11.6022 10.4992 12 10.4992Z" fill="#262625"/>
</g>
<defs>
<clipPath id="clip0_4877_24101">
<rect width="24" height="24" fill="white"/>
</clipPath>
</defs>
</svg>
