<svg width="24" height="24" viewBox="0 0 24 24" fill="none" xmlns="http://www.w3.org/2000/svg">
<g clip-path="url(#clip0_4877_26177)">
<path d="M5.98999 4.92914C6.13044 5.06976 6.20933 5.26039 6.20933 5.45914C6.20933 5.65789 6.13044 5.84851 5.98999 5.98914C5.20067 6.77844 4.57454 7.71548 4.14736 8.74677C3.72018 9.77805 3.50031 10.8834 3.50031 11.9996C3.50031 13.1159 3.72018 14.2212 4.14736 15.2525C4.57454 16.2838 5.20067 17.2208 5.98999 18.0101C6.12655 18.1517 6.20206 18.3411 6.20025 18.5378C6.19845 18.7344 6.11949 18.9225 5.98037 19.0615C5.84124 19.2005 5.6531 19.2793 5.45645 19.2809C5.2598 19.2825 5.07038 19.2068 4.92899 19.0701C1.02399 15.1651 1.02399 8.83414 4.92899 4.92914C5.06962 4.78869 5.26024 4.7098 5.45899 4.7098C5.65775 4.7098 5.84937 4.78869 5.98999 4.92914ZM19.07 4.92914C22.975 8.83414 22.975 15.1661 19.07 19.0711C18.9278 19.2036 18.7398 19.2757 18.5455 19.2723C18.3512 19.2689 18.1658 19.1902 18.0284 19.0528C17.891 18.9153 17.8122 18.73 17.8088 18.5357C17.8054 18.3414 17.8775 18.1533 18.01 18.0111C18.7995 17.2218 19.4257 16.2847 19.853 15.2533C20.2803 14.222 20.5002 13.1165 20.5002 12.0001C20.5002 10.8838 20.2803 9.77832 19.853 8.74694C19.4257 7.71557 18.7995 6.77846 18.01 5.98914C17.9363 5.92048 17.8772 5.83768 17.8362 5.74568C17.7952 5.65368 17.7732 5.55436 17.7714 5.45366C17.7696 5.35296 17.7882 5.25293 17.8259 5.15954C17.8636 5.06615 17.9197 4.98132 17.991 4.9101C18.0622 4.83888 18.147 4.78274 18.2404 4.74502C18.3338 4.70729 18.4338 4.68877 18.5345 4.69055C18.6352 4.69232 18.7345 4.71437 18.8265 4.75536C18.9185 4.79635 19.0013 4.85545 19.07 4.92914ZM8.81799 7.75714C8.95844 7.89776 9.03733 8.08839 9.03733 8.28714C9.03733 8.48589 8.95844 8.67651 8.81799 8.81714C8.39997 9.23502 8.06838 9.73116 7.84214 10.2772C7.6159 10.8233 7.49946 11.4086 7.49946 11.9996C7.49946 12.5907 7.6159 13.176 7.84214 13.7221C8.06838 14.2681 8.39997 14.7643 8.81799 15.1821C8.95047 15.3243 9.0226 15.5124 9.01917 15.7067C9.01574 15.901 8.93703 16.0863 8.79962 16.2238C8.6622 16.3612 8.47682 16.4399 8.28252 16.4433C8.08822 16.4467 7.90017 16.3746 7.75799 16.2421C6.63286 15.1169 6.00078 13.5909 6.00078 11.9996C6.00078 10.4084 6.63286 8.88235 7.75799 7.75714C7.89862 7.61669 8.08924 7.5378 8.28799 7.5378C8.48674 7.5378 8.67737 7.61669 8.81799 7.75714ZM16.243 7.75714C17.3681 8.88235 18.0002 10.4084 18.0002 11.9996C18.0002 13.5909 17.3681 15.1169 16.243 16.2421C16.1738 16.3138 16.0911 16.371 15.9996 16.4103C15.9081 16.4497 15.8097 16.4704 15.7102 16.4713C15.6106 16.4722 15.5118 16.4533 15.4196 16.4156C15.3274 16.378 15.2437 16.3223 15.1732 16.2519C15.1028 16.1815 15.047 16.0978 15.0093 16.0057C14.9715 15.9135 14.9525 15.8148 14.9533 15.7152C14.9541 15.6156 14.9748 15.5172 15.014 15.4257C15.0533 15.3341 15.1104 15.2514 15.182 15.1821C15.5999 14.7643 15.9313 14.2682 16.1575 13.7222C16.3836 13.1763 16.5 12.5911 16.5 12.0001C16.5 11.4092 16.3836 10.824 16.1575 10.2781C15.9313 9.73208 15.5999 9.236 15.182 8.81814C15.0495 8.67596 14.9774 8.48792 14.9808 8.29362C14.9842 8.09931 15.063 7.91393 15.2004 7.77652C15.3378 7.6391 15.5232 7.56039 15.7175 7.55696C15.9118 7.55354 16.0998 7.62566 16.242 7.75814M12 10.5001C12.3978 10.5001 12.7794 10.6582 13.0607 10.9395C13.342 11.2208 13.5 11.6023 13.5 12.0001C13.5 12.398 13.342 12.7795 13.0607 13.0608C12.7794 13.3421 12.3978 13.5001 12 13.5001C11.6022 13.5001 11.2206 13.3421 10.9393 13.0608C10.658 12.7795 10.5 12.398 10.5 12.0001C10.5 11.6023 10.658 11.2208 10.9393 10.9395C11.2206 10.6582 11.6022 10.5001 12 10.5001Z" fill="#8B8D91"/>
</g>
<defs>
<clipPath id="clip0_4877_26177">
<rect width="24" height="24" fill="white"/>
</clipPath>
</defs>
</svg>
