<svg width="24" height="24" viewBox="0 0 24 24" fill="none" xmlns="http://www.w3.org/2000/svg">
<g clip-path="url(#clip0_4877_25700)">
<g clip-path="url(#clip1_4877_25700)">
<path d="M12 14.75C13.5188 14.75 14.75 13.5188 14.75 12C14.75 10.4812 13.5188 9.25 12 9.25C10.4812 9.25 9.25 10.4812 9.25 12C9.25 13.5188 10.4812 14.75 12 14.75Z" stroke="#262625" stroke-width="1.375"/>
<path d="M13.6178 2.97332C13.2814 2.83398 12.8543 2.83398 11.9999 2.83398C11.1456 2.83398 10.7184 2.83398 10.382 2.97332C10.1594 3.06545 9.95718 3.20056 9.78684 3.3709C9.6165 3.54124 9.4814 3.74348 9.38926 3.96607C9.30493 4.17048 9.27101 4.40973 9.25817 4.75715C9.25221 5.00825 9.18264 5.25374 9.056 5.47064C8.92935 5.68755 8.74975 5.86879 8.53401 5.9974C8.31475 6.12002 8.06796 6.18502 7.81675 6.1863C7.56553 6.18758 7.31809 6.12511 7.09759 6.00473C6.78959 5.84157 6.56684 5.75173 6.34592 5.7224C5.86405 5.65903 5.37673 5.7896 4.99109 6.0854C4.70326 6.30815 4.48876 6.67757 4.06159 7.41732C3.63442 8.15707 3.41992 8.52648 3.37317 8.88857C3.34167 9.12732 3.35752 9.36993 3.4198 9.60255C3.48209 9.83518 3.58959 10.0533 3.73617 10.2443C3.87184 10.4203 4.06159 10.5679 4.35584 10.7531C4.78942 11.0253 5.06809 11.4892 5.06809 12.0007C5.06809 12.5122 4.78942 12.976 4.35584 13.2473C4.06159 13.4334 3.87092 13.581 3.73617 13.757C3.58959 13.9481 3.48209 14.1661 3.4198 14.3987C3.35752 14.6314 3.34167 14.874 3.37317 15.1127C3.42084 15.4739 3.63442 15.8442 4.06067 16.584C4.48876 17.3237 4.70234 17.6932 4.99109 17.9159C5.18216 18.0625 5.40023 18.17 5.63285 18.2323C5.86548 18.2946 6.10809 18.3104 6.34684 18.2789C6.56684 18.2496 6.78959 18.1597 7.09759 17.9966C7.31809 17.8762 7.56553 17.8137 7.81675 17.815C8.06796 17.8163 8.31475 17.8813 8.53401 18.0039C8.97676 18.2606 9.23984 18.7327 9.25817 19.2442C9.27101 19.5925 9.30401 19.8308 9.38926 20.0352C9.4814 20.2578 9.6165 20.4601 9.78684 20.6304C9.95718 20.8007 10.1594 20.9358 10.382 21.028C10.7184 21.1673 11.1456 21.1673 11.9999 21.1673C12.8543 21.1673 13.2814 21.1673 13.6178 21.028C13.8404 20.9358 14.0427 20.8007 14.213 20.6304C14.3834 20.4601 14.5185 20.2578 14.6106 20.0352C14.6949 19.8308 14.7288 19.5925 14.7417 19.2442C14.76 18.7327 15.0231 18.2597 15.4658 18.0039C15.6851 17.8813 15.9319 17.8163 16.1831 17.815C16.4343 17.8137 16.6818 17.8762 16.9023 17.9966C17.2103 18.1597 17.433 18.2496 17.653 18.2789C17.8918 18.3104 18.1344 18.2946 18.367 18.2323C18.5996 18.17 18.8177 18.0625 19.0088 17.9159C19.2975 17.6941 19.5111 17.3237 19.9383 16.584C20.3654 15.8442 20.5799 15.4748 20.6267 15.1127C20.6582 14.874 20.6423 14.6314 20.58 14.3987C20.5178 14.1661 20.4103 13.9481 20.2637 13.757C20.128 13.581 19.9383 13.4334 19.644 13.2482C19.4294 13.1175 19.2516 12.9345 19.127 12.7163C19.0024 12.4981 18.9352 12.2519 18.9318 12.0007C18.9318 11.4892 19.2104 11.0253 19.644 10.754C19.9383 10.5679 20.1289 10.4203 20.2637 10.2443C20.4103 10.0533 20.5178 9.83518 20.58 9.60255C20.6423 9.36993 20.6582 9.12732 20.6267 8.88857C20.579 8.5274 20.3654 8.15707 19.9392 7.41732C19.5111 6.67757 19.2975 6.30815 19.0088 6.0854C18.8177 5.93882 18.5996 5.83131 18.367 5.76903C18.1344 5.70674 17.8918 5.6909 17.653 5.7224C17.433 5.75173 17.2103 5.84157 16.9013 6.00473C16.681 6.12495 16.4337 6.18733 16.1826 6.18605C15.9316 6.18476 15.685 6.11986 15.4658 5.9974C15.2501 5.86879 15.0705 5.68755 14.9439 5.47064C14.8172 5.25374 14.7476 5.00825 14.7417 4.75715C14.7288 4.40882 14.6958 4.17048 14.6106 3.96607C14.5185 3.74348 14.3834 3.54124 14.213 3.3709C14.0427 3.20056 13.8404 3.06545 13.6178 2.97332Z" stroke="#262625" stroke-width="1.375"/>
</g>
</g>
<defs>
<clipPath id="clip0_4877_25700">
<rect width="22" height="22" fill="white" transform="translate(1 1)"/>
</clipPath>
<clipPath id="clip1_4877_25700">
<rect width="22" height="22" fill="white" transform="translate(1 1)"/>
</clipPath>
</defs>
</svg>
